<?xml version="1.0" standalone="no"?>
<!DOCTYPE svg PUBLIC "-//W3C//DTD SVG 20010904//EN"
 "http://www.w3.org/TR/2001/REC-SVG-20010904/DTD/svg10.dtd">
<svg version="1.0" xmlns="http://www.w3.org/2000/svg"
 width="225.000000pt" height="225.000000pt" viewBox="0 0 225.000000 225.000000"
 preserveAspectRatio="xMidYMid meet">

<g transform="translate(0.000000,225.000000) scale(0.100000,-0.100000)"
fill="#000000" stroke="none">
<path d="M1047 1574 c44 -49 158 -172 252 -274 l171 -185 -38 -40 c-32 -33
-344 -372 -431 -468 l-25 -27 165 0 164 0 335 261 c184 143 339 264 343 268 5
5 -145 129 -333 275 l-342 266 -87 0 c-47 0 -124 3 -171 7 l-85 6 82 -89z"/>
<path d="M306 1373 c15 -21 66 -87 111 -146 48 -63 80 -114 76 -120 -4 -7 -50
-68 -103 -137 -53 -69 -100 -131 -104 -137 -6 -10 72 -13 376 -13 l383 1 133
144 c74 80 132 149 130 154 -2 5 -61 72 -133 150 l-129 141 -384 0 -384 0 28
-37z"/>
</g>
</svg>
