<?xml version="1.0" standalone="no"?>
<!DOCTYPE svg PUBLIC "-//W3C//DTD SVG 20010904//EN"
 "http://www.w3.org/TR/2001/REC-SVG-20010904/DTD/svg10.dtd">
<svg version="1.0" xmlns="http://www.w3.org/2000/svg"
 width="5000.000000pt" height="5000.000000pt" viewBox="0 0 5000.000000 5000.000000"
 preserveAspectRatio="xMidYMid meet">

<g transform="translate(0.000000,5000.000000) scale(0.100000,-0.100000)"
fill="#000000" stroke="none">
<path d="M23340 37826 c0 -9 9 -54 20 -99 11 -45 140 -602 286 -1237 307
-1336 608 -2643 939 -4080 213 -925 640 -2776 717 -3112 17 -76 29 -141 25
-144 -5 -6 -132 2 -342 21 -143 13 -234 21 -1485 125 -261 22 -502 42 -535 45
-90 8 -520 44 -600 50 -94 8 -168 14 -235 20 -30 3 -217 19 -415 35 -352 29
-655 55 -765 65 -30 2 -219 18 -420 35 -201 16 -444 37 -540 45 -96 8 -200 17
-230 20 -30 2 -541 45 -1135 94 -594 50 -1102 93 -1130 95 -27 3 -79 8 -115
11 -36 2 -90 7 -120 10 -30 2 -194 16 -365 30 -170 14 -413 34 -540 45 -126
11 -261 22 -300 25 -38 3 -90 8 -115 10 -25 3 -180 16 -345 30 -549 45 -1739
144 -1795 150 -30 2 -217 18 -415 35 -198 16 -385 32 -415 35 -30 2 -140 12
-245 20 -184 15 -251 21 -345 30 -25 3 -85 7 -135 11 -49 3 -101 7 -115 9 -14
2 -63 6 -110 10 -47 3 -105 8 -130 10 -25 3 -423 36 -885 75 -973 81 -958 79
-1010 85 -22 2 -71 7 -110 10 -72 5 -626 51 -725 59 -30 3 -89 8 -130 11 -41
3 -93 8 -115 10 -22 3 -258 23 -525 45 -515 43 -1275 106 -1375 115 -146 12
-433 37 -715 60 -168 14 -327 27 -355 30 -114 11 -896 75 -919 75 l-26 0 0
-5850 0 -5850 26 0 c22 0 943 76 1754 145 96 8 204 17 240 20 36 3 88 8 115
10 28 3 79 7 115 10 36 3 171 14 300 25 129 11 478 40 775 65 297 25 563 47
590 50 28 2 82 7 120 10 39 3 93 8 120 10 28 2 79 7 115 10 36 3 92 7 125 10
103 9 417 35 490 40 39 3 88 8 110 10 54 6 42 5 1130 95 528 44 985 83 1015
85 30 3 136 12 235 20 423 36 2008 169 2440 205 1155 97 1695 142 2030 170
198 17 383 32 410 35 28 2 82 7 120 10 113 9 163 14 290 25 66 6 282 24 480
40 198 16 387 32 420 35 55 5 825 70 1910 160 231 20 445 38 475 40 73 7 338
29 775 65 198 17 385 33 415 35 30 3 188 17 350 30 1442 120 2463 206 2505
210 277 26 335 29 335 14 0 -18 3 -5 -745 -3249 -129 -558 -333 -1447 -455
-1975 -121 -528 -326 -1417 -455 -1975 -128 -558 -257 -1115 -285 -1238 -28
-123 -50 -227 -48 -233 2 -5 118 59 258 142 140 83 352 209 470 279 118 70
433 257 700 415 1306 774 1515 898 1920 1138 195 116 510 302 700 415 190 113
455 270 590 350 601 355 790 467 855 507 39 23 230 137 425 252 489 290 1110
658 1785 1058 314 186 629 373 700 415 72 42 690 409 1375 815 685 406 1511
895 1835 1088 325 192 698 414 830 492 132 78 751 445 1375 815 624 370 1194
708 1265 750 72 43 252 149 400 237 149 88 416 247 595 353 179 106 435 258
570 338 135 79 364 216 510 302 146 87 715 424 1265 750 550 326 1072 636
1160 688 88 52 219 130 290 172 185 110 268 159 1050 622 385 228 709 420 719
425 25 14 98 -32 -899 558 -462 274 -910 539 -995 590 -85 51 -254 151 -375
222 -121 72 -488 289 -815 483 -327 194 -1043 618 -1590 943 -547 324 -1103
654 -1235 732 -991 588 -1457 864 -1690 1002 -148 88 -830 492 -1515 898
-1277 757 -1438 853 -1620 960 -128 75 -1781 1056 -2150 1275 -278 165 -1313
778 -1510 895 -188 111 -955 566 -1240 735 -146 86 -375 222 -510 302 -135 80
-461 273 -725 430 -264 157 -1162 689 -1995 1183 -833 494 -1778 1054 -2100
1245 -322 190 -606 359 -632 374 -40 23 -48 25 -48 12z"/>
</g>
</svg>
