<?xml version="1.0" standalone="no"?>
<!DOCTYPE svg PUBLIC "-//W3C//DTD SVG 20010904//EN"
 "http://www.w3.org/TR/2001/REC-SVG-20010904/DTD/svg10.dtd">
<svg version="1.0" xmlns="http://www.w3.org/2000/svg"
 width="1263.000000pt" height="421.000000pt" viewBox="0 0 1263.000000 421.000000"
 preserveAspectRatio="xMidYMid meet">

<g transform="translate(0.000000,421.000000) scale(0.100000,-0.100000)"
fill="#000000" stroke="none">
<path d="M2980 4200 c0 -5 22 -7 53 -3 71 8 72 13 4 13 -31 0 -57 -4 -57 -10z"/>
<path d="M6257 4188 c-6 -24 -22 -430 -22 -559 0 -74 17 -121 36 -102 4 4 10
121 14 258 3 138 8 266 11 286 3 20 6 59 8 88 2 47 0 51 -20 51 -14 0 -24 -8
-27 -22z"/>
<path d="M820 4050 c0 -5 5 -10 10 -10 6 0 10 5 10 10 0 6 -4 10 -10 10 -5 0
-10 -4 -10 -10z"/>
<path d="M920 4049 c0 -5 5 -7 10 -4 6 3 10 8 10 11 0 2 -4 4 -10 4 -5 0 -10
-5 -10 -11z"/>
<path d="M3290 4025 c7 -8 19 -15 28 -15 13 0 12 -3 -3 -20 -10 -11 -24 -20
-32 -20 -7 0 -13 -9 -13 -20 0 -22 -26 -28 -33 -7 -2 6 -12 -3 -21 -21 -10
-19 -20 -31 -23 -28 -3 3 0 12 7 21 21 25 3 17 -27 -12 -15 -16 -27 -31 -25
-35 1 -5 -3 -8 -9 -8 -5 0 -7 -4 -4 -10 3 -5 0 -7 -9 -4 -10 4 -17 -2 -22 -21
-4 -17 -11 -24 -20 -21 -8 3 -14 1 -14 -4 0 -13 46 -24 62 -14 10 6 10 4 -1
-9 -12 -15 -11 -17 3 -17 9 0 16 -5 16 -11 0 -5 5 -7 12 -3 6 4 8 3 5 -3 -6
-10 37 -62 52 -64 3 0 17 -2 29 -5 23 -4 23 -4 -5 26 -15 16 -29 41 -30 55 -2
25 11 34 22 15 11 -18 25 -10 25 14 0 23 23 56 39 56 4 0 15 -18 25 -40 10
-22 26 -45 37 -51 53 -28 120 -1 140 56 9 23 17 31 28 27 20 -6 60 -53 61 -69
0 -6 8 -9 19 -6 10 2 25 -3 35 -12 9 -9 16 -12 16 -8 0 5 -24 33 -52 63 -29
29 -51 58 -50 64 2 6 0 8 -3 4 -9 -9 -45 9 -45 22 0 20 33 9 74 -25 24 -19 47
-35 52 -35 4 0 22 -14 40 -31 20 -19 34 -27 38 -20 4 6 1 11 -6 12 -7 0 -3 4
9 9 l21 9 -21 65 c-12 36 -28 66 -34 66 -7 0 -13 8 -13 18 0 16 -18 37 -49 57
-9 5 -12 4 -8 -3 5 -6 0 -8 -13 -5 -11 3 -23 9 -26 14 -3 5 3 6 12 2 10 -4 15
-2 11 3 -3 6 -75 11 -163 13 -141 2 -156 0 -144 -14z m134 -94 c3 -5 -10 -11
-29 -13 -41 -5 -48 9 -7 15 15 2 28 5 29 6 1 0 4 -3 7 -8z m71 -21 c3 -5 -1
-10 -10 -10 -9 0 -13 5 -10 10 3 6 8 10 10 10 2 0 7 -4 10 -10z m-195 -10 c-8
-5 -22 -9 -30 -9 -10 0 -8 3 5 9 27 12 43 12 25 0z m345 0 c3 -6 -1 -7 -9 -4
-18 7 -21 14 -7 14 6 0 13 -4 16 -10z m-400 -20 c-3 -5 -12 -10 -18 -10 -7 0
-6 4 3 10 19 12 23 12 15 0z m188 -13 c4 3 7 1 7 -5 0 -6 -5 -14 -10 -17 -14
-8 -42 14 -34 27 4 5 11 5 18 -1 7 -6 16 -8 19 -4z"/>
<path d="M4180 4022 c-8 -10 -11 -11 -6 -3 6 9 -8 -2 -30 -24 -21 -22 -38 -43
-36 -47 2 -5 -1 -8 -6 -8 -5 0 -15 -20 -22 -45 -7 -25 -17 -48 -21 -51 -5 -3
-9 -19 -9 -36 0 -30 0 -31 20 -13 11 10 18 20 16 22 -2 3 10 18 26 34 17 16
27 29 23 29 -5 0 2 11 15 25 13 14 25 23 28 20 2 -2 12 3 20 12 12 11 17 12
20 3 3 -7 9 -3 16 11 6 12 22 24 36 26 13 2 28 10 32 17 7 12 71 32 91 28 4
-1 7 3 7 8 0 6 -41 10 -102 10 -86 -1 -106 -4 -118 -18z"/>
<path d="M1258 3993 c7 -3 16 -2 19 1 4 3 -2 6 -13 5 -11 0 -14 -3 -6 -6z"/>
<path d="M1303 3993 c9 -2 23 -2 30 0 6 3 -1 5 -18 5 -16 0 -22 -2 -12 -5z"/>
<path d="M4395 3988 c-54 -6 -173 -36 -151 -37 5 -1 3 -8 -4 -16 -7 -8 -16
-13 -20 -10 -4 3 -13 -2 -20 -10 -7 -8 -17 -12 -22 -9 -5 3 -8 0 -7 -7 4 -22
-12 -49 -25 -42 -6 3 -8 3 -4 -2 4 -4 1 -14 -7 -22 -8 -8 -15 -19 -15 -25 0
-5 23 11 51 36 28 25 59 46 69 46 19 0 43 23 34 33 -12 11 43 30 96 33 55 3
145 -15 187 -38 13 -6 29 -21 37 -34 14 -20 14 -22 -4 -17 -11 3 -20 10 -20
15 0 6 -7 8 -15 4 -8 -3 -14 0 -12 7 1 7 -8 11 -23 10 -14 -1 -19 0 -12 3 23
11 12 24 -13 14 -21 -8 -25 -7 -25 8 0 10 -3 13 -8 7 -4 -5 -31 -11 -61 -12
-68 -2 -168 -51 -221 -109 -49 -53 -64 -81 -45 -81 8 0 11 5 8 10 -3 5 1 13 8
18 8 5 17 3 21 -4 6 -9 8 -8 8 3 0 8 15 30 34 48 33 31 56 41 56 23 0 -5 15
-26 34 -45 26 -28 41 -36 68 -36 45 0 83 30 98 76 12 34 13 35 32 18 13 -13
17 -25 13 -42 -6 -23 -4 -24 30 -18 33 7 48 -5 25 -19 -6 -4 -8 -10 -5 -15 6
-10 -30 -51 -39 -44 -3 2 -4 1 -1 -3 3 -3 0 -12 -6 -20 -15 -18 -3 -16 31 4
16 9 37 32 47 50 10 18 22 33 26 33 5 0 7 6 4 14 -3 8 2 16 15 19 11 3 17 10
13 16 -3 6 2 11 12 12 10 0 13 3 6 6 -7 2 -13 11 -13 19 0 8 -6 14 -12 14 -9
0 -8 3 2 10 12 8 12 10 -4 16 -13 5 -16 14 -12 33 3 14 3 20 0 14 -3 -7 -13
-13 -21 -13 -13 0 -14 2 -2 18 12 15 12 16 -2 5 -18 -15 -59 -9 -71 9 -4 7 -8
9 -8 4 0 -5 -7 -3 -15 4 -8 6 -18 9 -24 6 -5 -4 -15 0 -23 6 -9 10 -30 11 -73
6z m-125 -72 c0 -3 -4 -8 -10 -11 -5 -3 -10 -1 -10 4 0 6 5 11 10 11 6 0 10
-2 10 -4z m110 -40 c0 -20 -19 -31 -32 -18 -6 6 -7 15 -4 21 10 16 36 13 36
-3z"/>
<path d="M3010 3921 c0 -5 7 -12 16 -15 14 -5 15 -4 4 9 -14 17 -20 19 -20 6z"/>
<path d="M3010 3850 c0 -5 7 -7 15 -4 8 4 15 8 15 10 0 2 -7 4 -15 4 -8 0 -15
-4 -15 -10z"/>
<path d="M3075 3830 c3 -5 8 -10 11 -10 2 0 4 5 4 10 0 6 -5 10 -11 10 -5 0
-7 -4 -4 -10z"/>
<path d="M863 3763 c-7 -2 -13 -10 -13 -17 0 -13 -59 -99 -72 -104 -4 -2 -4
-10 -1 -19 4 -9 2 -14 -3 -10 -5 3 -10 -3 -10 -14 0 -19 1 -19 13 -3 7 10 13
24 13 31 0 7 4 13 8 13 5 0 15 12 23 28 8 15 20 33 27 40 6 7 12 20 12 27 0 8
8 19 18 24 17 11 7 13 -15 4z"/>
<path d="M654 3714 c-8 -20 -13 -39 -10 -41 5 -5 12 10 31 65 10 29 -7 9 -21
-24z"/>
<path d="M4430 3690 c0 -5 7 -10 16 -10 8 0 12 5 9 10 -3 6 -10 10 -16 10 -5
0 -9 -4 -9 -10z"/>
<path d="M3312 3676 c7 -8 15 -12 17 -11 5 6 -10 25 -20 25 -5 0 -4 -6 3 -14z"/>
<path d="M1798 3660 c-15 -4 -37 -15 -50 -24 -12 -9 -39 -16 -60 -16 -27 0
-47 -8 -72 -30 -29 -26 -41 -30 -78 -28 -39 3 -43 1 -45 -22 -3 -25 -3 -25 7
-2 11 26 16 27 54 7 31 -17 27 -18 94 43 7 6 21 12 30 12 11 0 13 -3 6 -8 -28
-18 26 -79 59 -67 7 3 20 -1 27 -10 20 -24 -2 -39 -68 -45 -63 -6 -76 -20 -87
-92 -6 -37 -25 -54 -25 -23 0 8 -5 15 -11 15 -7 0 -8 7 -4 18 5 9 11 37 14 62
6 43 7 45 36 42 17 -1 39 4 50 12 19 14 16 15 -32 16 -76 0 -80 -3 -75 -58 5
-59 -21 -99 -57 -87 -17 5 -20 11 -14 28 7 21 6 97 -1 104 -6 6 -86 -29 -86
-37 0 -5 14 -2 31 7 16 8 32 13 34 11 5 -5 -18 -38 -49 -70 -21 -23 -36 -10
-29 26 3 18 2 18 -7 -3 -6 -13 -8 -32 -5 -42 4 -11 -5 -35 -21 -59 -34 -51
-25 -78 39 -108 25 -12 48 -29 51 -39 9 -28 64 -88 73 -79 4 4 0 12 -10 17
-23 13 -52 70 -39 78 5 3 13 17 17 30 6 21 11 23 49 16 22 -4 49 -7 60 -7 22
1 56 30 56 49 0 17 -19 17 -26 -1 -9 -23 -51 -28 -85 -10 -25 12 -37 14 -56 5
-32 -15 -33 -15 -33 13 0 47 95 81 107 38 2 -10 13 -24 24 -30 18 -11 21 -9
35 23 24 58 79 38 77 -28 -2 -55 -9 -72 -30 -75 -12 -2 -29 -12 -39 -23 -18
-20 -59 -26 -69 -9 -7 12 -35 13 -35 2 0 -5 15 -17 34 -27 29 -16 39 -17 60
-7 14 6 26 16 26 21 0 6 20 8 49 4 46 -5 51 -3 81 27 17 17 34 29 38 25 8 -7
-32 -43 -90 -80 -28 -19 -48 -24 -86 -22 -28 1 -48 -1 -46 -4 6 -10 -24 -31
-35 -25 -5 4 -12 2 -16 -4 -3 -5 3 -10 14 -10 12 0 21 -6 21 -14 0 -17 89 -56
129 -56 16 0 53 5 81 11 47 10 52 9 81 -15 17 -14 39 -26 49 -26 12 0 27 -16
42 -46 26 -53 57 -78 83 -68 14 6 16 15 12 53 -3 25 -8 56 -12 67 -5 18 -1 23
22 29 15 3 34 12 41 18 8 6 35 18 61 27 35 11 50 23 63 49 9 19 30 40 46 47
44 18 65 72 57 147 -9 75 -29 127 -49 127 -8 0 -19 6 -23 14 -4 7 -18 18 -29
24 -13 7 -24 25 -28 46 -8 43 -29 61 -71 58 -25 -2 -34 2 -38 17 -9 37 -222
74 -299 51z m51 -22 c8 -7 11 -8 8 -2 -4 8 12 11 51 11 73 0 81 -5 43 -28 -36
-22 -72 -24 -89 -7 -19 19 -39 -6 -21 -28 11 -13 25 -15 79 -10 47 4 60 3 48
-5 -33 -19 -13 -91 22 -82 16 4 16 1 6 -31 -9 -31 -15 -36 -41 -35 -28 0 -28
1 -7 9 26 11 28 25 5 39 -12 6 -18 22 -18 42 0 30 -3 34 -40 42 -22 5 -47 11
-55 14 -8 4 -18 7 -22 7 -4 1 -14 10 -22 21 -14 18 -13 22 7 37 27 21 29 21
46 6z m229 -43 c0 -15 -6 -25 -14 -25 -20 0 -21 -30 -3 -79 10 -24 11 -25 23
-8 16 21 39 22 56 2 10 -12 10 -21 -1 -46 -12 -31 -13 -31 -29 -12 -9 11 -26
23 -37 27 -13 4 -24 19 -28 36 -5 21 -14 32 -31 36 -19 5 -22 9 -13 20 6 8 15
11 20 8 5 -3 9 2 9 10 0 9 5 16 11 16 5 0 7 5 3 11 -3 6 0 15 7 20 22 14 27
11 27 -16z m-324 -23 c2 -4 -4 -8 -14 -8 -10 0 -16 4 -14 8 3 4 9 8 14 8 5 0
11 -4 14 -8z m422 0 c6 -4 13 -24 16 -44 3 -29 1 -35 -9 -26 -7 5 -11 14 -8
18 5 9 -29 20 -63 20 -20 0 -21 2 -10 13 24 24 55 32 74 19z m-328 -42 c12 -1
10 -5 -8 -15 -34 -19 -40 -19 -40 6 0 15 4 19 16 15 9 -3 23 -6 32 -6z m277
-10 c3 -5 1 -10 -4 -10 -6 0 -11 5 -11 10 0 6 2 10 4 10 3 0 8 -4 11 -10z
m-270 -51 c3 -4 -8 -16 -25 -25 -16 -10 -30 -22 -30 -27 0 -4 -5 -5 -12 -1 -6
4 -8 3 -4 -4 3 -6 1 -14 -5 -18 -6 -3 -15 0 -20 7 -5 8 -9 10 -9 6 0 -5 -7 -1
-16 7 -8 9 -20 14 -25 11 -13 -9 12 -44 49 -67 25 -15 32 -26 30 -46 -3 -25
-40 -72 -56 -72 -4 0 -6 21 -6 47 2 53 -3 73 -17 73 -21 0 -51 39 -47 62 3 21
7 23 46 20 24 -2 50 2 58 8 8 7 14 9 14 4 0 -5 7 1 15 13 14 21 48 22 60 2z
m385 -11 c0 -22 -23 -23 -44 -2 -21 21 -21 22 14 20 22 0 30 -6 30 -18z m-750
-27 c0 -4 -11 -24 -24 -44 -35 -51 -39 -73 -22 -109 20 -40 21 -38 -11 -38
-30 0 -73 35 -73 60 0 21 100 138 118 139 6 1 12 -3 12 -8z m384 -43 c6 -32
-7 -58 -30 -58 -8 0 -11 6 -8 15 4 8 1 15 -5 15 -20 0 -24 30 -6 50 22 25 41
16 49 -22z m196 23 c0 -5 -7 -11 -15 -15 -8 -3 -15 -12 -15 -19 0 -19 -18 -33
-52 -41 -25 -6 -28 -4 -28 19 0 15 5 25 13 24 16 -3 48 11 65 28 15 15 32 17
32 4z m150 -21 c0 -5 -21 -20 -47 -32 -29 -14 -47 -29 -45 -37 2 -8 -3 -18
-10 -24 -9 -6 -8 -7 5 -3 10 3 27 1 39 -5 19 -10 19 -11 2 -30 -12 -14 -30
-19 -64 -19 -61 0 -139 -25 -175 -56 -16 -13 -40 -24 -54 -24 -31 0 -45 -9
-54 -32 -7 -19 -52 -24 -75 -9 -10 6 -4 12 20 22 18 7 44 24 58 37 40 37 125
74 154 66 16 -4 26 -2 26 5 0 6 -5 11 -11 11 -5 0 -7 4 -4 10 8 13 -50 2 -88
-16 -28 -13 -28 -12 -25 14 3 26 6 27 63 27 33 1 65 -2 70 -6 6 -4 26 -10 47
-14 31 -6 37 -4 43 15 4 12 4 24 1 27 -3 4 -6 1 -6 -5 0 -7 -7 -12 -15 -12 -9
0 -12 6 -9 15 4 8 12 15 20 15 8 0 14 10 14 23 0 16 9 27 28 34 35 14 92 16
92 3z m40 -52 c0 -7 -11 -14 -25 -14 -28 -2 -34 12 -7 19 29 8 32 7 32 -5z
m17 -42 c-10 -8 -17 -18 -16 -23 4 -11 -61 -54 -72 -47 -5 3 -7 10 -3 15 3 5
10 7 15 4 5 -3 6 1 3 9 -4 12 6 21 37 35 53 24 60 25 36 7z m33 -66 c-6 -11
-15 -18 -21 -15 -5 4 -9 0 -9 -8 0 -10 -7 -13 -18 -10 -16 4 -13 10 18 44 36
41 54 34 30 -11z m-259 -36 c-19 -8 -39 -13 -45 -10 -14 5 32 25 59 25 13 0 9
-5 -14 -15z m123 -4 c53 -24 56 -37 21 -73 -30 -29 -91 -32 -108 -6 -9 15 -13
14 -44 -3 -48 -29 -44 -47 10 -41 47 6 46 -3 -2 -17 -25 -7 -33 -5 -44 11 -8
10 -16 16 -19 14 -3 -3 -8 1 -11 10 -6 13 3 19 25 16 3 0 18 15 33 34 30 40
47 43 83 15 18 -15 28 -18 36 -9 8 8 1 19 -24 40 -41 35 -23 38 44 9z m-193
-19 c-7 -5 -11 -13 -7 -19 3 -6 1 -14 -5 -18 -7 -4 -9 -3 -5 4 3 5 1 12 -6 14
-16 6 0 28 20 28 14 0 14 -2 3 -9z m-54 -77 c45 -49 53 -68 28 -78 -35 -13
-98 36 -110 86 -5 20 -3 27 12 31 10 3 20 5 22 6 2 0 24 -20 48 -45z m-224 9
c18 -9 48 -17 67 -18 19 0 36 -5 38 -10 9 -25 -123 -33 -167 -10 -35 18 -39
30 -13 44 24 15 38 13 75 -6z m325 -117 c27 -54 29 -86 4 -86 -23 0 -44 24
-61 67 -11 26 -10 35 1 47 21 25 33 19 56 -28z"/>
<path d="M3346 3655 c4 -8 8 -15 10 -15 2 0 4 7 4 15 0 8 -4 15 -10 15 -5 0
-7 -7 -4 -15z"/>
<path d="M646 3647 c3 -10 9 -15 12 -12 3 3 0 11 -7 18 -10 9 -11 8 -5 -6z"/>
<path d="M625 3630 c-8 -13 -1 -24 14 -19 6 3 7 10 2 18 -6 10 -10 10 -16 1z"/>
<path d="M611 3588 c-1 -9 -4 -24 -8 -34 -6 -15 -3 -14 17 4 13 12 20 25 17
29 -4 3 -7 0 -8 -8 0 -8 -4 -6 -9 6 -7 16 -9 17 -9 3z"/>
<path d="M10980 3579 c0 -5 -4 -8 -9 -4 -5 3 -17 -5 -25 -17 -9 -12 -16 -16
-16 -9 0 8 -6 11 -17 6 -39 -15 -55 -15 -49 1 4 11 1 14 -12 12 -9 -2 -16 -11
-14 -21 2 -11 -6 -19 -23 -23 -14 -3 -25 -10 -25 -16 0 -5 -6 -6 -12 -2 -9 5
-9 2 1 -9 15 -19 8 -22 -20 -7 -13 7 -19 7 -19 0 0 -5 -3 -9 -7 -9 -22 4 -28
-4 -27 -36 1 -19 -2 -33 -7 -30 -4 3 -16 -6 -25 -19 -14 -23 -14 -27 -1 -41 8
-8 17 -19 19 -24 3 -9 29 -14 58 -12 9 0 21 14 27 31 14 36 100 80 115 58 5
-9 8 -7 8 6 0 17 5 15 31 -12 17 -18 38 -32 46 -32 12 0 12 -2 -1 -15 -8 -8
-22 -15 -30 -15 -9 0 -16 -6 -16 -13 0 -8 17 -12 55 -12 30 0 55 3 55 7 0 4
14 3 30 -2 36 -10 70 -5 82 12 11 18 10 100 -2 118 -7 11 -10 5 -10 -25 l-1
-40 -21 43 c-21 43 -42 52 -68 30 -8 -7 -7 -4 3 8 9 11 17 24 17 28 0 15 -29
36 -52 36 -32 0 -68 11 -68 20 0 13 38 18 75 10 39 -9 44 -4 18 16 -22 16 -63
18 -63 3z m126 -173 c15 -12 17 -17 7 -27 -10 -10 -16 -9 -28 7 -26 35 -15 46
21 20z"/>
<path d="M4260 3502 c-14 -2 -29 -8 -35 -14 -7 -8 -6 -9 3 -4 24 14 12 -13
-15 -32 -35 -25 -27 -34 18 -22 19 5 57 11 84 14 28 2 57 6 65 9 8 2 33 8 55
12 51 11 46 10 75 23 14 6 23 11 20 12 -12 4 -248 6 -270 2z"/>
<path d="M4660 3498 c0 -3 12 -16 28 -28 15 -12 22 -19 16 -16 -6 3 -11 -1
-11 -8 0 -7 7 -13 16 -12 9 1 16 -7 16 -16 0 -9 3 -20 7 -23 4 -4 4 -13 1 -21
-4 -10 4 -14 31 -14 l36 0 0 73 0 72 -70 0 c-39 0 -70 -3 -70 -7z"/>
<path d="M3435 3493 c17 -3 34 -9 40 -14 12 -12 28 -12 20 1 -3 6 -2 10 4 10
5 0 13 -5 16 -11 4 -6 14 -8 22 -5 9 4 21 2 27 -2 6 -5 19 -9 29 -9 16 0 16 2
1 18 -12 14 -32 17 -102 17 -48 -1 -73 -3 -57 -5z"/>
<path d="M7195 3490 c-56 -11 -185 -70 -185 -84 0 -7 36 6 83 28 45 22 93 41
107 41 94 4 110 6 110 15 0 12 -57 11 -115 0z"/>
<path d="M8885 3480 l-30 -6 29 -7 c53 -14 77 -57 31 -57 -14 0 -25 -5 -25
-11 0 -5 -4 -7 -10 -4 -5 3 -18 1 -27 -4 -10 -6 -13 -11 -7 -11 22 0 64 -49
64 -74 0 -21 5 -25 22 -23 18 2 22 -4 24 -36 2 -21 8 -45 15 -53 18 -22 52 17
43 50 -6 26 10 45 20 21 3 -9 12 -12 23 -8 17 7 17 6 0 -11 -19 -20 -15 -36
11 -36 12 0 13 -3 4 -12 -18 -18 -15 -40 6 -37 37 3 49 -2 62 -26 15 -28 33
-34 23 -9 -10 27 19 11 42 -22 13 -19 30 -30 50 -32 17 -2 25 1 19 5 -6 4 -19
23 -29 41 -11 17 -26 32 -35 32 -13 0 -13 1 0 10 13 8 12 10 -2 10 -26 0 -22
15 5 18 49 5 61 9 67 26 3 10 10 17 15 17 10 -1 11 2 14 33 0 8 11 16 23 18
12 2 22 11 24 24 2 12 8 34 14 49 10 27 11 27 25 9 8 -10 15 -14 15 -7 0 6 -4
15 -10 18 -21 13 -9 44 27 65 28 16 33 24 23 30 -10 6 -3 10 21 13 19 2 -99 4
-261 4 -162 0 -308 -3 -325 -7z m99 -195 c3 -8 1 -15 -4 -15 -6 0 -10 7 -10
15 0 8 2 15 4 15 2 0 6 -7 10 -15z m14 -64 c3 -8 -1 -12 -9 -9 -7 2 -15 10
-17 17 -3 8 1 12 9 9 7 -2 15 -10 17 -17z"/>
<path d="M9662 3483 c9 -2 20 -13 23 -24 4 -11 11 -16 17 -13 5 3 8 -2 7 -12
-3 -21 10 -66 21 -74 4 -3 17 -35 29 -72 14 -42 28 -68 37 -68 21 0 17 21 -11
62 -14 20 -25 42 -25 48 0 6 -9 32 -19 58 -30 73 -34 86 -33 95 1 4 -13 6 -30
6 -18 -1 -25 -3 -16 -6z"/>
<path d="M9780 3485 c0 -2 7 -30 16 -62 9 -32 22 -80 29 -108 l13 -50 1 51 c1
28 4 79 7 113 l7 61 -37 0 c-20 0 -36 -2 -36 -5z"/>
<path d="M695 3454 c-9 -15 -12 -23 -6 -20 11 7 35 46 28 46 -3 0 -12 -12 -22
-26z"/>
<path d="M8490 3450 c0 -34 16 -39 36 -12 21 26 16 42 -11 42 -21 0 -25 -5
-25 -30z"/>
<path d="M8620 3470 c25 -4 61 -13 80 -19 43 -14 63 -14 55 -1 -4 6 6 10 22
11 25 0 26 1 8 9 -11 5 -63 8 -115 8 -77 -1 -86 -2 -50 -8z"/>
<path d="M7460 3465 c0 -16 29 -32 69 -39 72 -11 99 -34 137 -113 20 -40 41
-73 48 -73 9 0 0 27 -24 78 -36 74 -85 131 -116 133 -56 5 -72 8 -91 14 -13 4
-23 4 -23 0z"/>
<path d="M492 3428 c-7 -13 -20 -34 -29 -48 -17 -24 -17 -24 0 -11 20 16 51
70 44 77 -2 2 -9 -6 -15 -18z"/>
<path d="M706 3423 c-6 -14 -5 -15 5 -6 7 7 10 15 7 18 -3 3 -9 -2 -12 -12z"/>
<path d="M3396 3432 c-3 -3 -20 -7 -36 -9 -28 -3 -59 -15 -116 -45 -22 -12
-58 -67 -49 -76 3 -3 18 6 33 21 46 44 114 68 196 69 41 0 80 -3 87 -8 8 -5
20 -9 27 -10 8 -2 23 -11 35 -20 12 -10 8 -3 -9 15 -17 18 -37 33 -45 34 -8 2
-19 6 -25 9 -17 11 -92 26 -98 20z"/>
<path d="M399 3413 c-13 -16 -12 -17 4 -4 9 7 17 15 17 17 0 8 -8 3 -21 -13z"/>
<path d="M4343 3390 c-18 -4 -33 -5 -33 -3 0 3 -6 0 -13 -6 -8 -6 -22 -12 -33
-14 -11 -1 -30 -12 -43 -24 -14 -13 -34 -20 -51 -19 -16 1 -26 -2 -24 -6 3 -5
0 -15 -6 -23 -9 -11 -9 -15 -1 -15 6 0 11 5 11 11 0 5 5 7 12 3 6 -4 8 -3 5 3
-4 6 0 13 8 17 18 7 20 -8 3 -26 -16 -17 -19 -58 -4 -58 6 1 24 19 39 41 16
23 31 39 33 36 7 -6 44 29 44 42 0 15 85 22 187 17 77 -5 92 -4 70 5 -15 6
-25 14 -22 18 6 10 -141 11 -182 1z"/>
<path d="M5615 3390 c-4 -6 -4 -14 -1 -17 3 -4 6 -1 6 7 0 10 3 10 17 -1 14
-12 16 -12 12 0 -7 19 -25 25 -34 11z"/>
<path d="M615 3360 c-3 -5 -1 -10 4 -10 6 0 11 5 11 10 0 6 -2 10 -4 10 -3 0
-8 -4 -11 -10z"/>
<path d="M341 3334 c-16 -37 -9 -39 11 -3 9 16 14 29 9 29 -4 0 -13 -12 -20
-26z"/>
<path d="M3370 3350 c0 -3 -12 -6 -26 -7 -15 0 -29 -5 -33 -10 -3 -5 -27 -20
-53 -33 -50 -26 -67 -48 -47 -61 17 -10 38 -1 77 33 18 15 36 28 40 28 4 0 6
-18 4 -40 -5 -51 17 -86 62 -98 73 -21 131 19 130 89 -2 45 1 47 33 17 13 -12
23 -17 23 -11 0 17 -112 94 -135 93 -3 0 -6 0 -7 1 -13 4 -68 3 -68 -1z m60
-69 c0 -26 -17 -36 -36 -21 -11 10 -12 16 -3 26 17 20 39 17 39 -5z m68 -53
c-3 -14 -18 -28 -30 -28 -4 0 0 9 9 20 20 23 24 25 21 8z m-39 -44 c2 -2 -12
-4 -32 -4 -20 0 -37 4 -37 10 0 8 58 3 69 -6z"/>
<path d="M424 3336 c-17 -19 -36 -57 -31 -62 2 -2 16 14 31 36 25 37 25 55 0
26z"/>
<path d="M591 3322 c-17 -31 -13 -40 5 -14 9 13 14 26 11 29 -3 2 -10 -4 -16
-15z"/>
<path d="M4105 3330 c-3 -6 1 -7 9 -4 18 7 21 14 7 14 -6 0 -13 -4 -16 -10z"/>
<path d="M11173 3329 c-9 -9 -8 -16 3 -27 8 -8 13 -20 11 -27 -3 -6 0 -12 7
-12 7 0 10 14 8 39 -4 40 -10 46 -29 27z"/>
<path d="M4095 3300 c-3 -5 -1 -10 4 -10 6 0 11 5 11 10 0 6 -2 10 -4 10 -3 0
-8 -4 -11 -10z"/>
<path d="M10372 3260 c0 -14 2 -19 5 -12 2 6 2 18 0 25 -3 6 -5 1 -5 -13z"/>
<path d="M658 3250 c-26 -24 -22 -35 4 -10 12 11 20 22 17 24 -2 2 -12 -4 -21
-14z"/>
<path d="M4250 3252 c-14 -9 -31 -23 -38 -29 -7 -7 -17 -13 -22 -13 -4 0 -11
-7 -14 -16 -3 -8 -2 -13 3 -9 5 3 12 -1 14 -7 4 -10 8 -9 16 2 6 8 11 12 11 7
0 -8 70 68 70 77 0 10 -13 6 -40 -12z"/>
<path d="M10526 3257 c3 -10 9 -15 12 -12 3 3 0 11 -7 18 -10 9 -11 8 -5 -6z"/>
<path d="M540 3245 c-7 -9 -11 -17 -9 -20 3 -2 10 5 17 15 14 24 10 26 -8 5z"/>
<path d="M11180 3227 c0 -13 -9 -17 -34 -17 -42 0 -68 -9 -60 -21 3 -5 1 -9
-3 -9 -13 0 -10 -47 5 -62 18 -18 15 -34 -14 -57 -29 -22 -69 -28 -79 -11 -4
6 -15 8 -26 5 -11 -4 -19 -2 -19 4 0 6 9 11 20 11 37 0 16 34 -25 42 -20 4
-23 19 -10 51 5 12 2 17 -10 17 -9 0 -14 4 -10 9 3 6 -3 9 -14 8 -22 -1 -17
-23 7 -31 10 -3 5 -4 -10 -2 -33 4 -36 -9 -8 -26 25 -16 26 -28 3 -28 -10 0
-27 -7 -37 -15 -19 -15 -19 -15 2 -15 13 0 22 -6 22 -15 0 -9 12 -18 30 -21
36 -8 39 -19 8 -29 l-23 -8 23 -4 c25 -5 62 -36 62 -53 0 -5 4 -10 10 -10 5 0
6 -8 3 -17 -6 -16 -5 -17 9 -2 9 8 18 24 21 35 4 16 5 16 6 2 1 -11 9 -18 21
-18 16 0 19 5 15 33 -3 17 -2 25 1 17 4 -8 11 -18 17 -21 6 -5 6 -18 -2 -40
-12 -36 -8 -47 11 -31 9 7 17 6 26 -4 11 -12 9 -13 -9 -11 -21 2 -49 -26 -37
-38 4 -4 23 -1 43 7 37 13 57 41 48 66 -3 6 0 12 6 12 6 0 11 -12 11 -27 0
-14 2 -24 4 -22 6 7 16 73 10 67 -3 -4 -14 1 -24 10 -31 26 -48 23 -55 -9 -4
-16 -11 -29 -16 -29 -6 0 -8 9 -4 20 3 10 1 28 -4 39 -8 14 -6 31 6 65 25 68
36 58 37 -35 0 -11 7 -14 23 -11 13 2 23 8 23 13 0 5 -5 8 -11 7 -23 -6 -20
21 3 27 19 5 23 13 24 43 0 20 4 45 9 56 7 16 5 17 -16 12 -18 -5 -20 -5 -8 3
9 6 14 22 13 41 -2 33 -14 55 -14 27z m-33 -324 c-3 -10 -5 -4 -5 12 0 17 2
24 5 18 2 -7 2 -21 0 -30z m-47 -43 c0 -5 -5 -10 -11 -10 -5 0 -7 5 -4 10 3 6
8 10 11 10 2 0 4 -4 4 -10z"/>
<path d="M580 3173 c-49 -67 -122 -153 -131 -153 -12 0 -11 -37 1 -45 12 -7
40 18 40 35 0 7 8 9 19 5 14 -4 23 1 32 17 12 24 30 45 67 80 12 12 22 26 22
32 0 6 -14 -4 -30 -22 l-30 -32 0 35 c0 19 4 35 10 35 5 0 7 -7 4 -15 -4 -8
-1 -15 5 -15 6 0 11 9 11 19 0 11 5 21 12 23 7 3 8 10 2 20 -8 14 -13 11 -34
-19z m-36 -113 c-20 -41 -34 -52 -34 -25 0 8 5 15 11 15 5 0 7 5 4 10 -3 6 -2
10 4 10 6 0 7 7 4 17 -4 11 -3 14 5 9 7 -4 12 -2 12 5 0 7 3 9 7 6 3 -4 -2
-25 -13 -47z"/>
<path d="M7093 3194 c-17 -17 -16 -24 0 -24 50 0 117 -63 117 -109 0 -10 3
-21 7 -25 4 -4 8 -17 9 -30 1 -22 -4 -24 -85 -33 -47 -5 -120 -6 -161 -2 -41
4 -82 3 -90 -1 -19 -10 -70 -1 -70 12 0 29 68 107 115 132 44 23 70 45 62 53
-4 3 -24 -7 -45 -24 -20 -16 -52 -37 -69 -47 -18 -9 -33 -21 -33 -27 0 -6 -12
-25 -26 -42 -15 -18 -24 -38 -20 -49 3 -14 0 -18 -9 -14 -8 3 -25 -4 -38 -14
-22 -17 -36 -19 -108 -15 -77 5 -82 4 -65 -10 11 -8 32 -15 47 -15 61 0 117
-13 113 -25 -6 -14 30 -99 49 -120 6 -7 19 -10 29 -7 16 4 14 8 -12 39 -36 40
-44 112 -12 114 9 1 40 3 67 4 28 2 70 7 95 12 30 6 51 6 62 0 9 -6 23 -7 34
-2 26 11 134 14 134 4 0 -5 7 -6 15 -3 11 5 13 2 9 -10 -4 -10 -13 -15 -20
-12 -8 3 -14 1 -14 -4 0 -6 5 -10 11 -10 8 0 7 -5 -1 -15 -7 -9 -10 -19 -6
-23 12 -11 46 38 46 65 0 24 3 25 34 20 24 -4 39 -1 47 9 13 16 34 19 24 4 -3
-5 2 -10 12 -10 15 0 18 -8 18 -43 -1 -23 -8 -56 -17 -74 -11 -23 -13 -33 -4
-37 7 -3 7 -5 -1 -5 -7 -1 -13 -14 -13 -30 0 -17 -4 -32 -10 -36 -18 -11 1
-31 28 -29 15 1 29 3 32 4 10 4 25 7 46 8 12 1 24 8 27 15 4 11 -5 12 -45 6
-63 -10 -70 -6 -52 29 7 15 14 36 14 48 0 11 3 24 7 28 9 9 13 32 15 88 2 46
17 66 39 52 5 -3 9 0 9 6 0 6 4 9 9 5 5 -3 34 -7 63 -10 155 -14 188 -19 229
-30 15 -3 51 -8 80 -9 30 -2 100 -7 156 -11 l101 -8 -9 -24 c-13 -34 -12 -35
14 -31 12 2 23 10 23 18 1 8 2 23 3 33 1 16 9 18 70 14 76 -4 97 2 88 27 -5
13 -22 16 -82 16 -48 0 -75 4 -75 11 0 31 -37 82 -84 113 -44 31 -61 37 -116
39 -43 2 -64 7 -62 15 1 7 -2 12 -8 12 -5 0 -10 -13 -10 -29 0 -17 -5 -33 -10
-36 -6 -4 -7 -11 -4 -17 4 -6 0 -14 -7 -19 -10 -6 -11 -9 -1 -9 6 0 12 -5 12
-11 0 -6 -6 -9 -13 -6 -9 3 -13 -3 -13 -17 1 -20 -3 -21 -89 -18 -49 2 -124 7
-166 13 -42 5 -83 7 -92 3 -13 -5 -17 0 -19 17 0 13 -2 33 -3 44 -1 11 -3 34
-4 50 l-2 30 -14 -25 c-8 -14 -12 -32 -10 -40 13 -46 13 -70 0 -70 -7 0 -16 6
-18 13 -4 7 -8 3 -12 -10 -7 -22 -22 -27 -95 -35 -22 -3 -25 1 -32 49 -12 85
-35 126 -82 148 -23 11 -43 23 -46 26 -3 4 -11 1 -17 -7z m860 -98 c51 -9 110
-61 121 -110 l7 -29 -92 6 c-51 4 -112 7 -137 7 -34 0 -42 3 -35 13 6 6 16 34
22 62 14 56 25 67 61 60 14 -2 37 -7 53 -9z"/>
<path d="M10750 3200 c0 -9 -9 -22 -21 -30 -57 -40 -54 -37 -40 -54 12 -15 15
-15 25 -1 10 15 14 14 32 -2 12 -10 24 -28 28 -41 4 -12 16 -27 26 -32 11 -6
17 -17 14 -25 -4 -9 3 -16 20 -21 14 -3 26 -12 26 -20 0 -8 7 -14 15 -14 19 0
20 19 2 26 -24 9 -59 65 -93 148 -19 45 -34 74 -34 66z"/>
<path d="M11215 3199 c-11 -17 1 -21 15 -4 8 9 8 15 2 15 -6 0 -14 -5 -17 -11z"/>
<path d="M326 3185 c-9 -26 -7 -32 5 -12 6 10 9 21 6 23 -2 3 -7 -2 -11 -11z"/>
<path d="M650 3190 c0 -5 5 -10 10 -10 6 0 10 5 10 10 0 6 -4 10 -10 10 -5 0
-10 -4 -10 -10z"/>
<path d="M12180 3182 c0 -11 6 -23 13 -25 10 -4 10 -6 0 -6 -8 -1 -13 -14 -13
-33 0 -26 3 -30 11 -18 8 12 9 9 4 -10 -4 -14 -9 -41 -11 -60 -5 -34 -4 -34 9
-11 18 31 31 11 16 -23 -7 -14 -15 -24 -18 -22 -3 2 -7 -7 -7 -20 -2 -32 2
-30 26 9 24 39 27 132 6 192 -15 43 -36 59 -36 27z"/>
<path d="M7048 3173 c7 -3 16 -2 19 1 4 3 -2 6 -13 5 -11 0 -14 -3 -6 -6z"/>
<path d="M470 3149 c0 -5 5 -7 10 -4 6 3 10 8 10 11 0 2 -4 4 -10 4 -5 0 -10
-5 -10 -11z"/>
<path d="M3300 3129 c0 -6 7 -9 15 -5 8 3 15 1 15 -4 0 -5 11 -9 24 -8 15 1
22 7 19 15 -6 16 -73 17 -73 2z"/>
<path d="M11041 3124 c0 -11 3 -14 6 -6 3 7 2 16 -1 19 -3 4 -6 -2 -5 -13z"/>
<path d="M196 3064 c-8 -22 -4 -25 11 -9 7 8 9 16 4 19 -5 3 -12 -1 -15 -10z"/>
<path d="M395 3060 c3 -5 8 -10 11 -10 2 0 4 5 4 10 0 6 -5 10 -11 10 -5 0 -7
-4 -4 -10z"/>
<path d="M172 3025 c4 -4 3 -16 -3 -26 -5 -11 -6 -19 -1 -19 15 0 22 39 9 47
-7 3 -9 3 -5 -2z"/>
<path d="M5687 3010 c-3 -11 -1 -20 4 -20 5 0 9 9 9 20 0 11 -2 20 -4 20 -2 0
-6 -9 -9 -20z"/>
<path d="M9270 3026 c0 -2 8 -10 18 -17 15 -13 16 -12 3 4 -13 16 -21 21 -21
13z"/>
<path d="M9821 3014 c0 -11 3 -14 6 -6 3 7 2 16 -1 19 -3 4 -6 -2 -5 -13z"/>
<path d="M5777 3006 c-4 -10 -5 -21 -2 -24 9 -9 17 6 13 25 -3 17 -4 17 -11
-1z"/>
<path d="M9168 2992 c11 -7 10 -10 -3 -16 -23 -8 -27 -8 -20 4 3 5 0 7 -9 4
-8 -3 -13 -14 -11 -26 4 -20 -18 -52 -28 -42 -3 3 -8 1 -12 -5 -9 -15 102 -12
118 3 18 16 39 19 47 5 5 -7 37 -11 86 -11 112 1 114 1 114 13 0 6 -7 8 -16 5
-13 -5 -14 -4 -6 7 10 12 -9 14 -113 13 -77 -1 -125 3 -126 9 -1 6 -2 16 -3
24 0 8 -8 16 -16 18 -12 4 -12 3 -2 -5z m-8 -52 c0 -11 -2 -20 -5 -20 -2 0 -9
9 -15 20 -9 16 -8 20 5 20 8 0 15 -9 15 -20z"/>
<path d="M610 2979 c0 -5 5 -7 10 -4 6 3 10 8 10 11 0 2 -4 4 -10 4 -5 0 -10
-5 -10 -11z"/>
<path d="M5727 2963 c-4 -3 -7 -11 -7 -17 0 -6 5 -5 12 2 6 6 9 14 7 17 -3 3
-9 2 -12 -2z"/>
<path d="M450 2949 c0 -5 5 -7 10 -4 6 3 10 8 10 11 0 2 -4 4 -10 4 -5 0 -10
-5 -10 -11z"/>
<path d="M5850 2934 c0 -8 5 -12 10 -9 6 3 10 10 10 16 0 5 -4 9 -10 9 -5 0
-10 -7 -10 -16z"/>
<path d="M9480 2939 c0 -5 5 -7 10 -4 6 3 10 8 10 11 0 2 -4 4 -10 4 -5 0 -10
-5 -10 -11z"/>
<path d="M425 2930 c-3 -5 -1 -10 4 -10 6 0 11 5 11 10 0 6 -2 10 -4 10 -3 0
-8 -4 -11 -10z"/>
<path d="M5638 2929 c-19 -11 -24 -29 -8 -29 5 0 14 9 20 20 12 23 12 23 -12
9z"/>
<path d="M5547 2923 c-4 -3 -7 -13 -7 -21 0 -12 3 -12 15 -2 8 7 15 16 15 21
0 11 -14 12 -23 2z"/>
<path d="M5775 2920 c-3 -5 -2 -10 4 -10 5 0 13 5 16 10 3 6 2 10 -4 10 -5 0
-13 -4 -16 -10z"/>
<path d="M7787 2903 c-4 -7 -3 -157 2 -205 1 -21 34 -24 50 -5 6 8 13 29 16
48 l5 34 -12 -32 c-12 -36 -27 -44 -29 -15 -6 101 -8 126 -13 138 -3 8 -1 14
4 14 6 0 10 7 10 15 0 15 -25 21 -33 8z"/>
<path d="M11256 2901 c-4 -5 3 -7 14 -4 23 6 26 13 6 13 -8 0 -17 -4 -20 -9z"/>
<path d="M370 2889 c0 -5 5 -7 12 -3 8 5 9 2 4 -11 -5 -15 -4 -16 9 -5 13 11
13 15 3 21 -18 12 -28 11 -28 -2z"/>
<path d="M515 2879 c-4 -6 -5 -12 -2 -15 2 -3 7 2 10 11 7 17 1 20 -8 4z"/>
<path d="M5582 2878 c-14 -14 -16 -28 -3 -28 9 0 24 30 18 36 -2 2 -9 -2 -15
-8z"/>
<path d="M5678 2879 c-19 -11 -24 -29 -8 -29 5 0 14 9 20 20 12 23 12 23 -12
9z"/>
<path d="M5797 2872 c-19 -20 -22 -32 -9 -32 5 0 14 11 20 25 14 30 11 31 -11
7z"/>
<path d="M5886 2881 c-4 -7 -5 -15 -2 -18 9 -9 19 4 14 18 -4 11 -6 11 -12 0z"/>
<path d="M336 2871 c-3 -5 0 -14 7 -19 10 -8 13 -6 14 9 2 19 -11 26 -21 10z"/>
<path d="M479 2843 c-13 -16 -12 -17 4 -4 16 13 21 21 13 21 -2 0 -10 -8 -17
-17z"/>
<path d="M10951 2833 c-1 -16 5 -23 17 -23 10 0 13 3 6 8 -6 4 -14 14 -17 22
-4 10 -6 8 -6 -7z"/>
<path d="M5710 2824 c0 -8 5 -12 10 -9 6 3 10 10 10 16 0 5 -4 9 -10 9 -5 0
-10 -7 -10 -16z"/>
<path d="M7161 2827 c-1 -21 -30 -68 -48 -80 -7 -4 -13 -15 -13 -23 0 -11 6
-10 29 7 37 28 53 62 41 91 -7 18 -9 19 -9 5z"/>
<path d="M8050 2826 c0 -6 -10 -27 -22 -46 -12 -19 -22 -39 -23 -45 0 -5 -7
-10 -15 -11 -8 0 -28 -5 -43 -12 -16 -7 -43 -12 -60 -12 -24 0 -28 -3 -17 -10
21 -13 83 -13 97 1 6 6 22 17 35 23 12 6 29 24 36 39 7 15 17 27 22 27 5 0 7
7 4 15 -4 8 -1 15 5 15 6 0 11 6 11 13 0 8 -7 14 -15 14 -8 0 -15 -5 -15 -11z"/>
<path d="M108 2813 c-26 -30 -28 -41 -12 -47 9 -3 12 -2 9 5 -4 6 1 19 11 30
9 10 15 21 12 24 -3 3 -12 -3 -20 -12z"/>
<path d="M263 2788 c-18 -22 -30 -44 -27 -49 9 -14 24 0 17 16 -4 11 -1 13 13
8 12 -4 15 -3 10 5 -4 7 -4 12 1 12 4 0 13 11 20 25 16 36 3 30 -34 -17z"/>
<path d="M11020 2820 c0 -5 7 -7 15 -4 8 4 15 8 15 10 0 2 -7 4 -15 4 -8 0
-15 -4 -15 -10z"/>
<path d="M214 2786 c-16 -19 -36 -44 -44 -55 -11 -16 -19 -18 -30 -11 -13 9
-13 11 0 21 13 9 13 10 0 6 -20 -5 -26 -37 -7 -37 10 0 14 -13 13 -49 0 -27
-5 -47 -10 -44 -5 4 -6 1 -2 -6 13 -20 27 -1 25 33 -2 40 8 64 31 71 12 4 17
12 13 21 -3 9 0 14 8 12 8 -2 15 7 17 20 2 12 8 20 13 17 5 -4 9 3 9 14 0 28
-3 27 -36 -13z"/>
<path d="M440 2810 c-9 -6 -10 -10 -3 -10 6 0 15 5 18 10 8 12 4 12 -15 0z"/>
<path d="M5923 2805 c-9 -25 4 -29 17 -6 7 15 7 21 0 21 -6 0 -13 -7 -17 -15z"/>
<path d="M11320 2785 c-13 -14 -31 -25 -39 -26 -9 0 17 -11 58 -24 140 -45
142 -44 84 29 -43 53 -68 58 -103 21z m7 -31 c-3 -3 -12 -4 -19 -1 -8 3 -5 6
6 6 11 1 17 -2 13 -5z"/>
<path d="M5507 2793 c-4 -3 -7 -11 -7 -17 0 -6 5 -5 12 2 6 6 9 14 7 17 -3 3
-9 2 -12 -2z"/>
<path d="M5851 2782 c-14 -26 -7 -42 10 -25 6 6 9 19 7 29 -3 17 -5 17 -17 -4z"/>
<path d="M142 2774 c-7 -8 -8 -14 -3 -14 10 0 25 19 20 25 -2 1 -10 -3 -17
-11z"/>
<path d="M5571 2766 c-14 -15 -18 -26 -12 -30 10 -7 48 41 39 49 -2 3 -15 -6
-27 -19z"/>
<path d="M5654 2775 c-17 -13 -17 -14 -2 -15 9 0 20 5 23 11 11 17 0 20 -21 4z"/>
<path d="M5778 2784 c-5 -4 -8 -16 -8 -28 0 -14 3 -17 11 -9 6 6 9 19 7 28 -1
9 -6 13 -10 9z"/>
<path d="M8962 2751 c2 -17 -2 -26 -12 -26 -9 0 -14 -8 -12 -19 2 -10 -5 -27
-15 -38 -18 -20 -17 -21 6 -13 22 7 23 5 17 -27 -4 -25 -4 -28 3 -13 9 19 10
19 10 -2 1 -25 12 -28 40 -14 14 8 17 5 15 -19 -2 -26 0 -28 33 -25 21 1 39 9
45 18 5 10 18 17 29 17 11 0 17 -5 14 -10 -4 -6 -11 -8 -16 -5 -5 4 -9 1 -9
-4 0 -7 27 -11 65 -12 87 -2 101 -2 128 1 21 1 21 2 2 10 -18 7 -18 9 -3 15
10 4 14 13 11 22 -4 10 -2 14 3 10 6 -3 16 3 24 13 8 10 17 17 21 14 5 -2 6 9
4 26 -2 21 1 30 11 30 8 0 25 12 38 27 23 27 24 27 51 9 35 -23 39 -18 11 15
-20 23 -30 26 -100 28 -65 2 -81 -1 -93 -16 -13 -16 -14 -16 -9 -1 4 15 -9 17
-155 16 l-159 -1 2 -26z m428 9 c0 -5 -5 -10 -11 -10 -5 0 -7 5 -4 10 3 6 8
10 11 10 2 0 4 -4 4 -10z m-166 -65 c3 -8 1 -15 -4 -15 -6 0 -10 7 -10 15 0 8
2 15 4 15 2 0 6 -7 10 -15z m105 -18 c0 -21 -1 -21 -9 -2 -12 28 -12 37 0 30
6 -3 10 -16 9 -28z m-343 -74 c-11 -11 -19 6 -11 24 8 17 8 17 12 0 3 -10 2
-21 -1 -24z m304 5 c0 -23 -16 -39 -33 -32 -9 3 -17 14 -16 23 0 10 2 11 6 4
2 -7 9 -13 15 -13 6 0 8 7 4 15 -3 9 0 15 9 15 8 0 15 -6 15 -12z m-74 -27
c-18 -7 -66 -3 -66 5 0 2 19 4 43 3 30 0 36 -3 23 -8z"/>
<path d="M6854 2744 c3 -9 6 -20 6 -25 0 -6 4 -8 9 -5 5 3 12 -2 15 -11 6 -15
8 -15 17 -3 7 13 10 13 18 1 6 -10 13 -11 27 -3 16 9 13 11 -19 17 -21 4 -44
16 -50 26 -14 23 -32 25 -23 3z"/>
<path d="M3520 2720 c-19 -10 -52 -22 -72 -25 -39 -7 -61 -26 -40 -33 37 -12
42 -32 42 -156 0 -110 -2 -125 -20 -141 -11 -10 -20 -22 -20 -27 0 -4 54 -8
120 -8 122 0 151 10 90 32 -17 5 -35 18 -40 28 -6 10 -10 68 -10 129 l0 110
31 16 c36 19 79 13 104 -15 21 -23 38 -147 29 -213 -4 -32 -12 -51 -25 -58
-41 -21 -16 -29 96 -29 96 0 115 3 115 15 0 8 -9 15 -19 15 -38 0 -51 37 -51
145 0 111 -14 153 -62 188 -54 40 -157 31 -197 -17 -21 -25 -30 -19 -33 23
l-3 39 -35 -18z"/>
<path d="M5880 2730 c0 -5 4 -10 9 -10 6 0 13 5 16 10 3 6 -1 10 -9 10 -9 0
-16 -4 -16 -10z"/>
<path d="M9436 2694 c6 -59 10 -65 16 -20 2 19 -2 42 -8 51 -10 13 -11 7 -8
-31z"/>
<path d="M234 2718 c12 -7 21 -7 28 0 6 6 0 10 -18 10 -23 0 -24 -2 -10 -10z"/>
<path d="M3078 2715 c-52 -17 -78 -46 -78 -87 0 -23 4 -28 24 -28 46 0 76 18
76 44 0 25 23 56 41 56 6 0 24 -13 40 -29 22 -22 29 -39 29 -68 l0 -38 -90
-28 c-105 -34 -130 -57 -130 -122 0 -36 5 -48 31 -69 18 -15 43 -26 60 -26 30
0 115 35 125 51 3 5 20 -2 37 -17 25 -21 38 -25 69 -21 41 5 88 31 88 47 0 6
-14 10 -30 10 -17 0 -33 6 -36 13 -2 7 -5 62 -7 123 -2 118 -12 147 -62 180
-34 22 -130 27 -187 9z m132 -248 c0 -71 -10 -87 -55 -87 -40 0 -55 16 -55 58
0 42 46 92 84 92 25 0 26 -2 26 -63z"/>
<path d="M7510 2724 c38 -8 90 -9 90 -2 0 4 -24 7 -52 7 -29 -1 -46 -3 -38 -5z"/>
<path d="M7628 2723 c7 -3 16 -2 19 1 4 3 -2 6 -13 5 -11 0 -14 -3 -6 -6z"/>
<path d="M5506 2711 c-4 -7 -5 -15 -2 -18 9 -9 19 4 14 18 -4 11 -6 11 -12 0z"/>
<path d="M5680 2705 c-10 -12 -10 -15 4 -15 9 0 16 7 16 15 0 8 -2 15 -4 15
-2 0 -9 -7 -16 -15z"/>
<path d="M7060 2710 c-8 -5 -11 -12 -7 -16 4 -4 13 -2 19 4 15 15 7 24 -12 12z"/>
<path d="M3830 2701 c0 -5 11 -16 24 -24 28 -19 206 -312 206 -340 0 -21 -33
-71 -83 -124 -17 -18 -29 -34 -26 -36 10 -10 55 -16 65 -9 6 4 65 118 132 253
66 136 125 250 131 253 6 4 11 14 11 22 0 11 -16 14 -75 14 -78 0 -95 -11 -50
-32 40 -18 41 -49 4 -128 -17 -38 -35 -70 -39 -70 -8 0 -68 89 -94 138 -18 35
-9 62 20 62 8 0 14 7 14 15 0 13 -20 15 -120 15 -66 0 -120 -4 -120 -9z"/>
<path d="M6970 2700 c0 -6 7 -10 15 -10 8 0 15 2 15 4 0 2 -7 6 -15 10 -8 3
-15 1 -15 -4z"/>
<path d="M5801 2691 c-8 -6 -9 -11 -3 -15 6 -3 14 -1 17 5 9 14 2 20 -14 10z"/>
<path d="M5583 2678 c-21 -28 -24 -38 -10 -38 8 0 17 11 19 25 6 28 4 30 -9
13z"/>
<path d="M5900 2680 c-8 -5 -11 -12 -7 -16 4 -4 13 -2 19 4 15 15 7 24 -12 12z"/>
<path d="M250 2659 c0 -5 5 -7 10 -4 6 3 10 8 10 11 0 2 -4 4 -10 4 -5 0 -10
-5 -10 -11z"/>
<path d="M5711 2656 c-8 -9 -11 -19 -7 -23 9 -9 29 13 24 27 -2 8 -8 7 -17 -4z"/>
<path d="M5841 2637 c-6 -8 -8 -17 -4 -20 7 -8 33 11 33 24 0 13 -16 11 -29
-4z"/>
<path d="M5770 2629 c0 -5 5 -7 10 -4 6 3 10 8 10 11 0 2 -4 4 -10 4 -5 0 -10
-5 -10 -11z"/>
<path d="M5627 2616 c-13 -10 -15 -16 -6 -21 10 -7 28 10 29 28 0 9 -2 9 -23
-7z"/>
<path d="M10851 2616 c-1 -25 124 -263 156 -298 26 -27 24 -48 -4 -48 -20 0
-11 -11 11 -14 8 -1 25 -11 36 -21 29 -26 104 -44 145 -35 18 4 39 4 47 -1 11
-6 17 2 26 36 14 54 59 90 102 81 46 -9 56 21 22 62 -34 40 -51 40 -77 2 -25
-38 -32 -38 -40 3 -17 91 -39 157 -52 157 -14 0 -24 -19 -45 -90 -7 -25 -17
-44 -22 -43 -5 1 -19 25 -31 54 -13 30 -25 46 -28 38 -2 -8 -5 0 -4 16 0 41
-20 78 -40 71 -8 -3 -25 -6 -38 -6 -13 0 -30 -7 -39 -15 -8 -8 -19 -15 -25
-15 -6 0 -11 -4 -11 -10 0 -5 -5 -10 -11 -10 -6 0 -8 9 -4 21 6 18 4 20 -15
14 -15 -5 -20 -3 -16 3 3 6 1 14 -5 18 -8 4 -7 9 2 15 10 6 8 9 -8 9 -12 0
-24 6 -26 13 -3 6 -6 3 -6 -7z m172 -116 c-3 -12 -8 -19 -11 -16 -5 6 5 36 12
36 2 0 2 -9 -1 -20z m-33 6 c0 -3 -4 -8 -10 -11 -5 -3 -10 -1 -10 4 0 6 5 11
10 11 6 0 10 -2 10 -4z m60 -10 c0 -3 -4 -8 -10 -11 -5 -3 -10 -1 -10 4 0 6 5
11 10 11 6 0 10 -2 10 -4z m16 -24 c-18 -16 -18 -16 -6 6 6 13 14 21 18 18 3
-4 -2 -14 -12 -24z"/>
<path d="M4271 2589 c-15 -43 -13 -107 4 -144 12 -28 13 -23 14 73 1 56 -1
102 -3 102 -2 0 -9 -14 -15 -31z"/>
<path d="M5910 2605 c-8 -9 -8 -15 -2 -15 12 0 26 19 19 26 -2 2 -10 -2 -17
-11z"/>
<path d="M9452 2600 c0 -14 2 -19 5 -12 2 6 2 18 0 25 -3 6 -5 1 -5 -13z"/>
<path d="M80 2580 c-8 -5 -11 -12 -7 -17 5 -4 13 -1 18 7 8 11 9 9 4 -10 -5
-19 -4 -22 4 -10 22 31 11 49 -19 30z"/>
<path d="M5701 2576 c-8 -10 -9 -16 -1 -21 5 -3 13 1 16 10 9 22 -1 29 -15 11z"/>
<path d="M21 2572 c-1 -7 -5 -10 -11 -7 -12 8 -13 -5 0 -25 8 -12 10 -12 15 2
4 10 5 23 2 30 -4 10 -6 10 -6 0z"/>
<path d="M5745 2560 c-15 -17 -16 -20 -3 -20 9 0 19 7 22 16 10 25 1 27 -19 4z"/>
<path d="M5816 2555 c-11 -8 -17 -17 -14 -21 8 -8 48 14 48 26 0 14 -12 12
-34 -5z"/>
<path d="M130 2545 c0 -8 2 -15 4 -15 2 0 6 7 10 15 3 8 1 15 -4 15 -6 0 -10
-7 -10 -15z"/>
<path d="M4559 2537 c-28 -38 -31 -62 -9 -82 20 -18 29 -8 9 12 -8 8 -6 20 6
43 20 38 16 56 -6 27z"/>
<path d="M55 2530 c-3 -11 -3 -25 0 -30 4 -7 -2 -9 -18 -5 -15 4 -28 2 -33 -6
-5 -9 -2 -10 10 -6 9 4 14 3 11 -2 -3 -5 -1 -12 5 -16 5 -3 10 -1 10 4 0 6 5
11 11 11 5 0 7 -4 4 -10 -3 -5 -1 -10 5 -10 7 0 10 6 7 14 -4 9 1 17 11 19 16
4 15 5 0 6 -21 1 -24 21 -6 39 9 9 9 12 1 12 -7 0 -14 -9 -18 -20z"/>
<path d="M6740 2519 c7 -12 9 -32 4 -47 -4 -15 -9 -35 -11 -45 -3 -17 -2 -17
13 -3 18 19 36 20 52 4 20 -20 23 -3 3 19 -12 13 -18 29 -14 42 7 26 -13 51
-39 51 -16 0 -17 -3 -8 -21z"/>
<path d="M2461 2511 c-16 -16 -21 -31 -18 -47 2 -14 -4 -41 -14 -62 -23 -44
-24 -56 -3 -73 12 -10 22 -10 43 -2 19 7 34 7 45 1 23 -13 32 -3 17 16 -7 8
-10 20 -6 26 13 21 13 47 -1 47 -8 0 -14 -5 -14 -11 0 -6 -4 -6 -11 1 -9 9 -6
19 10 39 25 32 27 57 4 75 -11 10 -14 10 -9 2 4 -7 3 -13 -3 -13 -5 0 -11 5
-13 12 -3 7 -13 3 -27 -11z m42 -26 c7 -16 -8 -29 -23 -20 -10 6 -2 35 10 35
4 0 10 -7 13 -15z m-29 -101 c10 -26 7 -34 -13 -34 -23 0 -32 20 -17 37 15 17
23 16 30 -3z"/>
<path d="M124 2502 c0 -14 6 -19 18 -17 10 2 26 -7 38 -22 24 -30 27 -18 4 15
-9 13 -21 21 -27 19 -7 -2 -17 3 -22 10 -9 12 -11 11 -11 -5z"/>
<path d="M1609 2463 c-6 -32 -12 -71 -13 -88 0 -16 -5 -33 -11 -37 -6 -5 -3
-8 7 -8 16 0 35 36 24 47 -3 3 -1 14 5 25 10 18 11 19 23 2 7 -9 18 -14 23
-11 6 4 13 -6 15 -23 3 -16 0 -32 -6 -34 -6 -2 -1 -5 12 -5 12 -1 21 2 20 7
-1 4 2 36 7 72 4 36 9 75 11 88 1 13 -3 22 -11 22 -8 0 -21 -10 -30 -22 l-15
-23 -6 23 c-4 12 -14 22 -24 22 -14 0 -21 -13 -31 -57z"/>
<path d="M1776 2505 c-11 -8 -16 -15 -11 -15 5 0 1 -6 -9 -13 -11 -8 -20 -31
-23 -61 -5 -39 -2 -51 16 -70 32 -34 65 -24 91 28 46 97 4 183 -64 131z m48
-69 c0 -30 -6 -53 -18 -64 -16 -16 -18 -16 -32 2 -20 28 -17 73 7 97 30 30 44
19 43 -35z"/>
<path d="M1886 2498 c-31 -170 -31 -171 -14 -166 7 3 18 24 24 49 l11 44 13
-47 c20 -77 62 -60 56 21 -1 16 1 28 5 26 7 -5 22 86 14 93 -2 2 -11 2 -20 -1
-10 -4 -15 -20 -15 -46 0 -22 -4 -42 -9 -46 -10 -5 -15 6 -26 63 -8 37 -33 43
-39 10z"/>
<path d="M2020 2503 c0 -7 7 -13 16 -13 13 0 15 -7 10 -32 -16 -92 -18 -138
-7 -138 14 0 17 8 31 98 10 60 15 72 31 72 10 0 19 7 19 15 0 13 -11 16 -50
14 -34 -2 -50 -7 -50 -16z"/>
<path d="M2132 2443 c-7 -43 -15 -88 -18 -100 -5 -17 -2 -23 10 -23 11 0 18
13 22 41 7 41 22 56 48 46 11 -4 12 -14 6 -41 -7 -32 2 -57 15 -44 6 6 35 158
35 182 0 29 -26 2 -34 -35 -5 -25 -10 -30 -28 -27 -20 3 -23 8 -20 41 3 27 0
37 -11 37 -9 0 -17 -23 -25 -77z"/>
<path d="M2287 2502 c-10 -10 -17 -28 -17 -40 0 -20 24 -52 40 -52 4 0 11 -8
14 -17 8 -21 -18 -43 -50 -43 -24 0 -41 -16 -29 -28 3 -3 10 0 15 8 7 10 10
11 10 3 0 -7 7 -13 15 -13 23 0 65 22 59 31 -3 5 0 9 5 9 21 0 10 37 -19 65
-16 16 -30 35 -30 42 0 14 39 34 51 27 4 -2 9 3 13 11 8 23 -57 20 -77 -3z"/>
<path d="M7548 2513 c7 -3 16 -2 19 1 4 3 -2 6 -13 5 -11 0 -14 -3 -6 -6z"/>
<path d="M8632 2500 c0 -14 2 -19 5 -12 2 6 2 18 0 25 -3 6 -5 1 -5 -13z"/>
<path d="M11479 2494 c-19 -14 -49 -32 -66 -39 -18 -8 -33 -17 -33 -20 0 -16
36 -72 64 -101 41 -43 45 -69 7 -50 -14 8 -48 13 -76 11 -67 -3 -65 -3 -65
-21 0 -8 -7 -22 -16 -31 -23 -23 -14 -66 16 -74 23 -6 23 -7 3 -8 -32 -1 -37
-18 -11 -33 13 -7 26 -12 29 -13 4 0 16 -11 27 -25 l21 -25 24 29 c20 24 24
26 35 13 9 -11 10 -17 2 -22 -6 -4 -14 -5 -16 -2 -7 7 -44 -30 -44 -43 0 -17
-14 -11 -45 18 -20 19 -37 27 -52 24 -13 -2 -23 1 -23 7 0 6 4 11 9 11 5 0 -2
21 -17 47 -14 26 -28 41 -30 35 -2 -7 -13 -10 -28 -6 -34 9 -53 -11 -52 -56 0
-21 -3 -43 -6 -49 -4 -7 1 -11 14 -11 12 0 25 -10 32 -25 6 -13 15 -22 19 -19
5 3 9 0 9 -5 0 -16 -9 -14 -37 9 -38 30 -53 26 -53 -16 0 -38 38 -114 57 -114
6 0 14 -6 16 -12 3 -7 8 2 12 20 7 31 9 32 26 16 10 -9 22 -13 28 -10 6 4 24
0 40 -8 26 -14 30 -14 41 -1 11 13 10 14 -6 8 -17 -6 -17 -5 -5 10 16 20 43
23 40 5 -5 -44 0 -51 36 -45 33 5 47 -4 26 -18 -11 -6 -42 -65 -35 -65 3 0 14
5 24 10 15 8 22 6 33 -10 l14 -20 18 20 c11 12 25 18 36 15 11 -4 27 2 41 14
27 26 38 26 38 2 0 -42 73 -31 90 14 5 14 14 25 19 25 21 0 20 45 -3 70 -13
14 -26 33 -29 42 -4 12 -12 15 -23 11 -11 -4 -15 -3 -10 5 3 6 2 13 -3 17 -6
3 -8 12 -4 21 7 19 48 14 49 -6 1 -8 2 -25 2 -38 3 -38 42 -24 69 23 23 39 27
85 8 75 -5 -3 -12 8 -15 25 -3 16 -12 31 -20 32 -20 4 -89 -57 -72 -64 23 -9
12 -20 -18 -15 -34 5 -50 -18 -30 -43 20 -25 0 -39 -24 -16 -11 11 -31 23 -43
28 -20 7 -21 11 -10 32 13 27 44 44 35 19 -4 -10 2 -14 20 -13 19 0 28 6 32
23 3 13 9 23 14 22 8 -1 21 17 42 58 3 6 3 27 0 46 -7 38 -43 60 -131 82 -49
12 -49 12 -13 13 20 1 49 -4 64 -9 15 -6 28 -9 31 -7 6 7 -98 227 -107 227 -4
0 -22 -12 -41 -26z m-60 -303 c21 -13 5 -46 -24 -47 -27 -2 -35 22 -13 44 14
14 19 15 37 3z m141 -1 c12 -7 17 -16 13 -27 -5 -12 -3 -14 8 -9 8 4 4 -1 -8
-12 -14 -12 -31 -18 -43 -15 -11 3 -20 6 -20 8 0 9 23 65 27 65 2 0 13 -5 23
-10z m-232 -185 c11 -10 -13 -25 -30 -19 -15 4 -19 3 -14 -7 4 -8 1 -5 -8 5
-20 25 -10 39 23 31 14 -4 28 -8 29 -10z m82 -25 c0 -5 -4 -10 -10 -10 -5 0
-10 5 -10 10 0 6 5 10 10 10 6 0 10 -4 10 -10z m77 -16 c9 -25 -13 -40 -31
-21 -9 9 -16 20 -16 26 0 17 40 13 47 -5z m136 -96 c-10 -3 -21 -7 -25 -7 -12
-1 -9 24 4 37 10 10 15 9 26 -5 11 -15 10 -19 -5 -25z"/>
<path d="M4730 2506 c0 -2 7 -7 16 -10 8 -3 12 -2 9 4 -6 10 -25 14 -25 6z"/>
<path d="M6990 2462 c0 -27 3 -52 7 -56 10 -10 11 -50 1 -57 -10 -6 -17 -103
-10 -131 2 -10 10 -15 20 -12 12 4 11 2 -2 -7 -16 -10 -21 -9 -31 5 -12 15
-13 15 -19 0 -11 -29 -7 -36 20 -30 21 6 25 4 21 -8 -3 -8 -1 -17 6 -20 7 -3
3 -4 -8 -3 -15 1 -19 -3 -17 -18 2 -11 5 -43 7 -70 5 -67 19 -101 43 -107 20
-6 20 -5 3 26 -17 29 -17 32 -1 48 18 19 22 48 7 48 -5 0 -6 18 -2 41 6 34 5
40 -6 33 -12 -6 -12 -5 0 9 9 11 10 17 2 17 -7 0 -9 9 -5 25 5 19 2 25 -9 25
-24 0 -31 19 -13 39 18 20 21 36 6 26 -5 -3 -10 -1 -10 4 0 6 5 11 11 11 8 0
7 6 -2 17 -12 14 -12 16 0 8 11 -6 13 -4 8 8 -3 10 -3 17 1 17 15 0 11 49 -5
58 -12 7 -15 20 -11 56 3 25 2 46 -3 46 -5 0 -9 -22 -9 -48z"/>
<path d="M7167 2488 c-6 -22 12 -36 23 -18 5 7 8 2 8 -14 0 -30 -13 -34 -22
-9 -6 15 -8 15 -16 3 -7 -10 -10 -11 -10 -2 0 6 -3 12 -7 12 -5 0 -9 -48 -11
-108 -4 -190 -8 -230 -22 -246 -11 -14 -10 -19 5 -30 16 -12 16 -13 1 -19 -25
-10 -19 -30 17 -55 l32 -22 3 27 c2 16 9 34 15 42 7 8 7 12 2 9 -16 -10 -43
10 -28 20 7 5 11 28 9 63 -3 54 -2 57 21 57 33 0 42 11 20 26 -9 7 -17 21 -17
31 0 14 3 14 18 -6 15 -17 21 -19 27 -9 5 8 4 11 -3 6 -18 -11 -44 50 -37 88
4 21 2 36 -5 41 -8 5 -7 11 4 23 8 10 16 30 18 47 3 29 4 30 58 28 30 0 60 3
67 9 7 6 14 5 18 -2 3 -6 12 -7 18 -3 7 4 23 6 36 4 15 -2 21 1 16 9 -4 6 -13
9 -20 6 -7 -2 -16 -2 -19 2 -10 9 -96 10 -102 1 -3 -5 -10 -7 -15 -4 -5 4 -29
7 -53 9 -36 2 -46 -1 -49 -16z m23 -72 c0 -3 -4 -8 -10 -11 -5 -3 -10 -1 -10
4 0 6 5 11 10 11 6 0 10 -2 10 -4z"/>
<path d="M5110 2473 c0 -18 2 -33 4 -33 9 0 13 39 5 51 -6 10 -9 4 -9 -18z"/>
<path d="M5159 2468 c3 -20 6 -26 9 -15 5 24 20 21 25 -5 3 -17 5 -14 6 9 1
25 -2 31 -14 27 -8 -4 -15 -1 -15 5 0 6 -4 11 -8 11 -5 0 -6 -15 -3 -32z"/>
<path d="M7445 2490 c3 -5 11 -10 16 -10 6 0 7 5 4 10 -3 6 -11 10 -16 10 -6
0 -7 -4 -4 -10z"/>
<path d="M4710 2479 c0 -24 26 -31 42 -11 12 15 11 16 -4 4 -14 -11 -18 -10
-27 5 -9 16 -10 16 -11 2z"/>
<path d="M4794 2475 c1 -8 6 -18 11 -22 4 -5 5 -2 0 6 -6 11 -4 13 10 7 15 -5
16 -4 5 9 -16 19 -29 19 -26 0z"/>
<path d="M4912 2470 c0 -14 2 -19 5 -12 2 6 2 18 0 25 -3 6 -5 1 -5 -13z"/>
<path d="M5280 2470 c0 -11 4 -20 9 -20 5 0 7 9 4 20 -3 11 -7 20 -9 20 -2 0
-4 -9 -4 -20z"/>
<path d="M4611 2464 c0 -11 3 -14 6 -6 3 7 2 16 -1 19 -3 4 -6 -2 -5 -13z"/>
<path d="M5446 2454 c-4 -14 -5 -29 -2 -31 3 -3 8 7 12 21 3 15 4 29 1 32 -2
3 -8 -7 -11 -22z"/>
<path d="M7833 2460 c3 -11 1 -53 -5 -92 -5 -40 -11 -89 -13 -108 -20 -197
-19 -191 -38 -202 -9 -5 -17 -8 -18 -6 0 2 -2 10 -4 18 -9 42 -26 71 -37 64
-10 -6 -10 -4 0 8 11 14 10 18 -5 27 -10 6 -13 11 -6 11 7 0 10 7 6 16 -4 11
-8 12 -13 4 -4 -7 -13 -9 -19 -6 -17 11 -13 -5 7 -27 9 -11 11 -17 5 -13 -23
13 -14 -22 9 -38 12 -9 18 -16 13 -16 -6 -1 1 -7 15 -15 l25 -14 -25 -1 -25 0
24 -19 c13 -10 21 -23 18 -28 -4 -6 0 -16 7 -22 11 -10 16 -8 24 5 8 15 11 14
27 -7 18 -25 18 -21 3 31 -3 8 -3 12 -1 8 12 -22 24 -3 23 35 -1 23 -1 44 0
47 8 25 8 55 0 70 -8 16 -7 18 4 14 8 -3 14 0 13 8 -2 49 4 118 11 118 8 0 83
-191 102 -263 7 -26 21 -52 31 -58 11 -5 19 -6 19 -2 0 4 5 1 11 -7 9 -13 10
-12 5 2 -5 17 18 73 35 83 5 3 7 22 4 41 -2 18 0 34 5 34 5 0 9 8 9 18 1 62
21 111 52 128 16 8 37 27 46 42 10 15 27 35 38 44 11 10 18 18 15 18 -41 9
-62 7 -67 -6 -3 -8 -12 -13 -19 -10 -8 3 -13 2 -13 -2 4 -22 -2 -42 -11 -37
-5 3 -10 -1 -10 -9 0 -8 -8 -21 -18 -28 -29 -21 -61 -97 -68 -163 -11 -99 -38
-126 -43 -44 -1 24 -13 63 -26 88 -44 85 -86 192 -92 237 -4 29 -11 44 -21 44
-9 0 -13 -7 -9 -20z"/>
<path d="M4857 2459 c7 -7 15 -10 18 -7 3 3 -2 9 -12 12 -14 6 -15 5 -6 -5z"/>
<path d="M5316 2455 c4 -8 8 -15 10 -15 2 0 4 7 4 15 0 8 -4 15 -10 15 -5 0
-7 -7 -4 -15z"/>
<path d="M5420 2460 c0 -5 5 -10 11 -10 5 0 7 5 4 10 -3 6 -8 10 -11 10 -2 0
-4 -4 -4 -10z"/>
<path d="M5477 2450 c-3 -11 -1 -20 4 -20 5 0 9 5 9 11 0 5 6 7 13 3 8 -5 8
-2 -2 9 -17 21 -18 21 -24 -3z"/>
<path d="M8169 2452 c-29 -34 -31 -47 -3 -20 15 15 26 30 23 32 -3 3 -12 -3
-20 -12z"/>
<path d="M9796 2425 c5 -53 20 -90 37 -93 21 -4 23 44 5 94 -15 43 -46 43 -42
-1z"/>
<path d="M10 2440 c0 -5 5 -10 10 -10 6 0 10 5 10 10 0 6 -4 10 -10 10 -5 0
-10 -4 -10 -10z"/>
<path d="M7629 2438 c0 -2 -1 -17 -2 -34 -2 -26 0 -29 14 -21 16 10 15 42 -2
53 -5 3 -9 4 -10 2z"/>
<path d="M9120 2432 c0 -4 18 -6 40 -4 22 2 40 6 40 8 0 2 -18 4 -40 4 -22 0
-40 -3 -40 -8z"/>
<path d="M40 2415 c0 -8 -4 -15 -10 -15 -5 0 -10 5 -10 12 0 28 -15 -7 -16
-38 -1 -34 7 -40 40 -28 11 4 14 13 10 30 -4 17 -1 26 11 30 13 5 14 9 3 15
-19 13 -28 11 -28 -6z"/>
<path d="M6745 2400 c-14 -15 -15 -23 -6 -33 6 -8 8 -17 4 -20 -9 -9 -10 -57
-2 -57 4 0 9 -9 12 -20 6 -22 -8 -28 -16 -7 -3 6 -6 -5 -6 -25 -1 -43 13 -57
29 -28 8 15 8 20 -2 20 -9 0 -10 2 -2 8 9 5 12 87 4 87 -2 0 -4 10 -5 23 -2
18 0 20 11 11 17 -14 18 -5 4 22 -7 13 -7 19 0 19 5 0 10 5 10 10 0 16 -15 12
-35 -10z"/>
<path d="M6827 2405 c-6 -15 10 -32 20 -21 4 3 1 6 -5 6 -6 0 -9 7 -6 15 4 8
4 15 1 15 -3 0 -7 -7 -10 -15z"/>
<path d="M8506 2388 c4 -33 13 -51 15 -27 0 8 2 24 3 37 2 12 -3 22 -9 22 -8
0 -11 -12 -9 -32z"/>
<path d="M10710 2382 c0 -11 10 -27 21 -38 16 -14 21 -15 17 -4 -3 8 6 25 19
38 l24 22 -40 0 c-33 0 -41 -4 -41 -18z"/>
<path d="M6871 2351 c-1 -24 2 -32 9 -25 7 7 7 19 1 35 -9 23 -10 22 -10 -10z"/>
<path d="M7639 2363 c-13 -15 -12 -15 9 -4 23 12 28 21 13 21 -5 0 -15 -7 -22
-17z"/>
<path d="M10640 2365 c0 -4 7 -20 16 -36 13 -26 18 -28 31 -18 13 11 15 10 13
-6 -4 -38 1 -44 93 -113 94 -71 168 -141 151 -143 -5 -1 -19 0 -30 0 -15 2
-23 -5 -27 -21 -4 -12 -4 -24 -2 -27 3 -2 5 1 5 7 0 7 4 12 9 12 6 0 9 -8 9
-17 0 -10 3 -27 7 -38 l8 -20 -16 20 c-16 20 -16 19 -17 -8 0 -29 25 -97 36
-97 3 0 4 6 2 13 -3 6 3 20 13 30 17 18 17 18 24 -2 3 -12 11 -21 16 -21 6 0
8 4 5 8 -3 5 5 8 17 7 12 -1 25 3 29 9 4 6 12 12 18 12 5 1 14 2 18 3 5 0 9 8
9 15 0 12 -6 11 -28 -4 l-27 -20 -5 28 c-3 15 -1 28 3 30 5 2 4 12 -2 22 -15
23 -4 37 15 21 8 -6 12 -22 10 -35 -3 -13 0 -26 5 -30 14 -8 34 56 25 80 -6
16 -4 17 9 6 18 -15 25 0 37 89 l7 55 -33 -1 c-18 -1 -33 2 -33 7 0 5 -3 7 -8
4 -4 -2 -16 2 -27 10 -17 13 -18 16 -5 25 11 8 9 9 -9 4 -17 -5 -21 -4 -16 5
5 8 3 11 -6 8 -16 -5 -61 31 -53 43 3 5 -2 6 -10 3 -9 -3 -25 7 -42 25 -26 30
-48 34 -38 7 3 -8 1 -17 -4 -20 -9 -5 -9 19 -1 53 2 8 -5 17 -16 19 -16 4 -17
2 -7 -11 11 -13 6 -17 -30 -32 -49 -18 -80 -12 -112 24 -18 20 -36 28 -36 16z
m130 -125 c0 -5 -4 -10 -10 -10 -5 0 -10 5 -10 10 0 6 5 10 10 10 6 0 10 -4
10 -10z m160 -20 c0 -5 -7 -10 -15 -10 -8 0 -15 -4 -15 -10 0 -5 -3 -9 -7 -8
-5 1 -18 -3 -31 -10 -12 -7 -27 -10 -33 -6 -13 8 9 23 44 30 12 2 23 8 25 14
5 13 32 13 32 0z m115 -170 c7 -12 -2 -12 -30 0 -19 8 -19 9 2 9 12 1 25 -3
28 -9z m19 -36 c9 -24 2 -26 -12 -4 -7 11 -8 20 -3 20 5 0 12 -7 15 -16z m-66
-16 c16 -16 15 -28 -2 -28 -7 0 -16 9 -19 20 -6 23 3 26 21 8z m-58 -72 c0 -7
-7 -19 -15 -26 -16 -13 -20 -3 -9 24 8 20 24 21 24 2z m66 -13 c-10 -10 -19 5
-10 18 6 11 8 11 12 0 2 -7 1 -15 -2 -18z"/>
<path d="M10862 2358 c5 -15 98 -71 98 -60 0 11 -56 52 -70 52 -5 0 -10 5 -10
10 0 6 -5 10 -11 10 -6 0 -9 -6 -7 -12z"/>
<path d="M4750 2325 c0 -19 4 -35 8 -35 4 0 6 16 4 35 -2 19 -6 35 -8 35 -2 0
-4 -16 -4 -35z"/>
<path d="M9481 2344 c0 -11 3 -14 6 -6 3 7 2 16 -1 19 -3 4 -6 -2 -5 -13z"/>
<path d="M4699 2341 c13 -8 13 -12 1 -28 -13 -17 -13 -17 4 -1 19 16 15 38 -7
38 -8 0 -7 -4 2 -9z"/>
<path d="M0 2320 c0 -6 7 -10 15 -10 8 0 15 2 15 4 0 2 -7 6 -15 10 -8 3 -15
1 -15 -4z"/>
<path d="M5427 2323 c-4 -3 -7 -16 -6 -27 0 -19 1 -19 10 3 10 24 8 36 -4 24z"/>
<path d="M7650 2316 c0 -8 6 -16 13 -19 9 -3 8 -8 -3 -22 -13 -17 -13 -18 1
-13 10 4 16 1 16 -8 0 -10 -7 -12 -21 -8 -20 6 -20 5 2 -17 19 -20 24 -22 32
-9 10 16 5 52 -12 88 -13 25 -28 29 -28 8z"/>
<path d="M8964 2319 c-3 -6 -2 -14 3 -18 6 -3 13 -13 16 -21 3 -8 6 0 6 18 1
32 -11 42 -25 21z"/>
<path d="M9130 2321 c0 -6 4 -13 10 -16 6 -3 7 1 4 9 -7 18 -14 21 -14 7z"/>
<path d="M4936 2312 c7 -4 14 -16 17 -27 4 -15 5 -14 6 8 1 20 -4 27 -16 27
-12 0 -14 -3 -7 -8z"/>
<path d="M5010 2301 c0 -25 6 -27 13 -6 4 8 2 17 -3 20 -6 4 -10 -3 -10 -14z"/>
<path d="M5080 2305 c0 -8 2 -15 4 -15 2 0 6 7 10 15 3 8 1 15 -4 15 -6 0 -10
-7 -10 -15z"/>
<path d="M5258 2302 c11 -11 20 -14 24 -8 7 11 -9 26 -29 26 -9 0 -7 -6 5 -18z"/>
<path d="M5326 2307 c3 -10 9 -15 12 -12 3 3 0 11 -7 18 -10 9 -11 8 -5 -6z"/>
<path d="M5357 2299 c4 -13 8 -18 11 -10 2 7 -1 18 -6 23 -8 8 -9 4 -5 -13z"/>
<path d="M9833 2295 c7 -13 14 -20 15 -14 5 14 -6 39 -17 39 -5 0 -4 -11 2
-25z"/>
<path d="M5440 2295 c0 -8 5 -15 10 -15 6 0 10 7 10 15 0 8 -4 15 -10 15 -5 0
-10 -7 -10 -15z"/>
<path d="M6880 2295 c0 -9 7 -18 15 -21 8 -4 12 -10 9 -15 -6 -10 9 -12 19 -3
11 11 -4 33 -19 27 -10 -4 -12 0 -8 11 3 9 1 16 -5 16 -6 0 -11 -7 -11 -15z"/>
<path d="M2155 2281 c-3 -6 -3 -16 1 -23 4 -6 3 -8 -3 -5 -6 4 -15 -23 -23
-71 -6 -42 -13 -82 -15 -89 -2 -7 2 -10 10 -7 8 3 17 22 21 41 4 22 14 37 28
43 30 11 35 4 29 -34 -3 -19 -1 -36 6 -40 6 -4 11 -5 11 -3 0 3 7 42 16 87 10
56 12 86 5 93 -7 7 -12 0 -16 -19 -11 -50 -14 -54 -35 -54 -19 0 -21 5 -19 40
3 40 -4 59 -16 41z"/>
<path d="M2292 2273 c-32 -28 -31 -56 6 -97 27 -31 31 -40 21 -53 -9 -10 -23
-13 -41 -9 -19 4 -28 1 -28 -8 0 -7 6 -13 13 -13 6 0 20 -4 30 -8 10 -4 17 -3
17 5 0 6 4 9 9 5 13 -7 41 23 41 43 0 27 -16 45 -31 37 -8 -5 -11 -4 -6 0 4 5
-3 19 -14 31 -17 18 -19 27 -11 37 7 8 10 16 7 18 -2 3 11 3 30 1 27 -3 35 -1
35 12 0 22 -52 21 -78 -1z"/>
<path d="M7121 2274 c0 -11 3 -14 6 -6 3 7 2 16 -1 19 -3 4 -6 -2 -5 -13z"/>
<path d="M2082 2263 c-7 -10 -10 -12 -7 -5 4 7 -1 12 -10 12 -9 0 -14 -4 -11
-9 4 -5 -3 -7 -14 -4 -15 4 -20 0 -20 -16 0 -14 5 -19 15 -15 9 4 15 0 15 -10
0 -9 5 -16 12 -16 6 0 4 -6 -6 -13 -12 -9 -16 -22 -13 -50 2 -20 1 -37 -2 -37
-4 0 -7 -9 -7 -20 0 -11 5 -19 10 -17 6 2 17 43 26 92 13 75 18 89 38 96 12 5
22 13 22 19 0 17 -34 11 -48 -7z"/>
<path d="M2450 2249 c-7 -11 -9 -32 -6 -45 4 -13 3 -24 -2 -24 -12 0 -41 -65
-34 -76 21 -28 40 -35 62 -22 17 11 22 11 29 -1 14 -21 33 -4 21 19 -7 13 -7
21 0 25 5 3 10 15 10 26 0 16 -5 19 -20 14 -14 -5 -20 -2 -20 9 0 9 4 16 9 16
9 0 24 60 17 67 -2 2 -15 6 -29 9 -19 3 -29 -1 -37 -17z m43 -2 c13 3 18 1 11
-4 -6 -4 -13 -16 -17 -25 -11 -29 -26 -20 -25 15 1 17 3 27 5 21 2 -7 14 -10
26 -7z m-23 -101 c0 -2 3 -11 6 -19 7 -19 -24 -31 -42 -16 -11 9 -11 15 -3 25
10 13 39 20 39 10z"/>
<path d="M12192 2257 c-19 -27 -13 -79 13 -105 l26 -26 -26 -15 c-27 -17 -34
-41 -12 -41 24 0 57 36 54 58 -3 23 -26 54 -36 48 -4 -3 -7 10 -6 27 0 25 5
32 24 37 14 3 26 10 28 16 5 15 -54 15 -65 1z"/>
<path d="M12360 2255 c0 -8 -5 -15 -11 -15 -6 0 -9 -12 -8 -28 2 -15 -4 -38
-14 -52 -25 -36 -22 -79 6 -89 12 -5 29 -5 38 0 9 4 25 6 36 3 18 -5 20 -1 17
33 -2 21 -3 42 -3 47 -1 5 -7 3 -15 -3 -10 -9 -15 -8 -19 3 -3 8 1 20 10 27
22 19 32 51 21 72 -11 21 -58 23 -58 2z m38 -30 c-13 -30 -28 -33 -28 -6 0 11
8 22 18 24 9 3 18 5 19 6 2 0 -3 -10 -9 -24z m-28 -106 c0 -20 -24 -26 -35 -9
-8 13 14 42 26 34 5 -3 9 -14 9 -25z"/>
<path d="M9021 2233 c-10 -26 -10 -27 4 -9 8 11 15 23 15 28 0 15 -7 8 -19
-19z"/>
<path d="M1983 2242 c-6 -4 -14 -29 -18 -57 -12 -80 -21 -85 -35 -20 -8 40
-15 54 -21 44 -7 -12 -9 -12 -9 0 0 34 -12 -3 -20 -61 -4 -35 -11 -81 -15
-102 -6 -27 -4 -37 3 -32 6 4 9 13 5 21 -3 8 0 15 5 15 6 0 14 20 18 45 8 56
21 49 30 -15 4 -31 12 -50 20 -50 15 0 20 14 33 95 5 33 13 75 17 93 7 34 6
36 -13 24z"/>
<path d="M7300 2236 c14 -14 126 -19 175 -8 30 6 46 5 63 -6 19 -13 22 -12 22
1 0 20 -50 27 -178 25 -64 -1 -89 -5 -82 -12z"/>
<path d="M9812 2210 c-8 -17 -26 -37 -40 -44 -28 -15 -25 -18 30 -30 28 -6 58
14 58 39 0 21 -19 65 -27 65 -5 0 -14 -14 -21 -30z"/>
<path d="M1695 2200 c-19 -37 -35 -39 -35 -5 0 29 -15 33 -28 8 -11 -21 -24
-83 -27 -135 -2 -20 -6 -46 -10 -57 -3 -12 -2 -21 4 -21 5 0 15 26 21 58 15
75 22 93 27 70 5 -21 33 -24 33 -4 0 7 7 20 16 27 15 12 16 11 11 -6 -13 -48
-18 -115 -8 -115 6 0 12 12 13 28 2 41 5 55 11 72 3 8 7 36 10 63 5 56 -13 65
-38 17z"/>
<path d="M1785 2202 c-36 -26 -61 -101 -41 -123 8 -9 8 -10 -1 -5 -20 11 0
-36 20 -48 20 -13 54 5 49 24 -1 6 2 9 8 5 27 -17 53 118 28 143 -13 13 -48
16 -63 4z m38 -28 c11 -4 12 -15 6 -47 -4 -23 -5 -46 -1 -52 3 -5 1 -7 -3 -2
-5 4 -16 0 -25 -8 -27 -24 -44 4 -36 57 8 51 25 66 59 52z"/>
<path d="M6745 2115 c0 -37 4 -65 10 -65 6 0 10 29 11 65 1 41 -3 65 -10 65
-7 0 -11 -24 -11 -65z"/>
<path d="M8522 2164 c-17 -18 -15 -31 5 -38 25 -10 38 9 22 32 -12 16 -16 17
-27 6z"/>
<path d="M4801 2133 c-1 -17 4 -35 9 -38 12 -7 12 22 0 50 -7 17 -9 15 -9 -12z"/>
<path d="M5256 2138 c-3 -13 -2 -26 2 -30 4 -4 8 6 9 23 3 35 -2 38 -11 7z"/>
<path d="M5030 2125 c0 -22 3 -26 9 -16 8 13 12 13 27 0 16 -13 17 -12 11 4
-4 10 -7 24 -7 30 0 7 -4 6 -10 -3 -9 -13 -11 -13 -20 0 -7 12 -10 8 -10 -15z"/>
<path d="M5110 2118 c0 -18 2 -20 9 -9 8 13 12 13 27 0 16 -13 16 -12 5 9 -6
12 -18 22 -26 22 -9 0 -15 -9 -15 -22z"/>
<path d="M5186 2125 c4 -8 11 -15 16 -15 6 0 5 6 -2 15 -7 8 -14 15 -16 15 -2
0 -1 -7 2 -15z"/>
<path d="M5440 2131 c0 -5 5 -13 10 -16 6 -3 10 -2 10 4 0 5 -4 13 -10 16 -5
3 -10 2 -10 -4z"/>
<path d="M4741 2114 c0 -11 3 -14 6 -6 3 7 2 16 -1 19 -3 4 -6 -2 -5 -13z"/>
<path d="M4871 2122 c-1 -8 -6 -10 -13 -6 -10 5 -10 4 -1 -6 15 -16 28 -8 20
12 -4 11 -6 11 -6 0z"/>
<path d="M5470 2119 c0 -5 5 -7 10 -4 6 3 10 8 10 11 0 2 -4 4 -10 4 -5 0 -10
-5 -10 -11z"/>
<path d="M5514 2104 c-10 -8 -13 -12 -5 -8 7 3 17 0 22 -7 6 -10 9 -8 9 9 0
26 -1 26 -26 6z"/>
<path d="M5605 2099 c-4 -6 -5 -12 -2 -15 2 -3 7 2 10 11 7 17 1 20 -8 4z"/>
<path d="M9838 2103 c7 -3 16 -2 19 1 4 3 -2 6 -13 5 -11 0 -14 -3 -6 -6z"/>
<path d="M2227 2046 c-3 -7 0 -19 6 -26 9 -10 9 -11 0 -6 -9 5 -13 -1 -13 -18
0 -22 -24 -46 -45 -46 -4 0 -4 20 -2 44 4 35 2 43 -9 39 -8 -3 -16 -15 -19
-27 -11 -49 -33 -201 -29 -205 10 -10 25 18 31 55 5 38 25 64 49 64 9 0 10
-10 3 -37 -4 -21 -7 -38 -6 -40 8 -8 32 20 33 39 1 13 4 30 7 38 10 28 14 69
6 64 -4 -2 -2 8 6 23 8 15 15 34 15 41 0 16 -27 15 -33 -2z"/>
<path d="M2288 2046 c-27 -20 -22 -61 8 -85 35 -28 27 -66 -16 -74 -16 -4 -30
-13 -30 -20 0 -20 49 -10 77 15 34 31 34 54 2 90 -37 42 -36 55 1 63 17 4 30
11 30 16 0 14 -53 10 -72 -5z"/>
<path d="M7350 2045 c-6 -7 0 -12 20 -13 16 -1 40 -6 52 -11 13 -4 32 -5 43 0
19 7 19 8 -2 8 -12 1 -24 5 -27 10 -9 14 -76 18 -86 6z"/>
<path d="M7295 2040 c3 -5 8 -10 11 -10 2 0 4 5 4 10 0 6 -5 10 -11 10 -5 0
-7 -4 -4 -10z"/>
<path d="M12192 2031 c-16 -11 -14 -97 3 -111 19 -16 19 -49 0 -56 -8 -4 -15
-12 -15 -20 0 -24 59 5 66 33 5 19 -1 32 -25 57 -17 17 -31 40 -31 49 0 18 41
33 59 22 6 -3 11 1 11 9 0 9 -3 16 -7 17 -5 0 -18 2 -30 3 -12 1 -26 0 -31 -3z
m23 -109 c-3 -3 -11 0 -18 7 -9 10 -8 11 6 5 10 -3 15 -9 12 -12z"/>
<path d="M2441 2011 c-6 -11 -11 -30 -10 -43 0 -13 -1 -32 -3 -43 -2 -14 2
-19 13 -17 9 1 22 -5 29 -13 10 -12 8 -16 -11 -24 -20 -7 -25 -5 -32 15 -11
31 -27 31 -27 -1 0 -28 27 -46 59 -38 14 3 29 -1 42 -13 20 -18 20 -18 13 11
-9 36 -9 44 1 69 7 15 5 17 -13 11 -27 -8 -28 5 -2 35 20 23 27 59 13 61 -5 0
-20 3 -35 5 -20 3 -30 -1 -37 -15z m42 -7 c8 -8 -3 -34 -14 -34 -5 0 -9 9 -9
20 0 19 11 26 23 14z"/>
<path d="M2095 2000 c-56 -36 -73 -51 -78 -71 -6 -23 -3 -24 19 -2 16 17 17
15 11 -32 -20 -159 -20 -161 -5 -145 22 22 52 211 35 223 -8 5 -5 6 8 3 24 -7
39 3 43 27 3 20 5 20 -33 -3z"/>
<path d="M12352 2004 c-17 -12 -22 -23 -18 -44 3 -20 -2 -34 -15 -46 -24 -21
-25 -67 -2 -85 15 -12 16 -12 8 1 -6 12 -5 13 6 3 15 -15 33 -17 24 -4 -3 6 7
6 27 1 36 -11 46 -7 29 14 -9 10 -9 20 0 40 13 28 4 50 -11 26 -5 -8 -12 -11
-17 -7 -4 4 -1 17 6 29 10 16 10 19 -1 13 -7 -3 -5 0 5 8 20 17 22 38 5 55
-15 15 -19 15 -46 -4z m28 -39 c-16 -17 -26 -22 -31 -14 -12 20 2 39 29 39
l25 0 -23 -25z m-19 -81 c10 -13 10 -17 -2 -25 -27 -17 -44 -4 -33 25 8 20 18
20 35 0z"/>
<path d="M4882 1940 c0 -25 2 -39 5 -32 7 17 21 15 26 -5 3 -10 5 -2 6 17 0
25 -2 31 -9 20 -8 -13 -9 -13 -14 0 -2 8 -7 22 -9 30 -3 8 -5 -5 -5 -30z"/>
<path d="M5305 1969 c-4 -6 -5 -12 -2 -15 2 -3 7 2 10 11 7 17 1 20 -8 4z"/>
<path d="M5195 1960 c-8 -13 -1 -24 14 -19 6 3 7 10 2 18 -6 10 -10 10 -16 1z"/>
<path d="M4656 1940 c7 -28 12 -35 18 -29 2 2 -2 15 -10 29 l-15 25 7 -25z"/>
<path d="M5260 1935 c0 -16 3 -24 8 -19 4 5 11 11 15 15 4 3 1 12 -8 19 -13
11 -15 9 -15 -15z"/>
<path d="M11096 1944 c-4 -9 -4 -19 -1 -22 3 -3 5 0 5 7 0 7 4 9 10 6 6 -3 7
1 4 9 -8 20 -10 20 -18 0z"/>
<path d="M4687 1944 c-5 -5 28 -44 38 -44 3 0 5 12 4 28 0 15 -3 21 -6 14 -3
-9 -9 -10 -17 -3 -7 6 -15 8 -19 5z"/>
<path d="M4817 1943 c-2 -5 -1 -17 3 -27 6 -19 7 -19 12 2 6 21 -6 40 -15 25z"/>
<path d="M5025 1939 c-4 -6 -5 -11 -4 -12 2 -2 11 -8 20 -15 14 -11 16 -9 11
13 -5 26 -16 32 -27 14z"/>
<path d="M5080 1920 c0 -16 4 -30 8 -30 5 0 7 14 4 30 -2 17 -6 30 -8 30 -2 0
-4 -13 -4 -30z"/>
<path d="M5351 1934 c0 -11 3 -14 6 -6 3 7 2 16 -1 19 -3 4 -6 -2 -5 -13z"/>
<path d="M1982 1928 c-5 -7 -13 -37 -17 -65 -4 -29 -11 -55 -15 -58 -4 -3 -14
18 -21 45 -15 57 -29 60 -42 9 l-9 -34 -13 33 c-18 40 -40 50 -65 27 -27 -25
-25 -34 8 -32 24 2 27 -2 30 -30 3 -31 -21 -93 -36 -93 -32 1 -38 30 -20 99 1
7 -2 15 -8 17 -16 7 -33 -61 -24 -100 10 -46 18 -56 41 -56 11 0 17 4 14 10
-3 5 0 7 7 5 8 -3 23 10 36 32 l23 38 -6 -42 c-5 -34 -4 -43 8 -43 10 0 17 16
21 50 4 29 11 48 16 45 6 -4 10 -12 10 -20 0 -29 20 -65 33 -59 15 5 43 167
32 184 -3 6 -2 10 2 10 5 0 9 9 10 20 2 23 -1 25 -15 8z"/>
<path d="M5112 1920 c0 -14 2 -19 5 -12 2 6 2 18 0 25 -3 6 -5 1 -5 -13z"/>
<path d="M5300 1919 c0 -5 5 -7 10 -4 6 3 10 8 10 11 0 2 -4 4 -10 4 -5 0 -10
-5 -10 -11z"/>
<path d="M4761 1904 c0 -11 3 -14 6 -6 3 7 2 16 -1 19 -3 4 -6 -2 -5 -13z"/>
<path d="M1725 1883 c-9 -10 -25 -29 -35 -43 l-19 -25 -1 28 c0 15 -5 27 -11
27 -5 0 -7 -4 -4 -10 3 -5 0 -7 -8 -4 -10 4 -18 -15 -30 -71 -19 -86 -21 -115
-8 -115 6 0 13 20 17 45 7 47 24 72 24 36 0 -12 7 -21 15 -21 8 0 15 6 15 14
0 8 5 18 11 22 8 5 9 -8 4 -45 -5 -37 -4 -51 5 -51 7 0 10 8 7 20 -3 11 -1 18
3 15 9 -6 46 183 37 191 -3 3 -13 -3 -22 -13z"/>
<path d="M11140 1881 c5 -11 15 -23 21 -27 6 -3 3 5 -6 20 -20 30 -30 35 -15
7z"/>
<path d="M7610 1867 c0 -13 24 -57 31 -57 11 0 -1 38 -17 51 -8 6 -14 9 -14 6z"/>
<path d="M10934 1846 c-3 -14 -20 -31 -37 -40 -18 -9 -25 -16 -16 -16 9 0 22
-6 28 -14 10 -12 8 -14 -11 -12 -13 1 -29 5 -35 9 -5 4 -18 -2 -27 -12 -18
-19 -19 -19 51 -26 33 -3 43 0 46 13 4 15 5 15 6 0 1 -13 10 -18 31 -18 17 0
33 0 37 -1 4 0 9 4 11 10 2 6 -3 11 -12 11 -9 0 -16 8 -16 19 0 18 -30 52 -30
35 0 -5 -4 -2 -10 6 -6 9 -5 17 3 22 9 6 9 8 -1 8 -7 0 -10 5 -7 10 4 6 11 8
16 5 5 -4 9 -1 9 4 0 22 -30 10 -36 -13z m29 -53 c4 9 6 9 6 0 1 -6 -3 -15 -9
-18 -12 -8 -50 12 -50 27 0 6 10 4 24 -6 18 -12 26 -12 29 -3z m-80 -36 c4 3
7 1 7 -5 0 -13 -10 -15 -34 -6 -9 3 -13 10 -10 16 4 5 11 5 18 -1 7 -6 16 -8
19 -4z"/>
<path d="M11203 1833 c12 -40 59 -202 73 -250 13 -48 17 -53 43 -53 l28 0 -13
73 c-19 114 -52 229 -66 238 -7 5 -26 9 -42 9 -22 0 -27 -4 -23 -17z"/>
<path d="M4550 1836 c0 -9 30 -14 35 -6 4 6 -3 10 -14 10 -12 0 -21 -2 -21 -4z"/>
<path d="M11133 1834 c-6 -3 -9 -16 -7 -30 2 -13 1 -24 -4 -24 -4 0 -8 -9 -8
-20 0 -11 3 -20 7 -20 4 0 14 -3 23 -6 9 -3 16 -1 16 5 0 6 -8 11 -17 11 -16
1 -16 2 -2 13 11 9 14 20 8 39 -4 17 -3 29 4 32 7 2 8 4 2 4 -5 0 -15 -2 -22
-4z"/>
<path d="M11305 1831 c-3 -6 -2 -28 4 -48 5 -21 12 -51 15 -66 4 -15 10 -26
14 -23 5 3 6 -8 4 -25 -2 -17 0 -29 7 -29 6 0 8 8 4 18 -5 14 -3 13 10 -3 16
-19 16 -18 17 20 0 22 -9 64 -20 93 -11 28 -20 55 -19 60 0 11 -28 14 -36 3z
m29 -37 c3 -8 2 -12 -4 -9 -6 3 -10 10 -10 16 0 14 7 11 14 -7z"/>
<path d="M4532 1810 c0 -14 2 -19 5 -12 2 6 2 18 0 25 -3 6 -5 1 -5 -13z"/>
<path d="M11024 1808 c1 -13 -4 -22 -11 -20 -14 2 -18 -14 -5 -22 14 -8 31 9
34 33 2 13 -2 26 -8 28 -6 2 -10 -7 -10 -19z"/>
<path d="M6827 1814 c-4 -4 -7 -16 -7 -26 0 -18 1 -18 16 -3 11 10 13 20 7 26
-5 5 -12 6 -16 3z"/>
<path d="M4716 1794 c-9 -23 -7 -34 5 -34 5 0 7 5 4 10 -3 6 -2 10 3 10 5 0 9
7 9 15 0 20 -13 19 -21 -1z"/>
<path d="M12186 1803 c-3 -4 -5 -18 -5 -32 1 -18 3 -20 6 -8 3 10 18 20 34 24
16 3 29 9 29 13 0 9 -56 11 -64 3z"/>
<path d="M301 1784 c0 -11 3 -14 6 -6 3 7 2 16 -1 19 -3 4 -6 -2 -5 -13z"/>
<path d="M4620 1789 c0 -5 -4 -7 -10 -4 -15 9 -12 -4 5 -21 13 -14 15 -13 15
10 0 14 -2 26 -5 26 -3 0 -5 -5 -5 -11z"/>
<path d="M4666 1792 c-2 -4 4 -8 14 -8 10 0 16 4 14 8 -3 4 -9 8 -14 8 -5 0
-11 -4 -14 -8z"/>
<path d="M4770 1790 c0 -5 5 -10 11 -10 5 0 7 5 4 10 -3 6 -8 10 -11 10 -2 0
-4 -4 -4 -10z"/>
<path d="M2462 1778 c-19 -19 -14 -31 12 -24 31 8 41 -7 19 -25 -13 -11 -17
-11 -20 -1 -3 6 -12 12 -20 12 -11 0 -14 -7 -9 -23 3 -14 -1 -32 -9 -43 -19
-25 -19 -68 0 -84 12 -10 15 -10 15 0 0 10 3 10 14 1 11 -9 18 -8 30 4 9 9 16
12 16 6 0 -6 5 -11 11 -11 5 0 7 5 3 12 -5 7 -7 25 -6 41 2 23 -1 28 -13 23
-21 -8 -19 11 6 46 18 24 20 34 10 54 -11 26 -39 32 -59 12z m9 -125 c4 -20 6
-53 4 -53 -1 0 -12 8 -23 19 -22 19 -30 37 -12 26 6 -3 10 -1 10 4 0 12 19 15
21 4z"/>
<path d="M12341 1771 c-7 -5 -15 -26 -18 -47 -3 -21 -13 -49 -23 -61 -32 -41
0 -84 49 -68 11 3 25 -1 34 -10 22 -21 30 -19 17 5 -6 12 -9 36 -6 54 5 31 4
34 -16 28 -20 -5 -20 -3 6 31 21 28 25 40 18 54 -11 20 -40 26 -61 14z m29
-36 c0 -8 -3 -15 -6 -15 -3 0 -12 7 -20 15 -14 13 -13 15 5 15 12 0 21 -6 21
-15z m-20 -100 c0 -15 -6 -25 -14 -25 -19 0 -28 14 -20 34 10 25 34 19 34 -9z"/>
<path d="M5086 1734 c-4 -15 -3 -31 3 -37 7 -7 8 -2 4 13 -4 15 -2 21 4 17 7
-5 9 0 6 13 -7 26 -10 25 -17 -6z"/>
<path d="M4975 1741 c3 -5 -3 -11 -12 -13 -13 -3 -10 -6 9 -10 24 -4 26 -3 17
13 -5 11 -12 19 -15 19 -3 0 -3 -4 1 -9z"/>
<path d="M5033 1723 c0 -18 4 -33 9 -33 10 0 9 18 -2 45 -6 16 -8 14 -7 -12z"/>
<path d="M5312 1720 c0 -19 2 -27 5 -17 3 11 11 16 19 13 8 -3 14 -1 14 4 0 6
-6 10 -14 10 -8 0 -17 6 -19 13 -3 6 -5 -4 -5 -23z"/>
<path d="M6713 1725 c-32 -31 -28 -39 7 -18 17 9 30 21 30 25 0 16 -16 13 -37
-7z"/>
<path d="M5262 1731 c-11 -7 -11 -9 2 -14 10 -4 16 -1 16 8 0 17 -1 17 -18 6z"/>
<path d="M8030 1735 c0 -8 101 -135 107 -135 2 0 -2 11 -9 24 -16 28 -98 122
-98 111z"/>
<path d="M12184 1729 c-3 -6 1 -18 10 -28 20 -22 20 -30 -1 -53 -19 -21 -9
-37 14 -22 26 16 36 39 30 65 -7 28 -43 54 -53 38z"/>
<path d="M2326 1720 c-58 -18 -60 -50 -5 -110 31 -33 42 -41 49 -30 11 18 3
36 -26 55 -34 22 -31 53 6 62 31 8 42 27 18 30 -7 1 -26 -2 -42 -7z"/>
<path d="M4880 1720 c0 -5 6 -7 14 -4 8 3 16 -2 19 -13 4 -14 5 -14 6 5 1 16
-5 22 -19 22 -11 0 -20 -4 -20 -10z"/>
<path d="M5380 1720 c0 -5 5 -10 11 -10 5 0 7 5 4 10 -3 6 -8 10 -11 10 -2 0
-4 -4 -4 -10z"/>
<path d="M11096 1703 c-4 -16 -9 -36 -13 -47 -3 -10 -1 -16 4 -13 5 3 9 -3 9
-13 0 -10 -4 -16 -9 -13 -5 3 -7 0 -5 -8 3 -8 12 -13 22 -11 9 2 16 -2 16 -8
0 -5 -5 -10 -10 -10 -6 0 -3 -11 6 -25 9 -14 21 -25 26 -25 6 0 5 6 -2 15 -9
11 -9 15 -1 15 6 0 14 -7 17 -15 4 -8 10 -15 16 -15 5 0 6 5 2 12 -4 7 -7 28
-7 48 l1 35 -8 -30 c-7 -28 -8 -27 -9 13 0 24 3 41 8 38 5 -3 4 12 -1 34 -11
41 -27 54 -29 23 0 -14 -2 -13 -9 5 -12 29 -16 28 -24 -5z"/>
<path d="M2084 1701 c-24 -11 -43 -28 -47 -40 -4 -18 -2 -21 14 -16 10 4 19 2
19 -4 0 -5 3 -17 7 -27 4 -11 2 -15 -4 -11 -6 4 -13 -10 -16 -36 -4 -23 -9
-58 -13 -77 -7 -34 -7 -34 11 -17 12 12 23 49 32 105 10 65 18 90 33 101 19
13 28 41 13 41 -5 0 -26 -9 -49 -19z"/>
<path d="M2174 1704 c3 -8 2 -13 -3 -9 -11 6 -35 -129 -28 -150 3 -7 1 -16 -6
-19 -7 -2 -4 -5 5 -5 13 -1 19 10 24 39 5 33 11 40 29 40 18 0 24 -7 27 -29 2
-17 1 -28 -4 -25 -4 3 -8 -2 -8 -10 0 -19 17 -30 25 -16 4 6 8 22 11 35 2 14
6 37 9 53 16 89 17 102 6 102 -7 0 -9 -4 -6 -10 3 -5 1 -10 -4 -10 -6 0 -11
-11 -11 -24 0 -30 -13 -40 -40 -31 -17 5 -19 12 -14 46 5 28 3 39 -6 39 -7 0
-10 -7 -6 -16z"/>
<path d="M5530 1710 c0 -7 -7 -10 -15 -6 -8 3 -15 1 -15 -4 0 -14 18 -21 25
-10 5 8 11 7 21 -1 8 -7 14 -7 14 -1 0 5 -7 15 -15 22 -12 10 -15 10 -15 0z"/>
<path d="M5600 1715 c0 -18 19 -40 26 -32 4 4 0 15 -9 24 -9 10 -17 13 -17 8z"/>
<path d="M6620 1689 c0 -5 5 -7 10 -4 6 3 10 8 10 11 0 2 -4 4 -10 4 -5 0 -10
-5 -10 -11z"/>
<path d="M6590 1664 c0 -14 -2 -15 -17 -3 -16 13 -17 12 -4 -3 12 -16 11 -18
-2 -18 -11 0 -14 -6 -10 -15 3 -9 2 -15 -3 -13 -5 2 -9 1 -9 -2 0 -3 -8 -19
-19 -34 -17 -27 -39 -86 -31 -86 2 0 22 34 44 75 23 41 50 79 61 85 11 6 18
15 15 21 -10 15 -25 10 -25 -7z"/>
<path d="M1110 1653 c8 -4 20 -13 27 -22 11 -14 12 -13 13 7 0 18 -5 22 -27
21 -17 0 -22 -3 -13 -6z"/>
<path d="M1588 1636 c-4 -17 -1 -23 9 -19 14 6 18 43 4 43 -5 0 -11 -11 -13
-24z"/>
<path d="M2001 1646 c-6 -7 -14 -41 -17 -75 -7 -65 -20 -79 -30 -33 -10 47
-13 52 -29 52 -8 0 -15 -2 -15 -5 0 -3 -7 -38 -15 -78 -15 -73 -16 -117 -4
-117 4 0 10 17 13 38 10 55 16 72 27 72 5 0 9 -11 9 -24 0 -38 19 -81 31 -69
8 8 50 253 43 253 -1 0 -7 -6 -13 -14z"/>
<path d="M670 1629 c0 -5 5 -7 10 -4 6 3 10 8 10 11 0 2 -4 4 -10 4 -5 0 -10
-5 -10 -11z"/>
<path d="M928 1613 c6 -2 18 -2 25 0 6 3 1 5 -13 5 -14 0 -19 -2 -12 -5z"/>
<path d="M1717 1590 c-10 -16 -22 -30 -28 -30 -8 0 -13 22 -10 43 1 4 -7 3
-18 -2 -19 -11 -27 -33 -35 -103 -2 -21 -7 -41 -9 -45 -3 -5 -8 -30 -11 -56
-5 -43 -4 -47 9 -33 9 8 19 36 24 61 5 25 9 48 10 50 0 3 1 10 1 17 0 6 6 4
13 -7 15 -19 37 -13 37 11 0 8 4 14 8 14 5 0 7 -23 4 -50 -3 -41 -1 -49 11
-44 10 3 18 33 26 93 6 48 11 93 11 99 0 23 -26 12 -43 -18z"/>
<path d="M1801 1581 c-15 -12 -21 -23 -16 -31 6 -10 11 -9 21 5 8 11 19 15 30
11 22 -9 14 -75 -14 -111 -20 -26 -21 -26 -32 -5 -6 11 -10 36 -8 55 2 19 -1
35 -7 37 -12 3 -19 -64 -11 -97 7 -29 57 -28 87 2 30 29 38 112 14 136 -21 22
-34 21 -64 -2z"/>
<path d="M3540 1585 c0 -8 -5 -15 -10 -15 -7 0 -9 -16 -6 -41 5 -36 3 -39 -10
-28 -14 11 -16 10 -14 -6 4 -34 0 -55 -9 -55 -5 0 -7 16 -4 35 4 33 -4 44 -21
28 -4 -5 -13 -8 -19 -8 -7 0 -12 -6 -12 -14 0 -19 -32 -23 -48 -6 -8 7 -19 10
-28 5 -20 -11 -59 6 -60 27 -1 10 -4 5 -8 -12 -4 -16 -6 -35 -3 -41 4 -15 67
-23 87 -12 11 7 13 5 9 -7 -7 -18 17 -20 34 -3 9 9 15 10 20 2 4 -6 33 -13 65
-16 45 -4 60 -1 64 9 5 12 7 12 14 2 10 -16 140 -22 176 -8 15 5 29 6 32 2 9
-12 71 -16 71 -4 0 5 3 16 6 25 5 12 0 16 -20 16 -17 0 -26 -5 -26 -16 0 -8
-5 -12 -10 -9 -6 4 -7 11 -4 17 4 6 -1 8 -16 3 -19 -6 -22 -4 -17 9 4 9 2 15
-5 13 -7 -1 -14 6 -16 17 -2 11 0 16 7 12 7 -5 8 -1 4 9 -5 13 -7 14 -14 3 -5
-7 -9 -21 -9 -31 0 -14 -5 -17 -22 -11 -13 3 -30 11 -38 16 -12 8 -12 9 3 4 9
-3 17 -1 17 4 0 6 -5 10 -11 10 -6 0 -8 8 -4 19 4 13 0 20 -17 24 -25 7 -38 0
-22 -11 6 -4 10 -17 9 -29 -2 -26 -15 -44 -15 -21 0 22 -39 29 -65 12 -12 -8
-25 -11 -28 -7 -10 9 -9 75 1 69 4 -2 9 4 9 15 1 10 -2 19 -8 19 -5 0 -9 -7
-9 -15z m70 -95 c0 -5 -2 -10 -4 -10 -3 0 -8 5 -11 10 -3 6 -1 10 4 10 6 0 11
-4 11 -10z m-139 -27 c-12 -20 -14 -14 -5 12 4 9 9 14 11 11 3 -2 0 -13 -6
-23z m169 -31 c0 -5 -7 -9 -15 -9 -8 0 -15 4 -15 9 0 4 7 8 15 8 8 0 15 -4 15
-8z"/>
<path d="M1060 1583 c8 -3 18 -11 22 -17 5 -7 8 -4 8 7 0 11 -7 17 -22 16 -16
0 -18 -2 -8 -6z"/>
<path d="M1226 1573 c-6 -14 -5 -15 5 -6 7 7 10 15 7 18 -3 3 -9 -2 -12 -12z"/>
<path d="M8140 1589 c0 -4 9 -26 20 -50 11 -24 19 -37 19 -29 0 15 -38 91 -39
79z"/>
<path d="M11365 1580 c3 -5 11 -10 16 -10 6 0 7 5 4 10 -3 6 -11 10 -16 10 -6
0 -7 -4 -4 -10z"/>
<path d="M253 1565 c-3 -9 -3 -18 -1 -21 3 -3 8 4 11 16 6 23 -1 27 -10 5z"/>
<path d="M3583 1569 c-6 -6 -9 -18 -6 -25 3 -9 -1 -14 -12 -14 -9 0 -13 -4
-10 -10 10 -16 43 11 43 37 0 27 0 27 -15 12z"/>
<path d="M3700 1569 c0 -5 5 -7 10 -4 6 3 10 8 10 11 0 2 -4 4 -10 4 -5 0 -10
-5 -10 -11z"/>
<path d="M4626 1564 c-8 -22 -8 -26 4 -19 6 4 18 1 27 -7 14 -11 13 -8 -1 15
-21 32 -22 32 -30 11z"/>
<path d="M10904 1574 c-7 -3 -10 -15 -8 -27 4 -22 4 -22 -7 1 -15 28 -49 26
-60 -4 -7 -20 -4 -21 53 -23 51 -1 59 1 55 14 -7 17 4 20 20 4 7 -7 12 -4 16
10 3 12 0 21 -6 21 -7 0 -21 2 -32 5 -11 2 -25 2 -31 -1z"/>
<path d="M2340 1560 c0 -5 -18 -13 -40 -16 -46 -8 -49 -30 -4 -28 50 2 53 4
63 23 8 14 7 20 -4 25 -8 3 -15 1 -15 -4z"/>
<path d="M4774 1555 c1 -8 8 -21 16 -28 10 -10 12 -9 6 6 -3 10 -6 23 -6 28 0
5 -4 9 -9 9 -5 0 -8 -7 -7 -15z"/>
<path d="M4820 1564 c0 -13 18 -39 24 -34 2 3 -2 14 -10 24 -8 11 -14 16 -14
10z"/>
<path d="M630 1549 c0 -5 9 -9 20 -9 11 0 20 2 20 4 0 2 -9 6 -20 9 -11 3 -20
1 -20 -4z"/>
<path d="M4703 1553 c-7 -2 -13 -9 -13 -15 0 -7 4 -7 13 1 10 8 17 7 27 -2 12
-10 12 -9 1 6 -7 9 -14 17 -15 16 0 0 -7 -3 -13 -6z"/>
<path d="M3871 1534 c0 -11 3 -14 6 -6 3 7 2 16 -1 19 -3 4 -6 -2 -5 -13z"/>
<path d="M1092 1515 c0 -16 2 -22 5 -12 2 9 2 23 0 30 -3 6 -5 -1 -5 -18z"/>
<path d="M3445 1530 c-3 -5 -1 -10 4 -10 6 0 11 5 11 10 0 6 -2 10 -4 10 -3 0
-8 -4 -11 -10z"/>
<path d="M11002 1532 c-8 -6 -2 -9 18 -9 20 0 26 3 18 9 -7 4 -15 8 -18 8 -3
0 -11 -4 -18 -8z"/>
<path d="M5030 1526 c0 -3 11 -17 25 -32 14 -15 25 -22 25 -16 0 6 3 17 6 26
3 9 1 16 -6 16 -6 0 -8 -4 -5 -10 3 -5 1 -10 -5 -10 -6 0 -13 7 -16 15 -6 13
-24 22 -24 11z"/>
<path d="M12331 1506 c-7 -13 -10 -33 -6 -45 4 -14 1 -31 -9 -46 -34 -52 -13
-86 50 -82 39 2 39 2 40 45 1 37 -1 42 -18 37 -23 -8 -23 3 0 28 16 19 16 20
0 14 -10 -3 -20 -2 -24 4 -3 6 -13 8 -22 4 -11 -4 -8 3 8 20 17 18 27 22 34
14 8 -8 7 -13 -1 -16 -7 -3 -13 -9 -13 -14 0 -13 28 0 34 17 17 45 -50 63 -73
20z m23 -115 c17 -19 17 -20 -3 -31 -19 -10 -21 -8 -21 20 0 35 1 36 24 11z"/>
<path d="M913 1513 c9 -2 23 -2 30 0 6 3 -1 5 -18 5 -16 0 -22 -2 -12 -5z"/>
<path d="M3167 1505 c-4 -8 -2 -17 3 -20 6 -4 10 3 10 14 0 25 -6 27 -13 6z"/>
<path d="M3710 1511 c0 -5 5 -13 10 -16 6 -3 10 -2 10 4 0 5 -4 13 -10 16 -5
3 -10 2 -10 -4z"/>
<path d="M3791 1504 c0 -11 3 -14 6 -6 3 7 2 16 -1 19 -3 4 -6 -2 -5 -13z"/>
<path d="M5200 1515 c0 -5 5 -17 11 -25 8 -11 12 -12 16 -2 2 6 9 10 14 6 5
-3 9 0 9 6 0 7 -7 9 -17 6 -9 -4 -20 -1 -25 6 -4 7 -8 9 -8 3z"/>
<path d="M2451 1479 c-31 -34 -26 -63 16 -96 43 -35 39 -47 -23 -73 -76 -33
-51 -55 26 -24 70 28 78 69 21 111 -30 22 -37 32 -31 48 4 12 19 22 35 25 35
6 35 24 1 28 -15 2 -32 -5 -45 -19z"/>
<path d="M3210 1484 c0 -8 5 -12 10 -9 6 3 10 10 10 16 0 5 -4 9 -10 9 -5 0
-10 -7 -10 -16z"/>
<path d="M2400 1470 c-7 -12 -10 -35 -8 -50 4 -24 -1 -31 -30 -45 l-35 -16 7
52 c6 46 5 51 -8 40 -16 -13 -30 -75 -42 -175 -5 -47 -4 -58 7 -54 8 3 15 11
16 19 9 74 16 91 36 98 20 8 23 5 27 -28 3 -20 1 -39 -5 -43 -12 -9 0 -22 13
-14 11 6 47 225 39 233 -3 2 -11 -5 -17 -17z"/>
<path d="M3395 1480 c3 -5 8 -10 11 -10 2 0 4 5 4 10 0 6 -5 10 -11 10 -5 0
-7 -4 -4 -10z"/>
<path d="M4011 1474 c0 -11 3 -14 6 -6 3 7 2 16 -1 19 -3 4 -6 -2 -5 -13z"/>
<path d="M3150 1469 c0 -4 -6 -6 -14 -3 -10 4 -14 0 -12 -13 2 -13 12 -18 38
-18 28 0 34 3 30 17 -4 17 -42 33 -42 17z"/>
<path d="M3928 1451 c-3 -20 0 -27 8 -24 12 4 14 53 3 53 -4 0 -9 -13 -11 -29z"/>
<path d="M12208 1468 c-24 -8 -28 -15 -28 -47 0 -27 7 -44 25 -61 14 -13 25
-30 25 -37 0 -7 -11 -19 -25 -25 -32 -15 -34 -43 -2 -34 12 3 25 6 29 6 3 0
11 14 17 31 12 35 2 61 -33 90 -17 14 -19 21 -10 36 6 9 21 20 33 23 24 5 30
24 9 27 -7 1 -25 -3 -40 -9z"/>
<path d="M3246 1448 c9 -31 12 -34 25 -21 15 15 4 43 -16 43 -12 0 -15 -6 -9
-22z"/>
<path d="M3893 1463 c-18 -7 -16 -23 2 -23 8 0 15 7 15 15 0 8 -1 15 -2 14 -2
0 -9 -3 -15 -6z"/>
<path d="M4062 1448 c-6 -13 -11 -17 -11 -10 -1 19 -21 14 -21 -6 0 -14 8 -18
38 -18 20 -1 29 1 19 3 -13 3 -15 11 -11 29 8 30 0 31 -14 2z"/>
<path d="M4137 1451 c-3 -14 0 -21 9 -21 16 0 18 9 5 28 -6 10 -10 9 -14 -7z"/>
<path d="M3970 1440 c0 -19 3 -21 12 -12 9 9 9 15 0 24 -9 9 -12 7 -12 -12z"/>
<path d="M896 1425 c-9 -26 -7 -32 5 -12 6 10 9 21 6 23 -2 3 -7 -2 -11 -11z"/>
<path d="M1058 1433 c7 -3 16 -2 19 1 4 3 -2 6 -13 5 -11 0 -14 -3 -6 -6z"/>
<path d="M1121 1427 c0 -11 7 -21 18 -24 11 -3 22 -12 24 -22 3 -11 5 -9 6 7
1 15 -5 22 -18 22 -11 0 -22 8 -24 18 -4 15 -5 15 -6 -1z"/>
<path d="M970 1419 c0 -5 -5 -7 -12 -3 -7 4 -8 3 -4 -5 6 -9 11 -9 22 0 17 14
18 19 4 19 -5 0 -10 -5 -10 -11z"/>
<path d="M1006 1415 c-3 -9 -6 -22 -5 -28 0 -7 5 -1 10 12 5 13 8 26 5 28 -2
2 -6 -3 -10 -12z"/>
<path d="M2193 1423 c-25 -5 -21 -33 4 -33 16 0 16 -3 -2 -145 -4 -30 -3 -35
4 -20 l10 20 1 -20 c1 -11 8 14 15 56 17 102 22 116 46 122 12 3 18 10 14 16
-6 11 -48 12 -92 4z"/>
<path d="M2130 1395 c-5 -14 -10 -37 -10 -50 0 -13 -3 -32 -7 -42 -6 -13 -10
-5 -18 32 -16 74 -37 66 -52 -19 -14 -76 -23 -96 -23 -49 0 17 -9 41 -19 54
l-19 24 -28 -20 c-56 -43 -84 -144 -48 -179 18 -19 49 -22 38 -4 -4 7 -3 8 5
4 13 -8 31 8 55 49 l17 30 -6 -35 c-20 -110 -47 -160 -81 -145 -10 4 -28 9
-39 11 -11 1 -14 0 -7 -2 6 -3 12 -10 12 -15 0 -13 -34 -11 -48 3 -9 9 -12 9
-12 0 0 -7 -9 -12 -21 -12 -11 0 -17 5 -14 10 3 6 1 10 -4 10 -6 0 -11 -6 -11
-12 0 -7 -5 -5 -11 5 -6 11 -22 17 -44 17 -39 0 -65 -28 -65 -72 0 -14 -7 -33
-15 -42 -16 -16 -21 -41 -5 -31 5 3 9 -13 8 -37 -1 -83 2 -109 11 -103 6 3 14
-3 20 -12 6 -10 11 -12 11 -5 0 21 20 13 20 -8 0 -17 5 -19 25 -14 16 4 25 2
25 -5 0 -7 10 -1 23 13 22 23 65 46 88 46 5 0 9 -11 9 -25 0 -19 4 -23 17 -18
11 4 12 8 5 11 -18 6 -14 30 7 41 25 14 53 -14 30 -31 -11 -8 -10 -9 4 -4 10
3 21 6 23 6 3 0 0 9 -6 20 -6 11 -7 20 -3 20 24 1 35 18 24 39 -9 16 -9 21 1
21 9 0 9 3 -2 10 -8 5 -10 10 -5 10 6 0 11 12 12 28 2 28 11 94 17 124 2 10 0
20 -4 23 -13 8 -1 58 16 72 8 6 15 13 14 15 -6 10 24 127 31 122 5 -2 11 -27
15 -53 5 -41 9 -48 25 -44 23 6 28 27 52 217 3 30 -22 31 -33 1z m-135 -125
c-2 -36 -32 -110 -44 -110 -13 0 -38 25 -44 43 -4 11 -3 16 3 12 6 -3 10 4 10
17 0 13 7 33 15 44 8 12 13 23 10 25 -2 2 9 4 24 4 25 1 28 -2 26 -35z m-45
-260 c0 -5 -7 -10 -16 -10 -8 0 -12 5 -9 10 3 6 10 10 16 10 5 0 9 -4 9 -10z
m-50 -9 c0 -14 -18 -23 -31 -15 -8 4 -7 9 2 15 18 11 29 11 29 0z m0 -65 c0
-8 -10 -13 -25 -13 -14 0 -25 1 -25 4 0 3 34 19 48 22 1 1 2 -5 2 -13z m-5
-88 c-1 -36 -5 -43 -28 -49 -29 -8 -35 2 -14 23 7 7 14 18 15 23 7 58 29 60
27 3z m45 32 c0 -5 -4 -10 -10 -10 -5 0 -10 5 -10 10 0 6 5 10 10 10 6 0 10
-4 10 -10z m-14 -67 c-11 -11 -19 6 -11 24 8 17 8 17 12 0 3 -10 2 -21 -1 -24z
m-163 -48 c0 -6 -7 -11 -16 -13 -12 -3 -15 1 -11 13 7 17 25 17 27 0z"/>
<path d="M955 1379 c-4 -6 -5 -12 -2 -15 2 -3 7 2 10 11 7 17 1 20 -8 4z"/>
<path d="M5075 1380 c-3 -6 1 -7 9 -4 18 7 21 14 7 14 -6 0 -13 -4 -16 -10z"/>
<path d="M5130 1370 c0 -5 5 -10 11 -10 5 0 7 5 4 10 -3 6 -8 10 -11 10 -2 0
-4 -4 -4 -10z"/>
<path d="M5070 1350 c0 -5 5 -10 11 -10 5 0 7 5 4 10 -3 6 -8 10 -11 10 -2 0
-4 -4 -4 -10z"/>
<path d="M5126 1341 c-4 -5 -2 -12 3 -15 5 -4 12 -2 15 3 4 5 2 12 -3 15 -5 4
-12 2 -15 -3z"/>
<path d="M4960 1322 c0 -12 19 -26 26 -19 2 2 -2 10 -11 17 -9 8 -15 8 -15 2z"/>
<path d="M6800 1313 c-33 -11 -33 -12 -8 -12 15 -1 30 4 33 9 5 8 11 7 20 0
10 -8 20 -8 31 -2 12 7 24 6 36 -1 13 -9 23 -9 37 0 10 7 22 9 25 5 12 -11 80
-10 98 2 24 17 -224 16 -272 -1z"/>
<path d="M7454 1317 c-3 -8 -4 -52 -2 -98 3 -81 4 -84 27 -84 24 0 24 1 22 82
-1 49 2 84 8 88 21 12 11 25 -19 25 -17 0 -33 -6 -36 -13z"/>
<path d="M7760 1226 c0 -105 4 -116 41 -116 5 0 9 50 9 110 l0 110 -25 0 -25
0 0 -104z"/>
<path d="M1781 1297 c-6 -14 -12 -46 -15 -71 -3 -25 -9 -58 -12 -72 -5 -19 -4
-25 5 -20 6 4 11 17 11 29 1 12 7 36 15 52 l13 30 1 -27 c1 -16 7 -28 14 -28
7 0 18 12 24 28 10 24 11 20 8 -30 -2 -32 0 -58 4 -58 8 0 31 120 31 159 0 30
-28 26 -36 -4 -8 -33 -22 -32 -26 2 -4 35 -25 41 -37 10z"/>
<path d="M12336 1235 c-12 -9 -19 -28 -20 -52 -1 -35 1 -38 24 -35 19 1 21 0
10 -7 -12 -9 -12 -11 3 -17 33 -12 20 -44 -28 -64 -42 -18 -55 -33 -37 -44 15
-9 103 36 98 50 -3 8 0 13 7 11 7 -1 12 7 12 18 0 11 -6 19 -13 17 -8 -1 -11
2 -7 8 4 6 -4 20 -18 30 -13 11 -27 29 -30 40 -4 17 1 21 34 26 41 7 50 18 23
28 -23 9 -37 7 -58 -9z"/>
<path d="M12284 1225 c3 -8 1 -15 -4 -15 -6 0 -10 -10 -10 -22 0 -43 -12 -66
-35 -70 -20 -4 -24 0 -27 28 -2 18 0 30 4 28 4 -3 8 4 8 15 0 13 -5 19 -14 15
-14 -5 -26 -55 -26 -106 0 -16 -3 -28 -7 -28 -5 0 -9 -11 -9 -25 -1 -14 -5
-37 -8 -51 -6 -21 -4 -25 11 -22 13 2 18 15 21 48 3 45 21 70 50 70 11 0 12
-11 7 -52 -6 -45 -6 -50 7 -37 8 8 22 59 31 115 20 118 20 124 6 124 -6 0 -9
-7 -5 -15z"/>
<path d="M5330 1115 c-7 -9 -11 -17 -9 -20 3 -2 10 5 17 15 14 24 10 26 -8 5z"/>
<path d="M5791 1114 c0 -11 3 -14 6 -6 3 7 2 16 -1 19 -3 4 -6 -2 -5 -13z"/>
<path d="M6157 1116 c-3 -8 1 -17 10 -20 23 -9 28 1 10 18 -13 13 -16 13 -20
2z"/>
<path d="M6222 1100 c0 -19 2 -27 5 -17 2 9 2 25 0 35 -3 9 -5 1 -5 -18z"/>
<path d="M6330 1121 c0 -8 -8 -24 -17 -35 -17 -20 -17 -20 0 -6 16 12 20 12
28 -1 7 -11 9 -10 9 6 0 11 -5 27 -10 35 -8 12 -10 13 -10 1z"/>
<path d="M5523 1105 c-9 -10 -9 -16 0 -24 19 -15 38 0 24 20 -10 13 -15 14
-24 4z"/>
<path d="M5890 1111 c0 -5 -3 -16 -6 -25 -4 -10 -1 -16 7 -16 7 0 9 3 6 7 -4
3 -2 12 4 19 7 8 7 14 -1 19 -5 3 -10 2 -10 -4z"/>
<path d="M5970 1095 c0 -23 3 -27 10 -15 9 13 11 13 20 0 5 -8 10 -10 10 -5 0
13 -20 43 -20 30 0 -5 -5 -3 -10 5 -7 12 -10 8 -10 -15z"/>
<path d="M6261 1115 c1 -19 18 -51 18 -35 0 8 -4 22 -9 30 -5 8 -9 11 -9 5z"/>
<path d="M7400 1111 c0 -6 4 -13 10 -16 5 -3 14 -20 19 -38 l9 -32 1 30 c0 17
-6 38 -13 48 -14 19 -26 22 -26 8z"/>
<path d="M5550 1106 c0 -2 7 -7 16 -10 8 -3 12 -2 9 4 -6 10 -25 14 -25 6z"/>
<path d="M5596 1095 c6 -14 36 -14 41 1 2 5 -8 10 -21 10 -16 1 -23 -3 -20
-11z"/>
<path d="M5660 1100 c0 -5 5 -10 11 -10 5 0 7 5 4 10 -3 6 -8 10 -11 10 -2 0
-4 -4 -4 -10z"/>
<path d="M5840 1103 c0 -4 5 -15 10 -23 8 -13 10 -13 10 2 0 9 -4 20 -10 23
-5 3 -10 3 -10 -2z"/>
<path d="M6456 1102 c-12 -12 -5 -24 11 -18 9 4 20 1 25 -6 6 -10 8 -9 8 3 0
16 -33 32 -44 21z"/>
<path d="M5392 1080 c0 -14 2 -19 5 -12 2 6 2 18 0 25 -3 6 -5 1 -5 -13z"/>
<path d="M6380 1076 c0 -31 6 -34 13 -6 3 11 1 23 -4 26 -5 3 -9 -6 -9 -20z"/>
<path d="M7250 1076 c0 -15 10 -30 28 -41 l27 -18 -19 22 c-21 23 -30 51 -16
51 5 0 10 -6 13 -12 2 -7 8 -9 13 -5 9 9 -13 27 -33 27 -7 0 -13 -11 -13 -24z"/>
<path d="M3642 1074 c-12 -8 -22 -25 -22 -37 1 -21 2 -20 18 6 21 33 39 35 53
3 8 -17 8 -29 0 -45 -10 -17 -9 -21 3 -21 8 0 17 14 21 31 5 24 2 36 -16 55
-27 28 -28 29 -57 8z"/>
<path d="M5930 1080 c-9 -6 -10 -10 -3 -10 6 0 15 5 18 10 8 12 4 12 -15 0z"/>
<path d="M7047 1084 c-11 -12 -8 -36 4 -28 6 3 15 0 20 -7 5 -8 9 -9 9 -3 0
17 -25 46 -33 38z"/>
<path d="M7096 1082 c-2 -4 -1 -23 4 -42 l8 -35 1 43 c1 41 -3 50 -13 34z"/>
<path d="M7160 1079 c-12 -8 -10 -9 7 -4 15 4 25 0 32 -12 6 -10 11 -13 11 -7
0 11 -20 34 -29 34 -4 0 -13 -5 -21 -11z"/>
<path d="M7330 1081 c0 -4 13 -8 30 -7 39 1 39 16 0 16 -16 0 -30 -4 -30 -9z"/>
<path d="M5310 1072 c0 -12 19 -26 26 -19 2 2 -2 10 -11 17 -9 8 -15 8 -15 2z"/>
<path d="M6517 1066 c-3 -8 1 -20 9 -26 12 -10 14 -8 14 14 0 28 -14 35 -23
12z"/>
<path d="M6948 1055 c3 -19 8 -23 15 -16 8 8 7 16 -5 27 -14 14 -15 14 -10
-11z"/>
<path d="M2685 1030 c-4 -23 -5 -43 -2 -46 2 -3 7 14 11 37 4 23 5 44 2 46 -2
2 -7 -14 -11 -37z"/>
<path d="M6574 1059 c-4 -7 -3 -9 4 -5 5 3 13 0 15 -6 4 -9 6 -10 6 -1 1 17
-16 25 -25 12z"/>
<path d="M6616 1054 c-9 -24 -7 -27 9 -10 17 17 19 26 6 26 -5 0 -12 -7 -15
-16z"/>
<path d="M6680 1051 c-13 -25 -13 -31 0 -31 6 0 9 3 9 8 -4 22 3 31 18 25 11
-4 14 -3 9 5 -11 17 -24 15 -36 -7z"/>
<path d="M6812 1048 c-15 -15 -16 -32 -2 -23 6 4 18 1 27 -7 15 -11 16 -11 10
5 -4 10 -7 23 -7 28 0 13 -14 11 -28 -3z"/>
<path d="M6887 1034 c9 -15 19 -22 21 -15 2 6 -3 18 -11 26 -24 24 -29 18 -10
-11z"/>
<path d="M7331 1044 c0 -11 3 -14 6 -6 3 7 2 16 -1 19 -3 4 -6 -2 -5 -13z"/>
<path d="M8489 1058 c0 -2 -3 -18 -6 -36 -2 -18 -10 -53 -18 -77 -7 -25 -9
-45 -4 -45 4 0 13 19 20 43 18 68 22 75 27 45 2 -16 9 -28 16 -28 7 0 17 12
23 28 10 23 11 19 8 -30 -6 -80 10 -73 24 11 14 91 14 91 -9 91 -11 0 -20 -7
-20 -15 0 -8 -4 -15 -10 -15 -5 0 -10 7 -10 15 0 12 -37 23 -41 13z"/>
<path d="M8624 1044 c3 -8 2 -13 -3 -10 -19 12 -28 -82 -11 -115 21 -37 69
-16 104 46 l17 30 -6 -30 c-16 -90 -17 -101 -4 -80 7 11 15 22 19 25 4 3 10
22 14 43 6 31 5 37 -6 31 -7 -4 -5 2 5 13 9 11 17 25 17 31 0 7 4 12 9 12 5 0
12 -20 15 -45 6 -36 11 -45 27 -45 22 0 25 7 32 68 l5 42 -54 0 c-53 0 -55 -1
-60 -30 -4 -16 -10 -30 -14 -30 -5 0 -6 14 -4 30 3 17 1 30 -5 30 -6 0 -12 -9
-12 -20 -2 -29 -3 -31 -23 -73 -13 -25 -24 -36 -33 -33 -8 4 -17 6 -19 6 -2 0
-4 7 -4 15 0 8 -6 15 -12 15 -9 0 -9 3 -3 8 6 4 16 24 22 45 9 31 9 37 -4 37
-10 0 -13 -6 -9 -16z"/>
<path d="M8902 1018 c-10 -50 -10 -50 12 -42 11 4 16 18 16 45 0 52 -17 50
-28 -3z"/>
<path d="M8997 1053 c-4 -3 -7 -19 -7 -35 0 -41 25 -31 26 10 1 31 -5 39 -19
25z"/>
<path d="M9077 1053 c-4 -3 -7 -13 -7 -20 0 -20 23 -11 26 10 2 17 -7 22 -19
10z"/>
<path d="M9115 1050 c-7 -12 22 -12 50 0 17 7 15 9 -12 9 -17 1 -35 -3 -38 -9z"/>
<path d="M11649 1038 c-2 -27 -6 -62 -13 -100 -2 -16 -1 -28 4 -28 4 0 10 18
14 40 6 41 26 56 26 20 0 -28 17 -25 34 8 17 30 19 17 7 -45 -6 -33 -5 -43 5
-43 7 0 13 12 14 28 1 15 2 43 3 64 1 20 5 34 10 31 4 -2 7 7 7 21 0 32 -25
35 -40 5 -9 -16 -14 -18 -26 -9 -7 7 -11 16 -8 21 3 5 -4 9 -15 9 -15 0 -21
-7 -22 -22z"/>
<path d="M11808 1053 c-33 -9 -51 -112 -25 -148 21 -27 63 -12 89 31 25 42 30
40 19 -9 -7 -28 -6 -37 4 -37 8 0 16 8 18 18 3 9 10 38 17 65 7 26 16 47 20
47 5 0 11 -22 15 -50 6 -45 8 -48 26 -37 10 6 21 24 24 39 3 15 8 41 11 57 l5
29 -55 1 c-37 0 -56 -4 -56 -12 -1 -7 -7 -25 -15 -42 -10 -19 -13 -22 -9 -7 6
26 -3 62 -17 62 -5 0 -9 -17 -9 -38 0 -43 -25 -102 -43 -102 -30 1 -68 60 -38
60 14 0 20 38 7 44 -6 2 -4 5 5 5 9 1 19 8 23 16 3 8 4 14 3 14 -1 -1 -10 -3
-19 -6z"/>
<path d="M12073 1010 c-8 -41 -8 -50 4 -50 15 0 19 8 28 63 4 28 3 37 -8 37
-9 0 -18 -18 -24 -50z"/>
<path d="M937 1033 c-6 -10 -10 -94 -6 -143 1 -19 5 6 8 55 7 93 6 102 -2 88z"/>
<path d="M1259 1025 c-3 -11 -4 -52 -2 -91 l4 -72 -30 -10 c-17 -6 -31 -13
-31 -16 0 -3 12 -1 27 5 20 7 28 6 35 -3 6 -10 8 -9 8 4 0 9 10 24 23 33 l22
17 -22 -7 c-21 -6 -22 -3 -25 77 -2 46 -6 74 -9 63z"/>
<path d="M1577 1024 c-15 -8 -32 -12 -37 -9 -6 3 -10 1 -10 -4 0 -12 -95 -61
-117 -61 -7 0 -13 11 -13 24 0 14 -4 28 -10 31 -5 3 -10 -3 -10 -15 0 -13 -4
-19 -11 -14 -8 4 -9 -3 -4 -24 5 -27 3 -33 -22 -46 l-28 -15 40 5 c22 3 35 2
30 -3 -6 -4 -10 -17 -9 -28 7 -62 9 -73 21 -83 10 -10 11 3 6 66 l-6 78 60 27
c33 15 63 27 66 27 3 0 8 -26 10 -57 l3 -58 2 67 c2 63 4 68 27 74 13 3 29 12
36 20 14 17 11 17 -24 -2z"/>
<path d="M2435 1026 c-3 -9 -7 -23 -10 -31 -4 -13 -61 -55 -76 -55 -3 0 -4 15
-3 33 3 23 0 19 -7 -13 -11 -46 -54 -94 -76 -85 -7 2 -13 -2 -13 -9 0 -8 -25
-35 -55 -61 -65 -55 -67 -74 -2 -21 24 20 48 36 52 36 4 0 21 14 37 30 16 17
33 28 37 25 5 -3 7 -24 5 -48 -3 -35 -1 -33 7 12 8 40 20 63 41 83 40 37 48
35 49 -9 1 -38 1 -38 13 12 7 28 17 59 23 70 8 15 7 23 -3 33 -12 11 -15 10
-19 -2z"/>
<path d="M2610 1024 c-1 -10 -8 -37 -16 -59 -8 -22 -18 -60 -23 -85 -5 -25
-12 -54 -16 -65 -5 -16 -5 -17 4 -5 9 12 11 11 12 -10 0 -14 2 -20 4 -15 10
24 45 248 40 253 -3 3 -5 -3 -5 -14z"/>
<path d="M6565 1029 c-4 -6 -5 -12 -2 -15 2 -3 7 2 10 11 7 17 1 20 -8 4z"/>
<path d="M3231 1004 c17 -13 38 -20 47 -17 12 5 14 2 9 -11 -6 -15 -3 -17 15
-12 13 3 31 6 41 6 10 0 15 5 12 10 -4 6 6 10 24 10 22 0 29 -4 25 -14 -6 -15
-50 -30 -64 -21 -4 3 -10 0 -12 -7 -4 -10 -10 -10 -32 0 -16 7 -37 10 -47 7
-11 -4 -31 0 -47 7 -29 14 -62 13 -62 -3 0 -5 9 -9 21 -9 11 0 17 -4 14 -10
-4 -6 9 -10 32 -11 l38 -1 -35 -10 c-31 -9 -32 -11 -15 -18 11 -5 50 -11 87
-15 45 -5 69 -12 73 -22 4 -13 -5 -15 -60 -11 -36 2 -65 0 -65 -4 0 -4 0 -11
0 -15 0 -5 5 -8 10 -8 6 0 10 -4 10 -9 0 -11 -87 -11 -112 -1 -10 4 -18 3 -18
-3 0 -6 8 -13 18 -15 13 -4 11 -5 -5 -6 -29 -1 -29 -18 -1 -42 15 -14 37 -19
82 -19 43 0 57 -3 46 -10 -23 -15 -93 -12 -118 6 -19 13 -23 13 -28 0 -12 -31
1 -59 31 -69 17 -6 35 -17 41 -25 10 -13 20 -13 85 2 41 10 80 19 87 22 7 2
10 -1 7 -6 -3 -6 -12 -10 -20 -10 -8 0 -16 -3 -19 -8 -2 -4 32 -7 77 -5 79 2
93 6 212 58 17 8 39 16 50 19 26 7 60 76 39 76 -8 0 -14 5 -14 12 0 6 -3 8 -6
5 -4 -3 -16 -2 -27 4 -15 9 -18 8 -12 -2 6 -9 3 -11 -9 -6 -10 4 -27 7 -39 8
-17 1 -16 3 8 10 17 5 50 7 75 4 44 -6 45 -6 20 10 -25 16 -24 16 16 10 24 -4
45 -2 48 4 4 6 -32 9 -104 7 -61 -1 -113 1 -116 6 -3 4 7 8 23 8 20 0 24 3 14
9 -11 7 -11 9 0 14 11 5 10 9 -3 20 -23 18 -4 41 23 27 12 -7 20 -6 25 2 4 6
3 8 -4 4 -6 -3 -13 -3 -16 2 -3 4 -42 7 -87 6 -64 -2 -86 -6 -95 -18 -8 -12
-20 -15 -38 -10 -37 9 -42 24 -8 24 29 0 68 31 55 43 -6 7 18 11 47 8 13 -2
13 0 1 8 -8 5 -44 10 -79 10 -36 0 -68 4 -71 8 -3 4 -34 8 -68 9 l-63 1 31
-23z m109 -18 c0 -2 -9 -6 -20 -9 -11 -3 -20 -1 -20 4 0 5 9 9 20 9 11 0 20
-2 20 -4z m25 -186 c8 -13 -5 -13 -25 0 -13 8 -13 10 2 10 9 0 20 -4 23 -10z
m138 3 c-7 -2 -19 -2 -25 0 -7 3 -2 5 12 5 14 0 19 -2 13 -5z"/>
<path d="M1113 975 c0 -22 2 -30 4 -17 2 12 2 30 0 40 -3 9 -5 -1 -4 -23z"/>
<path d="M790 968 c0 -23 3 -29 9 -19 8 12 4 51 -5 51 -2 0 -4 -15 -4 -32z"/>
<path d="M2701 928 c-15 -82 -26 -205 -17 -197 7 7 38 251 32 256 -2 2 -9 -24
-15 -59z"/>
<path d="M553 935 c0 -27 2 -38 4 -22 2 15 2 37 0 50 -2 12 -4 0 -4 -28z"/>
<path d="M672 935 c0 -16 2 -22 5 -12 2 9 2 23 0 30 -3 6 -5 -1 -5 -18z"/>
<path d="M2661 882 c-20 -130 -22 -149 -12 -127 11 26 36 194 29 200 -2 3 -10
-30 -17 -73z"/>
<path d="M301 934 c0 -11 3 -14 6 -6 3 7 2 16 -1 19 -3 4 -6 -2 -5 -13z"/>
<path d="M2181 904 c0 -11 3 -14 6 -6 3 7 2 16 -1 19 -3 4 -6 -2 -5 -13z"/>
<path d="M1123 870 c0 -25 2 -35 4 -22 2 12 2 32 0 45 -2 12 -4 2 -4 -23z"/>
<path d="M3605 900 c3 -5 8 -10 11 -10 2 0 4 5 4 10 0 6 -5 10 -11 10 -5 0 -7
-4 -4 -10z"/>
<path d="M682 865 c0 -16 2 -22 5 -12 2 9 2 23 0 30 -3 6 -5 -1 -5 -18z"/>
<path d="M2411 854 c0 -11 3 -14 6 -6 3 7 2 16 -1 19 -3 4 -6 -2 -5 -13z"/>
<path d="M86 845 c-3 -8 -1 -15 4 -15 6 0 10 7 10 15 0 8 -2 15 -4 15 -2 0 -6
-7 -10 -15z"/>
<path d="M8695 841 c-7 -23 -39 -36 -57 -24 -23 14 -37 12 -31 -4 5 -13 1 -15
-23 -10 -16 3 -37 1 -46 -4 -14 -7 -18 -6 -18 6 0 18 -20 21 -20 3 0 -7 -5 -5
-11 5 -7 12 -22 17 -50 17 -24 0 -38 -4 -34 -10 3 -5 1 -10 -4 -10 -6 0 -14
-18 -17 -41 -4 -22 -13 -46 -20 -54 -16 -16 -19 -39 -3 -30 7 5 10 -8 8 -36
-3 -79 1 -125 10 -110 6 9 11 10 15 3 4 -6 14 -8 23 -5 13 5 15 2 10 -16 -5
-20 -3 -22 25 -16 21 5 28 4 24 -4 -4 -6 -2 -11 3 -11 6 0 11 7 11 15 0 8 7
15 15 15 8 0 15 4 15 8 0 10 45 32 65 32 9 0 15 -10 15 -26 0 -15 4 -23 10
-19 6 4 9 13 8 22 -2 8 5 20 14 26 13 9 21 7 36 -6 19 -17 19 -17 15 8 -4 18
-1 25 11 25 19 0 22 26 4 33 -9 4 -10 8 -3 14 6 4 10 22 9 38 0 17 2 35 6 40
4 6 8 30 9 54 1 25 4 47 6 50 2 4 -3 14 -10 24 -13 18 -14 17 -20 -2z m-35
-61 c-20 -13 -33 -13 -25 0 3 6 14 10 23 10 15 0 15 -2 2 -10z m-50 -9 c0 -12
-20 -25 -27 -18 -7 7 6 27 18 27 5 0 9 -4 9 -9z m0 -65 c0 -8 -10 -13 -25 -13
-14 0 -25 1 -25 4 0 3 34 19 48 22 1 1 2 -5 2 -13z m0 -55 c0 -5 -7 -12 -16
-15 -24 -9 -28 -7 -14 9 14 17 30 20 30 6z m40 -1 c0 -5 -4 -10 -10 -10 -5 0
-10 5 -10 10 0 6 5 10 10 10 6 0 10 -4 10 -10z m-243 -22 c-3 -8 -6 -5 -6 6
-1 11 2 17 5 13 3 -3 4 -12 1 -19z m199 -37 c-2 -9 -14 -17 -30 -19 -26 -3
-27 -2 -15 20 22 42 51 42 45 -1z m30 2 c-10 -10 -19 5 -10 18 6 11 8 11 12 0
2 -7 1 -15 -2 -18z m-163 -58 c0 -6 -7 -11 -16 -13 -12 -3 -15 1 -11 13 7 17
25 17 27 0z"/>
<path d="M9400 834 c0 -5 -11 -76 -25 -158 -26 -159 -28 -172 -20 -164 3 3 12
45 20 94 8 49 20 120 26 157 6 38 8 71 5 74 -3 4 -6 2 -6 -3z"/>
<path d="M8295 799 c-16 -10 -34 -17 -40 -16 -5 2 -14 -2 -20 -9 -5 -7 -36
-24 -67 -38 l-58 -25 0 30 c0 16 -4 29 -10 29 -5 0 -10 -8 -10 -17 0 -16 -2
-16 -11 -3 -8 12 -9 8 -5 -15 2 -17 1 -36 -3 -43 -6 -10 -71 -42 -86 -42 -3 0
-5 37 -6 83 -1 56 -4 74 -9 57 -4 -14 -5 -55 -3 -91 l6 -66 -32 -13 c-17 -7
-30 -15 -27 -17 2 -3 15 1 27 8 18 9 24 9 27 0 3 -8 9 -4 16 9 13 27 79 55
104 45 9 -4 12 -9 7 -11 -12 -5 -7 -84 5 -84 5 0 11 -10 13 -22 3 -13 2 15 -1
63 l-5 85 60 27 c33 15 63 27 66 27 3 0 8 -24 10 -52 l3 -53 2 63 c1 42 6 62
15 62 6 0 26 11 42 25 36 29 31 31 -10 4z"/>
<path d="M7640 794 c0 -8 5 -12 10 -9 6 3 10 10 10 16 0 5 -4 9 -10 9 -5 0
-10 -7 -10 -16z"/>
<path d="M9315 768 c-4 -24 -12 -49 -18 -56 -5 -7 -14 -34 -18 -60 -4 -26 -10
-56 -14 -67 -5 -15 -4 -17 3 -6 8 11 11 9 14 -10 1 -13 13 34 26 105 13 71 21
130 18 133 -2 2 -7 -15 -11 -39z"/>
<path d="M10880 803 c0 -5 -3 -64 -6 -133 -4 -97 -9 -129 -22 -143 -16 -18
-16 -19 3 -16 11 2 22 6 25 9 7 8 97 60 104 60 2 0 6 -8 9 -17 3 -14 5 -12 11
7 7 24 74 70 103 70 6 0 14 -17 16 -37 4 -38 4 -38 3 4 0 23 6 48 12 56 7 8 9
17 5 19 -4 3 -2 3 5 1 7 -1 22 1 31 7 17 9 18 4 13 -63 -6 -91 2 -85 17 12 9
55 18 79 34 94 l22 19 -24 -7 c-17 -5 -21 -4 -16 5 16 26 -18 27 -41 1 -25
-29 -24 -41 3 -20 16 13 17 12 4 -4 -8 -10 -20 -16 -26 -13 -7 2 -18 -1 -25
-7 -10 -9 -11 -9 -5 1 5 10 2 13 -11 10 -11 -2 -19 -10 -19 -18 0 -8 -16 -23
-35 -33 -33 -17 -18 -18 25 -2 16 6 14 4 -5 -12 -29 -23 -65 -43 -77 -43 -4 0
0 7 10 14 10 8 14 17 9 20 -6 3 -9 32 -7 63 2 43 1 50 -5 28 l-8 -30 -1 29
c-2 64 -14 -3 -20 -121 -1 -16 -81 -62 -97 -56 -11 4 -12 31 -7 129 3 68 3
124 -1 124 -3 0 -6 -3 -6 -7z"/>
<path d="M550 789 c0 -5 5 -7 10 -4 6 3 10 8 10 11 0 2 -4 4 -10 4 -5 0 -10
-5 -10 -11z"/>
<path d="M9140 780 c0 -17 -59 -70 -78 -70 -5 0 -7 15 -6 33 2 20 -1 15 -8
-16 -9 -38 -20 -55 -47 -75 -63 -46 -152 -124 -147 -129 4 -4 64 39 141 101
l30 25 5 -47 5 -47 7 52 c7 49 34 93 58 93 6 0 10 5 10 10 0 6 5 10 11 10 8 0
10 -17 6 -52 -5 -55 1 -41 22 47 7 28 21 57 31 65 19 14 18 15 -10 16 -22 1
-30 -3 -30 -16z"/>
<path d="M10698 787 c-16 -6 -28 -16 -28 -21 0 -9 -38 -37 -72 -54 -3 -2 -8 5
-11 15 -3 12 -5 9 -6 -9 -1 -21 -12 -32 -56 -57 -30 -17 -55 -37 -55 -44 0 -8
2 -9 8 -1 7 12 81 54 94 54 5 0 9 -24 10 -52 l1 -53 6 65 c6 60 8 66 41 88
l35 23 6 -78 5 -78 2 87 c2 82 4 87 30 107 30 23 29 24 -10 8z"/>
<path d="M7823 740 c0 -25 2 -35 4 -22 2 12 2 32 0 45 -2 12 -4 2 -4 -23z"/>
<path d="M7502 740 c0 -19 2 -27 5 -17 2 9 2 25 0 35 -3 9 -5 1 -5 -18z"/>
<path d="M7638 726 c-1 -25 0 -55 3 -68 4 -13 7 5 8 45 1 76 -5 90 -11 23z"/>
<path d="M10452 745 c0 -16 2 -22 5 -12 2 9 2 23 0 30 -3 6 -5 -1 -5 -18z"/>
<path d="M7263 715 c0 -22 2 -30 4 -17 2 12 2 30 0 40 -3 9 -5 -1 -4 -23z"/>
<path d="M9421 734 c0 -11 3 -14 6 -6 3 7 2 16 -1 19 -3 4 -6 -2 -5 -13z"/>
<path d="M10119 733 c-13 -15 -12 -15 9 -4 23 12 28 21 13 21 -5 0 -15 -7 -22
-17z"/>
<path d="M11768 727 c-21 -12 -40 -29 -43 -37 -5 -12 -4 -12 6 -3 9 9 16 10
26 2 10 -9 13 -7 14 7 0 18 1 18 10 -1 8 -20 9 -19 6 1 -1 11 4 28 12 37 17
22 14 21 -31 -6z"/>
<path d="M7382 700 c0 -19 2 -27 5 -17 2 9 2 25 0 35 -3 9 -5 1 -5 -18z"/>
<path d="M8892 690 c0 -19 2 -27 5 -17 2 9 2 25 0 35 -3 9 -5 1 -5 -18z"/>
<path d="M11671 675 c-6 -25 -16 -45 -21 -45 -6 0 -10 -5 -10 -11 0 -5 5 -7
10 -4 7 5 9 -11 6 -47 l-6 -53 13 62 c8 35 22 73 33 85 18 21 18 22 0 8 -18
-14 -18 -13 -12 18 11 49 0 38 -13 -13z"/>
<path d="M11922 687 c-7 -21 -9 -58 -5 -102 8 -82 19 -64 29 48 7 80 -5 107
-24 54z"/>
<path d="M9402 646 c-7 -35 -12 -81 -11 -102 1 -37 1 -37 9 -11 10 32 24 177
18 177 -3 0 -10 -29 -16 -64z"/>
<path d="M11561 694 c0 -11 3 -14 6 -6 3 7 2 16 -1 19 -3 4 -6 -2 -5 -13z"/>
<path d="M9810 650 c0 -29 2 -51 4 -49 8 8 10 88 3 95 -4 4 -7 -17 -7 -46z"/>
<path d="M9923 655 c0 -27 2 -38 4 -22 2 15 2 37 0 50 -2 12 -4 0 -4 -28z"/>
<path d="M11406 621 c-4 -46 -5 -86 -2 -88 6 -6 19 143 14 159 -3 7 -8 -25
-12 -71z"/>
<path d="M7833 640 c0 -25 2 -35 4 -22 2 12 2 32 0 45 -2 12 -4 2 -4 -23z"/>
<path d="M10006 654 c-18 -25 -18 -25 3 -12 12 7 21 18 21 25 0 18 -2 16 -24
-13z"/>
<path d="M10342 640 c0 -19 2 -27 5 -17 2 9 2 25 0 35 -3 9 -5 1 -5 -18z"/>
<path d="M11763 643 c0 -10 -3 -47 -7 -83 l-6 -65 15 55 c16 61 19 110 7 110
-4 0 -8 -8 -9 -17z"/>
<path d="M10441 621 c-1 -24 2 -32 9 -25 7 7 7 19 1 35 -9 23 -10 22 -10 -10z"/>
<path d="M6796 615 c-3 -8 -1 -15 4 -15 6 0 10 7 10 15 0 8 -2 15 -4 15 -2 0
-6 -7 -10 -15z"/>
<path d="M10955 614 c-11 -9 -29 -22 -39 -30 -11 -7 -18 -15 -15 -18 2 -2 22
11 44 30 40 34 47 47 10 18z"/>
<path d="M9917 593 c-4 -3 -7 -11 -7 -17 0 -6 5 -5 12 2 6 6 9 14 7 17 -3 3
-9 2 -12 -2z"/>
<path d="M11548 567 c-21 -12 -38 -26 -38 -30 0 -5 12 0 28 11 15 10 36 24 47
30 11 6 16 11 10 11 -5 0 -27 -10 -47 -22z"/>
<path d="M9811 553 c-1 -18 -5 -33 -11 -33 -5 0 -10 -4 -10 -8 0 -5 7 -9 15
-9 8 0 15 5 15 10 0 5 8 16 18 24 9 8 11 12 4 8 -7 -4 -16 3 -21 17 -9 21 -10
21 -10 -9z"/>
<path d="M7260 559 c0 -5 5 -7 10 -4 6 3 10 8 10 11 0 2 -4 4 -10 4 -5 0 -10
-5 -10 -11z"/>
<path d="M8341 544 c0 -11 3 -14 6 -6 3 7 2 16 -1 19 -3 4 -6 -2 -5 -13z"/>
<path d="M3197 534 c-4 -4 -17 -7 -29 -8 -20 -1 -23 -6 -20 -39 2 -28 -1 -37
-13 -37 -8 0 -15 -4 -15 -8 0 -10 14 -9 78 2 23 4 39 12 36 18 -3 5 -12 7 -20
4 -8 -3 -14 1 -14 10 0 8 4 13 9 10 5 -3 14 1 21 9 7 8 19 15 26 15 8 0 11 6
8 15 -6 15 -55 21 -67 9z"/>
<path d="M11450 505 c-14 -8 -20 -14 -14 -15 5 0 19 7 30 15 24 18 16 19 -16
0z"/>
<path d="M3121 474 c0 -11 3 -14 6 -6 3 7 2 16 -1 19 -3 4 -6 -2 -5 -13z"/>
<path d="M4489 435 c-3 -58 -1 -96 4 -102 4 -3 7 21 7 55 0 34 -2 62 -5 62 -3
0 -5 -7 -6 -15z"/>
<path d="M4413 409 c-15 -7 -16 -8 -1 -8 9 -1 19 -7 21 -13 4 -10 6 -10 6 0 1
18 19 15 24 -5 3 -12 5 -10 6 7 1 27 -18 33 -56 19z"/>
<path d="M3880 389 c0 -5 9 -9 20 -9 11 0 20 2 20 4 0 2 -9 6 -20 9 -11 3 -20
1 -20 -4z"/>
<path d="M3835 381 c3 -5 -2 -16 -10 -24 -8 -9 -15 -18 -15 -21 0 -3 66 -5
148 -4 81 1 126 3 100 5 -35 3 -48 8 -48 20 0 13 -12 15 -79 11 -44 -2 -78 -1
-76 3 3 4 -2 10 -11 13 -8 3 -13 2 -9 -3z"/>
<path d="M960 359 c-19 -4 -75 -11 -125 -14 -49 -3 -108 -8 -130 -11 -22 -2
-67 -5 -100 -6 -54 -1 -56 -1 -20 -7 40 -6 40 -6 -36 -25 -42 -10 -88 -17
-103 -14 -14 3 -26 2 -26 -2 0 -4 -10 -12 -22 -19 -22 -11 -22 -11 5 -6 20 4
27 1 27 -10 0 -8 -7 -16 -15 -16 -8 -1 -19 -3 -25 -4 -5 -1 -17 -3 -25 -4 -8
0 -15 -7 -15 -15 0 -16 -34 -31 -50 -21 -5 3 -10 2 -10 -3 0 -12 133 -33 199
-32 48 1 53 -1 47 -17 -5 -16 -4 -16 6 -3 18 21 216 20 229 -1 6 -10 9 -10 9
-1 0 7 15 12 42 12 63 0 41 8 -37 14 -39 3 -72 6 -75 7 -3 1 -34 1 -70 0 -36
-1 -72 3 -80 9 -12 8 -10 10 12 10 14 0 28 4 30 10 5 15 175 31 301 27 65 -2
120 0 123 5 3 4 17 6 32 3 15 -2 9 2 -13 9 -46 17 -88 21 -66 7 8 -5 9 -11 3
-15 -6 -3 -13 3 -17 14 -4 14 -15 20 -35 20 -24 0 -29 5 -33 28 l-4 27 -2 -27
c-1 -36 -5 -36 -231 -42 -102 -3 -193 -8 -203 -12 -12 -4 -17 -1 -17 10 0 9 5
17 10 17 6 1 22 3 38 4 15 2 59 6 97 10 39 3 83 11 99 16 16 5 58 9 92 9 36 0
64 4 64 10 0 6 12 10 26 10 14 0 33 4 43 10 10 5 37 11 60 12 25 2 41 8 41 16
0 13 -1 13 -50 1z m-397 -146 c-7 -2 -19 -2 -25 0 -7 3 -2 5 12 5 14 0 19 -2
13 -5z m-43 -22 c0 -12 -46 -20 -61 -10 -8 5 -4 9 12 12 41 8 49 7 49 -2z
m-89 -10 c-12 -8 -51 -4 -51 5 0 2 15 4 33 4 22 0 28 -3 18 -9z"/>
<path d="M4340 350 c0 -5 5 -10 10 -10 6 0 10 5 10 10 0 6 -4 10 -10 10 -5 0
-10 -4 -10 -10z"/>
<path d="M4460 345 c0 -8 4 -15 8 -15 5 0 9 7 9 15 0 8 -4 15 -9 15 -4 0 -8
-7 -8 -15z"/>
<path d="M3120 339 c0 -5 5 -7 10 -4 6 3 10 8 10 11 0 2 -4 4 -10 4 -5 0 -10
-5 -10 -11z"/>
<path d="M4153 333 c9 -2 23 -2 30 0 6 3 -1 5 -18 5 -16 0 -22 -2 -12 -5z"/>
<path d="M4213 333 c9 -2 23 -2 30 0 6 3 -1 5 -18 5 -16 0 -22 -2 -12 -5z"/>
<path d="M674 273 c9 -9 185 -10 179 0 -2 4 -45 7 -95 7 -50 0 -88 -3 -84 -7z"/>
<path d="M9910 228 c0 -4 8 -8 18 -9 9 -1 26 -2 37 -3 11 -1 36 -3 55 -4 27
-2 31 -5 20 -12 -8 -5 -23 -7 -32 -4 -10 3 -18 1 -18 -5 0 -10 29 -16 53 -12
4 0 7 -4 7 -9 0 -7 -24 -9 -70 -5 -58 4 -70 3 -70 -10 0 -8 6 -12 14 -9 9 3
16 -5 20 -22 6 -21 10 -25 16 -14 5 8 7 18 4 22 -6 9 207 9 309 1 38 -3 75
-12 82 -19 7 -8 15 -10 17 -4 2 6 30 5 76 -2 53 -8 72 -14 72 -26 0 -12 -11
-14 -65 -8 -49 5 -65 4 -65 -6 -1 -8 -6 -6 -15 6 -10 13 -34 20 -87 26 -41 5
-85 11 -100 15 -15 4 -29 2 -32 -4 -4 -6 -1 -11 6 -11 9 0 9 -3 -2 -10 -20
-13 -93 -13 -85 0 3 6 1 10 -4 10 -6 0 -11 -6 -11 -14 0 -8 -10 -17 -22 -19
l-23 -4 23 -2 c15 -1 22 -7 22 -21 0 -22 -25 -28 -33 -7 -4 7 -6 6 -6 -4 -1
-20 37 -29 125 -29 50 0 64 3 64 15 0 12 13 15 56 15 30 0 64 4 74 10 14 7 19
5 23 -10 5 -19 1 -20 -51 -15 -52 4 -53 4 -17 -5 22 -5 60 -8 85 -8 29 0 36 3
20 6 l-25 5 25 8 c24 7 24 7 3 8 -13 1 -23 5 -23 9 0 9 129 -4 139 -13 3 -3
-1 -10 -9 -15 -9 -6 20 -8 77 -7 93 2 125 11 80 22 -14 4 -28 14 -30 23 -4 16
-5 16 -6 1 -1 -15 -6 -16 -48 -5 -37 9 -49 17 -51 34 -3 21 -1 22 40 16 24 -4
49 -11 56 -17 10 -8 12 -4 8 18 -5 28 -5 28 42 22 49 -6 51 -7 -44 23 -17 6
-47 10 -67 10 -20 0 -38 4 -42 10 -3 5 -11 7 -18 4 -14 -5 -286 32 -294 40 -4
3 56 6 132 6 76 0 136 2 134 4 -2 2 -94 7 -204 10 -110 3 -237 8 -282 9 -46 2
-83 0 -83 -5z m232 -42 c-2 -5 2 -13 10 -17 9 -6 2 -9 -19 -9 -33 0 -58 19
-26 21 13 1 11 3 -7 9 -22 8 -21 9 10 7 19 -1 33 -6 32 -11z m146 -15 c46 -1
62 -5 62 -15 0 -14 -9 -14 -127 0 -24 3 -43 9 -43 13 0 5 10 7 23 6 12 -1 50
-3 85 -4z m184 -26 c94 -5 148 -16 148 -31 0 -11 -6 -11 -27 -3 -16 6 -59 13
-98 15 -96 6 -135 13 -135 25 0 7 12 8 30 4 16 -4 53 -8 82 -10z m-112 -71 c0
-2 -7 -4 -15 -4 -8 0 -15 4 -15 10 0 5 7 7 15 4 8 -4 15 -8 15 -10z m-175 -25
c5 -5 -6 -9 -30 -9 -22 0 -50 -3 -63 -6 -16 -5 -22 -3 -20 7 6 27 88 32 113 8z
m50 1 c3 -5 -1 -10 -9 -10 -9 0 -16 5 -16 10 0 6 4 10 9 10 6 0 13 -4 16 -10z
m-50 -30 c4 -6 -7 -10 -27 -9 -27 0 -30 2 -13 9 27 12 33 12 40 0z"/>
<path d="M3338 223 c79 -2 205 -2 280 0 75 1 11 3 -143 3 -154 0 -216 -2 -137
-3z"/>
<path d="M4132 223 c37 -2 100 -2 140 0 40 1 10 3 -67 3 -77 0 -110 -1 -73 -3z"/>
<path d="M4563 223 c9 -2 25 -2 35 0 9 3 1 5 -18 5 -19 0 -27 -2 -17 -5z"/>
<path d="M298 203 c6 -2 18 -2 25 0 6 3 1 5 -13 5 -14 0 -19 -2 -12 -5z"/>
<path d="M10598 202 c13 -9 131 -17 122 -9 -3 2 -34 7 -70 11 -36 3 -59 2 -52
-2z"/>
<path d="M753 186 c3 -6 11 -9 18 -7 8 2 37 7 64 11 l50 8 -68 0 c-46 -1 -66
-4 -64 -12z"/>
<path d="M890 189 c0 -5 5 -7 10 -4 6 3 10 8 10 11 0 2 -4 4 -10 4 -5 0 -10
-5 -10 -11z"/>
<path d="M995 190 c-3 -5 1 -10 10 -10 9 0 13 5 10 10 -3 6 -8 10 -10 10 -2 0
-7 -4 -10 -10z"/>
<path d="M9936 189 c3 -5 14 -9 25 -9 10 0 19 4 19 9 0 5 -11 9 -25 9 -13 0
-22 -4 -19 -9z"/>
<path d="M10743 183 c9 -2 23 -2 30 0 6 3 -1 5 -18 5 -16 0 -22 -2 -12 -5z"/>
<path d="M2030 148 c-30 -7 -47 -13 -37 -15 9 -3 17 -11 17 -19 0 -9 -5 -12
-11 -8 -12 7 -12 6 10 -38 13 -26 16 -26 139 -33 219 -13 329 6 292 50 -10 12
-9 15 6 16 18 0 18 1 0 8 -18 7 -18 8 -2 14 10 4 30 7 44 8 l27 0 -25 11 c-35
16 -390 20 -460 6z m387 -64 c-3 -3 -12 -4 -19 -1 -8 3 -5 6 6 6 11 1 17 -2
13 -5z"/>
<path d="M280 140 c0 -4 6 -13 14 -20 12 -9 15 -8 13 8 -1 17 -27 28 -27 12z"/>
<path d="M890 129 c0 -11 5 -19 10 -19 6 0 10 5 10 11 0 6 7 9 15 5 8 -3 15
-2 15 3 0 5 -11 11 -25 13 -19 4 -25 1 -25 -13z"/>
<path d="M7698 140 c-3 -9 -67 -20 -140 -24 -27 -1 -51 -6 -55 -9 -3 -4 -12
-2 -19 4 -8 7 -14 7 -19 -1 -3 -5 -16 -8 -29 -4 -12 3 -42 -1 -66 -9 -83 -27
-190 -49 -215 -45 -20 4 -25 1 -25 -14 0 -16 4 -18 23 -12 28 9 64 14 147 19
36 2 77 8 93 14 15 6 59 11 97 12 38 1 67 5 64 10 -3 5 4 9 15 9 11 0 46 7 77
15 31 8 60 12 65 10 14 -9 17 10 4 22 -8 7 -15 8 -17 3z"/>
<path d="M958 123 c7 -3 16 -2 19 1 4 3 -2 6 -13 5 -11 0 -14 -3 -6 -6z"/>
<path d="M10011 121 c-7 -5 20 -9 60 -10 40 -1 71 0 68 3 -9 9 -115 15 -128 7z"/>
<path d="M10747 109 c7 -7 15 -10 18 -7 3 3 -2 9 -12 12 -14 6 -15 5 -6 -5z"/>
<path d="M445 100 c-3 -5 -1 -10 4 -10 6 0 11 5 11 10 0 6 -2 10 -4 10 -3 0
-8 -4 -11 -10z"/>
<path d="M540 96 c0 -16 9 -17 90 -14 49 2 90 7 90 12 0 5 -34 6 -78 3 -54 -4
-83 -2 -90 5 -9 9 -12 8 -12 -6z"/>
<path d="M7268 93 c12 -2 30 -2 40 0 9 3 -1 5 -23 4 -22 0 -30 -2 -17 -4z"/>
<path d="M776 75 c5 -12 -12 -14 -111 -14 -65 0 -120 -2 -122 -5 -3 -3 52 -6
121 -8 125 -3 126 -3 126 20 0 12 -4 22 -10 22 -5 0 -7 -7 -4 -15z"/>
<path d="M805 69 c-11 -17 1 -21 41 -13 32 6 35 8 19 15 -29 11 -53 11 -60 -2z"/>
<path d="M896 71 c-4 -5 -2 -12 3 -15 5 -4 12 -2 15 3 4 5 2 12 -3 15 -5 4
-12 2 -15 -3z"/>
<path d="M7590 71 c0 -6 5 -13 10 -16 6 -3 10 1 10 9 0 9 -4 16 -10 16 -5 0
-10 -4 -10 -9z"/>
<path d="M7383 44 c9 -10 188 -14 182 -4 -2 3 -46 7 -97 9 -51 1 -89 -1 -85
-5z"/>
<path d="M7589 30 c-8 -5 -103 -10 -212 -13 -109 -3 -201 -8 -205 -11 -3 -4
128 -6 292 -6 271 1 353 6 249 15 -21 1 -45 5 -53 8 -34 12 -58 14 -71 7z"/>
<path d="M7098 23 c7 -3 16 -2 19 1 4 3 -2 6 -13 5 -11 0 -14 -3 -6 -6z"/>
<path d="M9958 3 c6 -2 18 -2 25 0 6 3 1 5 -13 5 -14 0 -19 -2 -12 -5z"/>
</g>
</svg>
