<?xml version="1.0" standalone="no"?>
<!DOCTYPE svg PUBLIC "-//W3C//DTD SVG 20010904//EN"
 "http://www.w3.org/TR/2001/REC-SVG-20010904/DTD/svg10.dtd">
<svg version="1.0" xmlns="http://www.w3.org/2000/svg"
 width="500.000000pt" height="500.000000pt" viewBox="0 0 500.000000 500.000000"
 preserveAspectRatio="xMidYMid meet">

<g transform="translate(0.000000,500.000000) scale(0.100000,-0.100000)"
fill="#000000" stroke="none">
<path d="M1920 3365 l0 -755 85 0 85 0 1 588 0 587 27 -75 c80 -221 230 -311
442 -266 200 43 311 159 312 328 0 113 -36 182 -127 242 -121 81 -265 106
-602 106 l-223 0 0 -755z m581 707 c69 -27 131 -79 166 -140 24 -40 28 -60 31
-144 5 -125 -14 -190 -75 -258 -55 -62 -117 -85 -209 -77 -107 8 -191 74 -255
199 -41 82 -58 163 -66 317 l-6 133 179 -4 c153 -4 187 -8 235 -26z"/>
<path d="M2985 3610 c-3 -5 -23 -10 -43 -10 -25 0 -33 -3 -23 -9 11 -7 10 -10
-5 -13 -16 -4 -14 -6 9 -12 l27 -8 0 -128 c0 -185 30 -254 132 -304 29 -14 45
-25 36 -26 -23 0 -34 -20 -17 -31 9 -5 26 -1 47 11 36 22 52 25 52 11 0 -5 -9
-11 -20 -14 -11 -3 -20 -10 -20 -16 0 -19 30 -12 64 14 18 14 41 25 52 25 10
0 42 7 69 16 33 10 66 13 98 8 52 -7 52 -13 -3 -34 -182 -70 -323 -291 -405
-635 -27 -112 -65 -359 -65 -420 0 -21 -4 -35 -8 -30 -5 6 -116 259 -247 563
l-238 552 -89 0 -88 0 0 -727 0 -728 -24 42 c-47 82 -91 139 -166 218 -86 89
-130 150 -161 222 -17 40 -20 60 -15 118 21 231 23 203 -28 312 -25 55 -46
108 -46 119 0 10 -5 26 -10 34 -14 23 -30 0 -46 -67 -33 -140 -4 -279 95 -453
11 -19 33 -63 50 -98 l30 -63 -37 30 c-88 69 -183 165 -226 228 l-46 68 -3
146 -2 145 -37 75 c-37 75 -126 179 -152 179 -15 0 -46 -88 -46 -129 0 -99 78
-268 165 -360 35 -36 83 -96 107 -132 l44 -66 -85 39 c-56 26 -106 59 -145 95
-36 33 -91 71 -136 92 -99 47 -181 49 -315 6 -69 -23 -83 -30 -62 -33 15 -2
71 -32 124 -68 134 -89 173 -99 331 -84 l125 11 101 -49 c71 -34 125 -70 179
-117 42 -38 76 -70 74 -71 -8 -8 -229 45 -244 58 -32 28 -81 48 -117 48 -45 0
-134 -19 -166 -35 -65 -34 -150 -153 -150 -212 0 -30 4 -29 49 8 39 31 184 94
301 131 36 11 70 24 77 30 7 6 27 4 55 -5 24 -8 87 -22 140 -32 95 -17 98 -18
155 -72 42 -39 52 -52 35 -47 -13 3 -32 14 -43 25 -38 38 -90 52 -194 53 -98
1 -101 0 -174 -39 -86 -46 -192 -138 -176 -153 6 -6 48 -18 94 -26 183 -35
258 -16 416 104 l41 30 47 -16 c37 -13 56 -28 92 -77 51 -67 119 -180 129
-214 4 -13 12 -23 18 -23 6 0 7 7 2 18 -5 9 -10 343 -11 742 -2 643 0 722 13
695 8 -16 151 -345 318 -730 167 -384 308 -701 313 -702 6 -2 13 65 17 174 22
574 122 963 296 1156 49 54 131 117 152 117 4 0 8 -326 8 -725 l0 -725 85 0
85 0 -2 753 -3 752 -22 3 c-13 2 -23 7 -23 11 0 4 -22 22 -50 40 -52 34 -68
59 -25 39 41 -19 40 -2 -3 55 -67 87 -173 182 -238 215 -44 22 -65 39 -74 61
-24 58 -57 81 -116 81 -29 0 -56 -4 -59 -10z"/>
</g>
</svg>
