<?xml version="1.0" standalone="no"?>
<!DOCTYPE svg PUBLIC "-//W3C//DTD SVG 20010904//EN"
 "http://www.w3.org/TR/2001/REC-SVG-20010904/DTD/svg10.dtd">
<svg version="1.0" xmlns="http://www.w3.org/2000/svg"
 width="500.000000pt" height="500.000000pt" viewBox="0 0 500.000000 500.000000"
 preserveAspectRatio="xMidYMid meet">

<g transform="translate(0.000000,500.000000) scale(0.100000,-0.100000)"
fill="#000000" stroke="none">
<path d="M0 2500 l0 -2500 2500 0 2500 0 0 2500 0 2500 -2500 0 -2500 0 0
-2500z m2455 1609 c213 -25 358 -109 405 -234 7 -16 12 -63 12 -103 -1 -169
-112 -285 -312 -328 -212 -45 -362 45 -442 266 l-27 75 0 -587 -1 -588 -85 0
-85 0 0 755 0 755 223 0 c122 0 263 -5 312 -11z m668 -514 c13 -14 30 -39 37
-56 9 -22 30 -39 74 -61 65 -33 171 -128 238 -215 43 -57 44 -74 3 -55 -43 20
-27 -5 25 -39 28 -18 50 -36 50 -40 0 -4 10 -9 23 -11 l22 -3 3 -752 2 -753
-85 0 -85 0 0 725 c0 399 -4 725 -8 725 -21 0 -103 -63 -152 -117 -174 -193
-274 -582 -296 -1156 -4 -109 -11 -176 -17 -174 -5 1 -146 318 -313 702 -167
385 -310 714 -318 730 -13 27 -15 -52 -13 -695 1 -399 6 -733 11 -742 5 -11 4
-18 -2 -18 -6 0 -14 10 -18 23 -10 34 -78 147 -129 214 -36 49 -55 64 -92 77
l-47 16 -41 -30 c-118 -89 -189 -120 -279 -120 -64 0 -217 27 -231 42 -16 15
90 107 176 153 73 39 76 40 174 39 104 -1 156 -15 194 -53 11 -11 30 -22 43
-25 17 -5 7 8 -35 47 -57 54 -60 55 -155 72 -53 10 -116 24 -140 32 -28 9 -48
11 -55 5 -7 -6 -41 -19 -77 -30 -117 -37 -262 -100 -301 -131 -45 -37 -49 -38
-49 -8 0 59 85 178 150 212 32 16 121 35 166 35 36 0 85 -20 117 -48 15 -13
236 -66 244 -58 2 1 -32 33 -74 71 -54 47 -108 83 -179 117 l-101 49 -125 -11
c-158 -15 -197 -5 -331 84 -53 36 -109 66 -124 68 -21 3 -7 10 62 33 134 43
216 41 315 -6 45 -21 100 -59 136 -92 39 -36 89 -69 145 -95 l85 -39 -44 66
c-24 36 -72 96 -107 132 -87 92 -165 261 -165 360 0 41 31 129 46 129 26 0
115 -104 152 -179 l37 -75 2 -145 3 -146 46 -68 c43 -63 138 -159 226 -228
l37 -30 -30 63 c-17 35 -39 79 -50 98 -99 174 -128 313 -95 453 16 67 32 90
46 67 5 -8 10 -24 10 -34 0 -11 21 -64 46 -119 51 -109 49 -81 28 -312 -5 -58
-2 -78 15 -118 31 -72 75 -133 161 -222 75 -79 119 -136 166 -218 l24 -42 0
728 0 727 88 0 89 0 238 -552 c131 -304 242 -557 247 -563 4 -5 8 9 8 30 0 61
38 308 65 420 82 344 223 565 405 635 55 21 55 27 3 34 -32 5 -65 2 -98 -8
-27 -9 -59 -16 -69 -16 -11 0 -34 -11 -52 -25 -34 -26 -64 -33 -64 -14 0 6 9
13 20 16 11 3 20 9 20 14 0 14 -16 11 -52 -11 -21 -12 -38 -16 -47 -11 -17 11
-6 31 17 31 9 1 -7 12 -36 26 -102 50 -132 119 -132 304 l0 128 -27 8 c-23 6
-25 8 -9 12 15 3 16 6 5 13 -10 6 -2 9 23 9 20 0 40 5 43 10 3 6 30 10 59 10
44 0 58 -5 79 -25z"/>
<path d="M2093 3969 c8 -154 25 -235 66 -317 64 -125 148 -191 255 -199 92 -8
154 15 209 77 61 68 80 133 75 258 -3 84 -7 104 -31 144 -35 61 -97 113 -166
140 -48 18 -82 22 -235 26 l-179 4 6 -133z"/>
</g>
</svg>
