<?xml version="1.0" encoding="UTF-8"?>
<!DOCTYPE svg PUBLIC "-//W3C//DTD SVG 1.1//EN" "http://www.w3.org/Graphics/SVG/1.1/DTD/svg11.dtd">
<svg xmlns="http://www.w3.org/2000/svg" version="1.1" width="512px" height="512px" style="shape-rendering:geometricPrecision; text-rendering:geometricPrecision; image-rendering:optimizeQuality; fill-rule:evenodd; clip-rule:evenodd" xmlns:xlink="http://www.w3.org/1999/xlink">
<g><path style="opacity:0.99" fill="#000000" d="M 299.5,-0.5 C 329.167,-0.5 358.833,-0.5 388.5,-0.5C 391.063,1.61218 392.896,4.27885 394,7.5C 394.975,36.2283 394.642,64.895 393,93.5C 390.973,96.5185 388.139,98.3518 384.5,99C 365.5,99.3333 346.5,99.6667 327.5,100C 311.252,101.917 303.085,111.084 303,127.5C 302.5,146.164 302.333,164.83 302.5,183.5C 330.588,183.017 358.588,183.517 386.5,185C 389.268,186.762 390.768,189.262 391,192.5C 391.667,221.5 391.667,250.5 391,279.5C 390.386,283.115 388.553,285.949 385.5,288C 357.884,289.466 330.217,289.966 302.5,289.5C 302.667,361.501 302.5,433.501 302,505.5C 300.64,508.023 298.807,510.023 296.5,511.5C 264.167,511.5 231.833,511.5 199.5,511.5C 196.628,509.129 194.794,506.129 194,502.5C 193.5,431.501 193.333,360.501 193.5,289.5C 171.164,289.667 148.831,289.5 126.5,289C 121.345,288.346 118.178,285.513 117,280.5C 116.333,250.833 116.333,221.167 117,191.5C 117.979,188.375 119.813,185.875 122.5,184C 146.164,183.5 169.831,183.333 193.5,183.5C 193.333,162.164 193.5,140.831 194,119.5C 194.384,75.8868 212.218,41.7202 247.5,17C 263.745,7.64085 281.078,1.80752 299.5,-0.5 Z"/></g>
</svg>
