<?xml version="1.0" encoding="UTF-8"?>
<!DOCTYPE svg PUBLIC "-//W3C//DTD SVG 1.1//EN" "http://www.w3.org/Graphics/SVG/1.1/DTD/svg11.dtd">
<svg xmlns="http://www.w3.org/2000/svg" version="1.1" width="1600px" height="1200px" style="shape-rendering:geometricPrecision; text-rendering:geometricPrecision; image-rendering:optimizeQuality; fill-rule:evenodd; clip-rule:evenodd" xmlns:xlink="http://www.w3.org/1999/xlink">
<g><path style="opacity:0.99" fill="#000000" d="M 644.5,87.5 C 747.834,87.3333 851.167,87.5 954.5,88C 982.534,88.6392 1010.53,89.9725 1038.5,92C 1096.28,96.2565 1148.94,114.59 1196.5,147C 1260.01,196.482 1296.18,261.649 1305,342.5C 1308.5,376.407 1310.5,410.407 1311,444.5C 1311.67,547.833 1311.67,651.167 1311,754.5C 1310.5,788.593 1308.5,822.593 1305,856.5C 1296.18,937.351 1260.01,1002.52 1196.5,1052C 1154.41,1081.26 1107.75,1098.92 1056.5,1105C 1022.93,1108.47 989.259,1110.47 955.5,1111C 851.5,1111.67 747.5,1111.67 643.5,1111C 609.741,1110.47 576.074,1108.47 542.5,1105C 461.649,1096.18 396.482,1060.01 347,996.5C 321.296,960.067 304.629,919.734 297,875.5C 291.16,835.392 288.16,795.058 288,754.5C 287.333,651.167 287.333,547.833 288,444.5C 288.16,403.942 291.16,363.608 297,323.5C 311.769,236.815 356.936,171.648 432.5,128C 472.77,107.598 515.436,95.5983 560.5,92C 588.639,90.1332 616.639,88.6332 644.5,87.5 Z M 678.5,179.5 C 774.839,179.129 871.173,179.629 967.5,181C 997.668,181.275 1027.67,183.608 1057.5,188C 1132.69,200.534 1181.86,243.034 1205,315.5C 1211.18,338.434 1214.85,361.768 1216,385.5C 1218.91,456.801 1220.08,528.134 1219.5,599.5C 1219.33,639.833 1219.17,680.167 1219,720.5C 1218.67,756.205 1217.33,791.872 1215,827.5C 1212.66,862.517 1203.33,895.517 1187,926.5C 1155.48,976.042 1110.31,1004.54 1051.5,1012C 1039.22,1013.85 1026.89,1015.18 1014.5,1016C 942.865,1018.91 871.199,1020.07 799.5,1019.5C 759.167,1019.33 718.833,1019.17 678.5,1019C 642.793,1018.71 607.126,1017.37 571.5,1015C 535.702,1012.63 502.035,1002.97 470.5,986C 422.3,954.156 394.467,909.322 387,851.5C 385.081,838.894 383.748,826.228 383,813.5C 381.32,782.522 380.32,751.522 380,720.5C 379.333,639.833 379.333,559.167 380,478.5C 380.369,454.158 381.036,429.825 382,405.5C 382.085,369.57 387.751,334.57 399,300.5C 420.63,246.204 459.464,210.704 515.5,194C 538.434,187.819 561.768,184.152 585.5,183C 616.649,181.485 647.649,180.319 678.5,179.5 Z M 792.5,428.5 C 854.296,428.647 903.463,453.314 940,502.5C 980.667,567.167 980.667,631.833 940,696.5C 895.162,755.569 835.995,778.735 762.5,766C 694,748.167 650.833,705 633,636.5C 620.265,563.005 643.431,503.838 702.5,459C 729.835,440.722 759.835,430.555 792.5,428.5 Z"/></g>
<g><path style="opacity:0.98" fill="#000000" d="M 1068.5,264.5 C 1108.27,266.273 1130.27,286.939 1134.5,326.5C 1131.89,360.609 1113.89,381.109 1080.5,388C 1048.08,389.963 1025.75,375.963 1013.5,346C 1004.9,307.521 1018.9,281.188 1055.5,267C 1059.99,266.24 1064.32,265.406 1068.5,264.5 Z"/></g>
<g><path style="opacity:0.987" fill="#000000" d="M 779.5,336.5 C 886.234,332.942 968.4,375.609 1026,464.5C 1066.89,537.452 1073.56,613.452 1046,692.5C 1012.77,775.365 953.273,829.198 867.5,854C 764.937,877.245 677.104,851.411 604,776.5C 541.294,702.668 522.294,618.668 547,524.5C 576.167,435.333 635.333,376.167 724.5,347C 742.665,341.866 760.998,338.366 779.5,336.5 Z M 792.5,428.5 C 759.835,430.555 729.835,440.722 702.5,459C 643.431,503.838 620.265,563.005 633,636.5C 650.833,705 694,748.167 762.5,766C 835.995,778.735 895.162,755.569 940,696.5C 980.667,631.833 980.667,567.167 940,502.5C 903.463,453.314 854.296,428.647 792.5,428.5 Z"/></g>
</svg>
