<?xml version="1.0" standalone="no"?>
<!DOCTYPE svg PUBLIC "-//W3C//DTD SVG 20010904//EN"
 "http://www.w3.org/TR/2001/REC-SVG-20010904/DTD/svg10.dtd">
<svg version="1.0" xmlns="http://www.w3.org/2000/svg"
 width="400.000000pt" height="300.000000pt" viewBox="0 0 400.000000 300.000000"
 preserveAspectRatio="xMidYMid meet">

<g transform="translate(0.000000,300.000000) scale(0.100000,-0.100000)"
fill="#000000" stroke="none">
<path d="M1770 1861 c0 -16 8 -20 38 -23 l37 -3 0 -79 0 -78 -57 -22 c-57 -21
-148 -79 -148 -93 0 -5 28 -9 61 -11 34 -1 81 -11 106 -22 l43 -19 -2 -178 -3
-178 -37 -3 c-30 -3 -38 -7 -38 -23 0 -18 9 -19 225 -19 218 0 225 1 225 20 0
18 -7 20 -80 20 l-80 0 0 115 0 115 75 0 c92 0 150 24 201 83 121 142 54 348
-129 402 -37 11 -102 15 -244 15 -184 0 -193 -1 -193 -19z m434 -33 c58 -18
131 -91 146 -148 27 -99 -24 -205 -117 -246 -42 -18 -154 -18 -199 1 -19 8
-71 40 -116 71 -44 31 -103 63 -131 72 -50 14 -50 15 -26 27 72 38 204 35 290
-7 41 -21 46 -22 38 -7 -5 10 -14 21 -19 24 -11 7 -14 208 -3 218 11 11 93 8
137 -5z"/>
</g>
</svg>
